<ttFont>
    <TTGlyph name="A" xMin="16" yMin="0" xMax="1131" yMax="1456">
      <contour>
        <pt x="765" y="309" on="1"/>
        <pt x="381" y="309" on="1"/>
        <pt x="303" y="0" on="1"/>
        <pt x="16" y="0" on="1"/>
        <pt x="426" y="1456" on="1"/>
        <pt x="722" y="1456" on="1"/>
        <pt x="1131" y="0" on="1"/>
        <pt x="844" y="0" on="1"/>
      </contour>
      <contour>
        <pt x="439" y="538" on="1"/>
        <pt x="707" y="538" on="1"/>
        <pt x="576" y="1053" on="1"/>
        <pt x="570" y="1053" on="1"/>
      </contour>
    </TTGlyph>
    <TTGlyph name="A.smcp" xMin="12" yMin="0" xMax="1076" yMax="1165">
      <contour>
        <pt x="715" y="203" on="1"/>
        <pt x="373" y="203" on="1"/>
        <pt x="313" y="0" on="1"/>
        <pt x="12" y="0" on="1"/>
        <pt x="389" y="1165" on="1"/>
        <pt x="701" y="1165" on="1"/>
        <pt x="1076" y="0" on="1"/>
        <pt x="776" y="0" on="1"/>
      </contour>
      <contour>
        <pt x="439" y="429" on="1"/>
        <pt x="648" y="429" on="1"/>
        <pt x="546" y="772" on="1"/>
        <pt x="540" y="772" on="1"/>
      </contour>
    </TTGlyph>
    <TTGlyph name="AE" xMin="9" yMin="0" xMax="1591" yMax="1456">
      <contour>
        <pt x="1591" y="0" on="1"/>
        <pt x="817" y="0" on="1"/>
        <pt x="805" y="339" on="1"/>
        <pt x="476" y="339" on="1"/>
        <pt x="340" y="0" on="1"/>
        <pt x="9" y="0" on="1"/>
        <pt x="648" y="1456" on="1"/>
        <pt x="1539" y="1456" on="1"/>
        <pt x="1539" y="1225" on="1"/>
        <pt x="1058" y="1225" on="1"/>
        <pt x="1070" y="862" on="1"/>
        <pt x="1470" y="862" on="1"/>
        <pt x="1470" y="632" on="1"/>
        <pt x="1078" y="632" on="1"/>
        <pt x="1093" y="230" on="1"/>
        <pt x="1591" y="230" on="1"/>
      </contour>
      <contour>
        <pt x="573" y="578" on="1"/>
        <pt x="797" y="578" on="1"/>
        <pt x="780" y="1075" on="1"/>
        <pt x="774" y="1076" on="1"/>
      </contour>
    </TTGlyph>
    <TTGlyph name="AEacute" xMin="9" yMin="0" xMax="1591" yMax="1826">
      <component glyphName="AE" x="0" y="0" flags="0x204"/>
      <component glyphName="acute" x="550" y="348" flags="0x4"/>
    </TTGlyph>
    <TTGlyph name="Aacute" xMin="16" yMin="0" xMax="1131" yMax="1826">
      <component glyphName="A" x="0" y="0" flags="0x204"/>
      <component glyphName="acute" x="329" y="348" flags="0x4"/>
    </TTGlyph>
    <TTGlyph name="Aacute.smcp" xMin="12" yMin="0" xMax="1076" yMax="1503">
      <component glyphName="A.smcp" x="0" y="0" flags="0x204"/>
      <component glyphName="acute" x="294" y="25" flags="0x4"/>
    </TTGlyph>
    <TTGlyph name="Abreve" xMin="16" yMin="0" xMax="1131" yMax="1897">
      <component glyphName="A" x="0" y="0" flags="0x204"/>
      <component glyphName="breve" x="161" y="441" flags="0x4"/>
    </TTGlyph>
    <TTGlyph name="Abreve.smcp" xMin="12" yMin="0" xMax="1076" yMax="1574">
      <component glyphName="A.smcp" x="0" y="0" flags="0x204"/>
      <component glyphName="breve" x="126" y="118" flags="0x4"/>
    </TTGlyph>
    <TTGlyph name="Acircumflex" xMin="16" yMin="0" xMax="1131" yMax="1853">
      <component glyphName="A" x="0" y="0" flags="0x204"/>
      <component glyphName="circumflex" x="126" y="339" flags="0x4"/>
    </TTGlyph>
    <TTGlyph name="Acircumflex.smcp" xMin="12" yMin="0" xMax="1076" yMax="1530">
      <component glyphName="A.smcp" x="0" y="0" flags="0x204"/>
      <component glyphName="circumflex" x="91" y="16" flags="0x4"/>
    </TTGlyph>
    <TTGlyph name="Adieresis" xMin="16" yMin="0" xMax="1131" yMax="1804">
      <component glyphName="A" x="0" y="0" flags="0x204"/>
      <component glyphName="dieresis" x="81" y="348" flags="0x4"/>
    </TTGlyph>
    <TTGlyph name="Adieresis.smcp" xMin="12" yMin="0" xMax="1076" yMax="1481">
      <component glyphName="A.smcp" x="0" y="0" flags="0x204"/>
      <component glyphName="dieresis" x="46" y="25" flags="0x4"/>
    </TTGlyph>
    <TTGlyph name="Agrave" xMin="16" yMin="0" xMax="1131" yMax="1825">
      <component glyphName="A" x="0" y="0" flags="0x204"/>
      <component glyphName="grave" x="170" y="348" flags="0x4"/>
    </TTGlyph>
    <TTGlyph name="Agrave.smcp" xMin="12" yMin="0" xMax="1076" yMax="1502">
      <component glyphName="A.smcp" x="0" y="0" flags="0x204"/>
      <component glyphName="grave" x="135" y="25" flags="0x4"/>
    </TTGlyph>
    <TTGlyph name="Alpha" xMin="16" yMin="0" xMax="1131" yMax="1456">
      <component glyphName="A" x="0" y="0" flags="0x204"/>
    </TTGlyph>
    <TTGlyph name="Alphatonos" xMin="16" yMin="0" xMax="1131" yMax="1623">
      <component glyphName="A" x="0" y="0" flags="0x204"/>
      <component glyphName="tonos" x="-147" y="0" flags="0x4"/>
    </TTGlyph>
    <TTGlyph name="Amacron" xMin="16" yMin="0" xMax="1131" yMax="1777">
      <component glyphName="A" x="0" y="0" flags="0x204"/>
      <component glyphName="macron" x="102" y="320" flags="0x4"/>
    </TTGlyph>
    <TTGlyph name="Amacron.smcp" xMin="12" yMin="0" xMax="1076" yMax="1456">
      <component glyphName="A.smcp" x="0" y="0" flags="0x204"/>
      <component glyphName="macron" x="67" y="-1" flags="0x4"/>
    </TTGlyph>
    <TTGlyph name="Aogonek" xMin="16" yMin="-415" xMax="1147" yMax="1456">
      <component glyphName="A" x="0" y="0" flags="0x204"/>
      <component glyphName="ogonek" x="682" y="0" flags="0x4"/>
    </TTGlyph>
    <TTGlyph name="Aogonek.smcp" xMin="12" yMin="-415" xMax="1091" yMax="1165">
      <component glyphName="A.smcp" x="0" y="0" flags="0x204"/>
      <component glyphName="ogonek" x="626" y="0" flags="0x4"/>
    </TTGlyph>
    <TTGlyph name="Aring" xMin="16" yMin="0" xMax="1131" yMax="1929">
      <component glyphName="A" x="0" y="0" flags="0x204"/>
      <component glyphName="ring" x="264" y="440" flags="0x4"/>
    </TTGlyph>
    <TTGlyph name="Aring.smcp" xMin="12" yMin="0" xMax="1076" yMax="1606">
      <component glyphName="A.smcp" x="0" y="0" flags="0x204"/>
      <component glyphName="ring" x="229" y="117" flags="0x4"/>
    </TTGlyph>
    <TTGlyph name="Aringacute" xMin="16" yMin="0" xMax="1131" yMax="2148">
      <component glyphName="A" x="0" y="0" flags="0x204"/>
      <component glyphName="ringacute" x="269" y="394" flags="0x4"/>
    </TTGlyph>
    <TTGlyph name="Aringacute.smcp" xMin="12" yMin="0" xMax="1076" yMax="1825">
      <component glyphName="A.smcp" x="0" y="0" flags="0x204"/>
      <component glyphName="ringacute" x="234" y="71" flags="0x4"/>
    </TTGlyph>
    <TTGlyph name="Atilde" xMin="16" yMin="0" xMax="1131" yMax="1899">
      <component glyphName="A" x="0" y="0" flags="0x204"/>
      <component glyphName="tilde" x="138" y="373" flags="0x4"/>
    </TTGlyph>
    <TTGlyph name="Atilde.smcp" xMin="12" yMin="0" xMax="1076" yMax="1576">
      <component glyphName="A.smcp" x="0" y="0" flags="0x204"/>
      <component glyphName="tilde" x="103" y="50" flags="0x4"/>
    </TTGlyph>
    <TTGlyph name="B" xMin="110" yMin="0" xMax="1058" yMax="1456">
      <contour>
        <pt x="110" y="0" on="1"/>
        <pt x="110" y="1456" on="1"/>
        <pt x="539" y="1456" on="1"/>
        <pt x="764" y="1456" on="0"/>
        <pt x="1017" y="1256" on="0"/>
        <pt x="1017" y="1058" on="1"/>
        <pt x="1017" y="954" on="0"/>
        <pt x="925" y="793" on="0"/>
        <pt x="833" y="753" on="1"/>
        <pt x="948" y="726" on="0"/>
        <pt x="1058" y="546" on="0"/>
        <pt x="1058" y="425" on="1"/>
        <pt x="1058" y="216" on="0"/>
        <pt x="819" y="0" on="0"/>
        <pt x="596" y="0" on="1"/>
      </contour>
      <contour>
        <pt x="395" y="642" on="1"/>
        <pt x="395" y="227" on="1"/>
        <pt x="596" y="227" on="1"/>
        <pt x="686" y="227" on="0"/>
        <pt x="775" y="327" on="0"/>
        <pt x="775" y="426" on="1"/>
        <pt x="775" y="530" on="0"/>
        <pt x="699" y="642" on="0"/>
        <pt x="615" y="642" on="1"/>
      </contour>
      <contour>
        <pt x="395" y="841" on="1"/>
        <pt x="552" y="841" on="1"/>
        <pt x="639" y="843" on="0"/>
        <pt x="732" y="940" on="0"/>
        <pt x="732" y="1031" on="1"/>
        <pt x="732" y="1133" on="0"/>
        <pt x="636" y="1228" on="0"/>
        <pt x="539" y="1228" on="1"/>
        <pt x="395" y="1228" on="1"/>
      </contour>
    </TTGlyph>
    <TTGlyph name="B.smcp" xMin="109" yMin="0" xMax="965" yMax="1165">
      <contour>
        <pt x="109" y="0" on="1"/>
        <pt x="109" y="1165" on="1"/>
        <pt x="523" y="1165" on="1"/>
        <pt x="709" y="1165" on="0"/>
        <pt x="916" y="1002" on="0"/>
        <pt x="916" y="843" on="1"/>
        <pt x="916" y="760" on="0"/>
        <pt x="821" y="629" on="0"/>
        <pt x="735" y="596" on="1"/>
        <pt x="850" y="571" on="0"/>
        <pt x="965" y="427" on="0"/>
        <pt x="965" y="328" on="1"/>
        <pt x="965" y="165" on="0"/>
        <pt x="769" y="0" on="0"/>
        <pt x="582" y="0" on="1"/>
      </contour>
      <contour>
        <pt x="393" y="495" on="1"/>
        <pt x="393" y="225" on="1"/>
        <pt x="582" y="225" on="1"/>
        <pt x="639" y="225" on="0"/>
        <pt x="682" y="285" on="0"/>
        <pt x="682" y="351" on="1"/>
        <pt x="682" y="425" on="0"/>
        <pt x="639" y="495" on="0"/>
        <pt x="582" y="495" on="1"/>
      </contour>
      <contour>
        <pt x="393" y="680" on="1"/>
        <pt x="528" y="680" on="1"/>
        <pt x="579" y="681" on="0"/>
        <pt x="632" y="743" on="0"/>
        <pt x="632" y="802" on="1"/>
        <pt x="632" y="872" on="0"/>
        <pt x="578" y="936" on="0"/>
        <pt x="523" y="936" on="1"/>
        <pt x="393" y="936" on="1"/>
      </contour>
    </TTGlyph>
    <TTGlyph name="Beta" xMin="110" yMin="0" xMax="1058" yMax="1456">
      <component glyphName="B" x="0" y="0" flags="0x204"/>
    </TTGlyph>
    <TTGlyph name="C" xMin="74" yMin="-21" xMax="1028" yMax="1477">
      <contour>
        <pt x="1023" y="469" on="1"/>
        <pt x="1026" y="463" on="1"/>
        <pt x="1028" y="223" on="0"/>
        <pt x="796" y="-21" on="0"/>
        <pt x="570" y="-21" on="1"/>
        <pt x="344" y="-21" on="0"/>
        <pt x="74" y="256" on="0"/>
        <pt x="74" y="510" on="1"/>
        <pt x="74" y="945" on="1"/>
        <pt x="74" y="1198" on="0"/>
        <pt x="335" y="1477" on="0"/>
        <pt x="554" y="1477" on="1"/>
        <pt x="786" y="1477" on="0"/>
        <pt x="1023" y="1229" on="0"/>
        <pt x="1027" y="986" on="1"/>
        <pt x="1024" y="980" on="1"/>
        <pt x="750" y="980" on="1"/>
        <pt x="756" y="1123" on="0"/>
        <pt x="666" y="1249" on="0"/>
        <pt x="554" y="1249" on="1"/>
        <pt x="458" y="1249" on="0"/>
        <pt x="356" y="1099" on="0"/>
        <pt x="356" y="947" on="1"/>
        <pt x="356" y="510" on="1"/>
        <pt x="356" y="356" on="0"/>
        <pt x="465" y="206" on="0"/>
        <pt x="570" y="206" on="1"/>
        <pt x="673" y="206" on="0"/>
        <pt x="754" y="325" on="0"/>
        <pt x="749" y="469" on="1"/>
      </contour>
    </TTGlyph>
    <TTGlyph name="C.smcp" xMin="81" yMin="-17" xMax="933" yMax="1181">
      <contour>
        <pt x="925" y="398" on="1"/>
        <pt x="927" y="392" on="1"/>
        <pt x="931" y="190" on="0"/>
        <pt x="718" y="-17" on="0"/>
        <pt x="515" y="-17" on="1"/>
        <pt x="319" y="-17" on="0"/>
        <pt x="81" y="247" on="0"/>
        <pt x="81" y="461" on="1"/>
        <pt x="81" y="704" on="1"/>
        <pt x="81" y="916" on="0"/>
        <pt x="319" y="1181" on="0"/>
        <pt x="515" y="1181" on="1"/>
        <pt x="719" y="1181" on="0"/>
        <pt x="933" y="974" on="0"/>
        <pt x="929" y="774" on="1"/>
        <pt x="927" y="768" on="1"/>
        <pt x="652" y="768" on="1"/>
        <pt x="652" y="871" on="0"/>
        <pt x="594" y="956" on="0"/>
        <pt x="515" y="956" on="1"/>
        <pt x="441" y="956" on="0"/>
        <pt x="365" y="819" on="0"/>
        <pt x="365" y="705" on="1"/>
        <pt x="365" y="461" on="1"/>
        <pt x="365" y="346" on="0"/>
        <pt x="441" y="208" on="0"/>
        <pt x="515" y="208" on="1"/>
        <pt x="592" y="208" on="0"/>
        <pt x="649" y="293" on="0"/>
        <pt x="649" y="398" on="1"/>
      </contour>
    </TTGlyph>
    <TTGlyph name="Cacute" xMin="74" yMin="-21" xMax="1028" yMax="1847">
      <component glyphName="C" x="0" y="0" flags="0x204"/>
      <component glyphName="acute" x="314" y="369" flags="0x4"/>
    </TTGlyph>
    <TTGlyph name="Cacute.smcp" xMin="81" yMin="-17" xMax="933" yMax="1519">
      <component glyphName="C.smcp" x="0" y="0" flags="0x204"/>
      <component glyphName="acute" x="263" y="41" flags="0x4"/>
    </TTGlyph>
    <TTGlyph name="Ccaron" xMin="74" yMin="-21" xMax="1028" yMax="1893">
      <component glyphName="C" x="0" y="0" flags="0x204"/>
      <component glyphName="caron" x="132" y="371" flags="0x4"/>
    </TTGlyph>
    <TTGlyph name="Ccaron.smcp" xMin="81" yMin="-17" xMax="933" yMax="1565">
      <component glyphName="C.smcp" x="0" y="0" flags="0x204"/>
      <component glyphName="caron" x="81" y="43" flags="0x4"/>
    </TTGlyph>
    <TTGlyph name="Ccedilla" xMin="74" yMin="-462" xMax="1028" yMax="1477">
      <component glyphName="C" x="0" y="0" flags="0x204"/>
      <component glyphName="cedilla" x="331" y="0" flags="0x4"/>
    </TTGlyph>
    <TTGlyph name="Ccedilla.smcp" xMin="81" yMin="-462" xMax="933" yMax="1181">
      <component glyphName="C.smcp" x="0" y="0" flags="0x204"/>
      <component glyphName="cedilla" x="282" y="0" flags="0x4"/>
    </TTGlyph>
    <TTGlyph name="Ccircumflex" xMin="74" yMin="-21" xMax="1028" yMax="1874">
      <component glyphName="C" x="0" y="0" flags="0x204"/>
      <component glyphName="circumflex" x="111" y="360" flags="0x4"/>
    </TTGlyph>
    <TTGlyph name="Ccircumflex.smcp" xMin="81" yMin="-17" xMax="933" yMax="1546">
      <component glyphName="C.smcp" x="0" y="0" flags="0x204"/>
      <component glyphName="circumflex" x="60" y="32" flags="0x4"/>
    </TTGlyph>
    <TTGlyph name="Chi" xMin="27" yMin="0" xMax="1115" yMax="1456">
      <component glyphName="X" x="0" y="0" flags="0x204"/>
    </TTGlyph>
    <TTGlyph name="D" xMin="110" yMin="0" xMax="1066" yMax="1456">
      <contour>
        <pt x="110" y="0" on="1"/>
        <pt x="110" y="1456" on="1"/>
        <pt x="550" y="1456" on="1"/>
        <pt x="774" y="1456" on="0"/>
        <pt x="1066" y="1117" on="0"/>
        <pt x="1066" y="850" on="1"/>
        <pt x="1066" y="605" on="1"/>
        <pt x="1066" y="338" on="0"/>
        <pt x="774" y="0" on="0"/>
        <pt x="550" y="0" on="1"/>
      </contour>
      <contour>
        <pt x="395" y="1228" on="1"/>
        <pt x="395" y="227" on="1"/>
        <pt x="534" y="227" on="1"/>
        <pt x="653" y="227" on="0"/>
        <pt x="782" y="434" on="0"/>
        <pt x="782" y="605" on="1"/>
        <pt x="782" y="852" on="1"/>
        <pt x="782" y="1022" on="0"/>
        <pt x="653" y="1228" on="0"/>
        <pt x="534" y="1228" on="1"/>
      </contour>
    </TTGlyph>
    <TTGlyph name="D.smcp" xMin="109" yMin="0" xMax="958" yMax="1165">
      <contour>
        <pt x="109" y="0" on="1"/>
        <pt x="109" y="1165" on="1"/>
        <pt x="510" y="1165" on="1"/>
        <pt x="705" y="1165" on="0"/>
        <pt x="958" y="898" on="0"/>
        <pt x="958" y="687" on="1"/>
        <pt x="958" y="477" on="1"/>
        <pt x="958" y="266" on="0"/>
        <pt x="705" y="0" on="0"/>
        <pt x="510" y="0" on="1"/>
      </contour>
      <contour>
        <pt x="393" y="939" on="1"/>
        <pt x="393" y="225" on="1"/>
        <pt x="510" y="225" on="1"/>
        <pt x="585" y="225" on="0"/>
        <pt x="674" y="364" on="0"/>
        <pt x="674" y="477" on="1"/>
        <pt x="674" y="688" on="1"/>
        <pt x="674" y="799" on="0"/>
        <pt x="585" y="939" on="0"/>
        <pt x="510" y="939" on="1"/>
      </contour>
    </TTGlyph>
    <TTGlyph name="Dcaron" xMin="110" yMin="0" xMax="1066" yMax="1872">
      <component glyphName="D" x="0" y="0" flags="0x204"/>
      <component glyphName="caron" x="80" y="350" flags="0x4"/>
    </TTGlyph>
    <TTGlyph name="Dcaron.smcp" xMin="100" yMin="0" xMax="958" yMax="1549">
      <component glyphName="D.smcp" x="0" y="0" flags="0x204"/>
      <component glyphName="caron" x="18" y="27" flags="0x4"/>
    </TTGlyph>
    <TTGlyph name="Dcroat" xMin="31" yMin="0" xMax="1096" yMax="1456">
      <contour>
        <pt x="140" y="0" on="1"/>
        <pt x="140" y="655" on="1"/>
        <pt x="31" y="655" on="1"/>
        <pt x="31" y="830" on="1"/>
        <pt x="140" y="830" on="1"/>
        <pt x="140" y="1456" on="1"/>
        <pt x="580" y="1456" on="1"/>
        <pt x="804" y="1456" on="0"/>
        <pt x="1096" y="1117" on="0"/>
        <pt x="1096" y="850" on="1"/>
        <pt x="1096" y="605" on="1"/>
        <pt x="1096" y="338" on="0"/>
        <pt x="804" y="0" on="0"/>
        <pt x="580" y="0" on="1"/>
      </contour>
      <contour>
        <pt x="612" y="655" on="1"/>
        <pt x="425" y="655" on="1"/>
        <pt x="425" y="227" on="1"/>
        <pt x="564" y="227" on="1"/>
        <pt x="683" y="227" on="0"/>
        <pt x="812" y="434" on="0"/>
        <pt x="812" y="605" on="1"/>
        <pt x="812" y="852" on="1"/>
        <pt x="812" y="1022" on="0"/>
        <pt x="683" y="1228" on="0"/>
        <pt x="564" y="1228" on="1"/>
        <pt x="425" y="1228" on="1"/>
        <pt x="425" y="830" on="1"/>
        <pt x="612" y="830" on="1"/>
      </contour>
    </TTGlyph>
    <TTGlyph name="Dcroat.smcp" xMin="-26" yMin="0" xMax="958" yMax="1165">
      <contour>
        <pt x="109" y="0" on="1"/>
        <pt x="109" y="508" on="1"/>
        <pt x="-26" y="508" on="1"/>
        <pt x="-26" y="683" on="1"/>
        <pt x="109" y="683" on="1"/>
        <pt x="109" y="1165" on="1"/>
        <pt x="510" y="1165" on="1"/>
        <pt x="705" y="1165" on="0"/>
        <pt x="958" y="898" on="0"/>
        <pt x="958" y="687" on="1"/>
        <pt x="958" y="477" on="1"/>
        <pt x="958" y="266" on="0"/>
        <pt x="705" y="0" on="0"/>
        <pt x="510" y="0" on="1"/>
      </contour>
      <contour>
        <pt x="555" y="508" on="1"/>
        <pt x="393" y="508" on="1"/>
        <pt x="393" y="225" on="1"/>
        <pt x="510" y="225" on="1"/>
        <pt x="585" y="225" on="0"/>
        <pt x="674" y="364" on="0"/>
        <pt x="674" y="477" on="1"/>
        <pt x="674" y="688" on="1"/>
        <pt x="674" y="799" on="0"/>
        <pt x="585" y="939" on="0"/>
        <pt x="510" y="939" on="1"/>
        <pt x="393" y="939" on="1"/>
        <pt x="393" y="683" on="1"/>
        <pt x="555" y="683" on="1"/>
      </contour>
    </TTGlyph>
    <TTGlyph name="Delta" xMin="22" yMin="0" xMax="1282" yMax="1456">
      <contour>
        <pt x="507" y="1456" on="1"/>
        <pt x="802" y="1456" on="1"/>
        <pt x="1282" y="0" on="1"/>
        <pt x="22" y="0" on="1"/>
      </contour>
      <contour>
        <pt x="391" y="227" on="1"/>
        <pt x="913" y="227" on="1"/>
        <pt x="657" y="1051" on="1"/>
        <pt x="651" y="1051" on="1"/>
      </contour>
    </TTGlyph>
    <TTGlyph name="E" xMin="110" yMin="0" xMax="970" yMax="1456">
      <contour>
        <pt x="884" y="639" on="1"/>
        <pt x="395" y="639" on="1"/>
        <pt x="395" y="227" on="1"/>
        <pt x="970" y="227" on="1"/>
        <pt x="970" y="0" on="1"/>
        <pt x="110" y="0" on="1"/>
        <pt x="110" y="1456" on="1"/>
        <pt x="968" y="1456" on="1"/>
        <pt x="968" y="1228" on="1"/>
        <pt x="395" y="1228" on="1"/>
        <pt x="395" y="866" on="1"/>
        <pt x="884" y="866" on="1"/>
      </contour>
    </TTGlyph>
    <TTGlyph name="E.smcp" xMin="109" yMin="0" xMax="843" yMax="1165">
      <contour>
        <pt x="770" y="490" on="1"/>
        <pt x="393" y="490" on="1"/>
        <pt x="393" y="225" on="1"/>
        <pt x="843" y="225" on="1"/>
        <pt x="843" y="0" on="1"/>
        <pt x="109" y="0" on="1"/>
        <pt x="109" y="1165" on="1"/>
        <pt x="843" y="1165" on="1"/>
        <pt x="843" y="939" on="1"/>
        <pt x="393" y="939" on="1"/>
        <pt x="393" y="716" on="1"/>
        <pt x="770" y="716" on="1"/>
      </contour>
    </TTGlyph>
    <TTGlyph name="Eacute" xMin="110" yMin="0" xMax="970" yMax="1826">
      <component glyphName="E" x="0" y="0" flags="0x204"/>
      <component glyphName="acute" x="269" y="348" flags="0x4"/>
    </TTGlyph>
    <TTGlyph name="Eacute.smcp" xMin="109" yMin="0" xMax="843" yMax="1503">
      <component glyphName="E.smcp" x="0" y="0" flags="0x204"/>
      <component glyphName="acute" x="224" y="25" flags="0x4"/>
    </TTGlyph>
    <TTGlyph name="Ebreve" xMin="110" yMin="0" xMax="970" yMax="1897">
      <component glyphName="E" x="0" y="0" flags="0x204"/>
      <component glyphName="breve" x="101" y="441" flags="0x4"/>
    </TTGlyph>
    <TTGlyph name="Ebreve.smcp" xMin="109" yMin="0" xMax="843" yMax="1574">
      <component glyphName="E.smcp" x="0" y="0" flags="0x204"/>
      <component glyphName="breve" x="56" y="118" flags="0x4"/>
    </TTGlyph>
    <TTGlyph name="Ecaron" xMin="110" yMin="0" xMax="970" yMax="1872">
      <component glyphName="E" x="0" y="0" flags="0x204"/>
      <component glyphName="caron" x="87" y="350" flags="0x4"/>
    </TTGlyph>
    <TTGlyph name="Ecaron.smcp" xMin="109" yMin="0" xMax="843" yMax="1549">
      <component glyphName="E.smcp" x="0" y="0" flags="0x204"/>
      <component glyphName="caron" x="42" y="27" flags="0x4"/>
    </TTGlyph>
    <TTGlyph name="Ecircumflex" xMin="110" yMin="0" xMax="970" yMax="1853">
      <component glyphName="E" x="0" y="0" flags="0x204"/>
      <component glyphName="circumflex" x="66" y="339" flags="0x4"/>
    </TTGlyph>
    <TTGlyph name="Ecircumflex.smcp" xMin="109" yMin="0" xMax="843" yMax="1530">
      <component glyphName="E.smcp" x="0" y="0" flags="0x204"/>
      <component glyphName="circumflex" x="21" y="16" flags="0x4"/>
    </TTGlyph>
    <TTGlyph name="Edieresis" xMin="110" yMin="0" xMax="970" yMax="1804">
      <component glyphName="E" x="0" y="0" flags="0x204"/>
      <component glyphName="dieresis" x="21" y="348" flags="0x4"/>
    </TTGlyph>
    <TTGlyph name="Edieresis.smcp" xMin="109" yMin="0" xMax="843" yMax="1481">
      <component glyphName="E.smcp" x="0" y="0" flags="0x204"/>
      <component glyphName="dieresis" x="-22" y="25" flags="0x4"/>
    </TTGlyph>
    <TTGlyph name="Edotaccent" xMin="110" yMin="0" xMax="970" yMax="1848">
      <component glyphName="E" x="0" y="0" flags="0x204"/>
      <component glyphName="dotaccent" x="236" y="378" flags="0x4"/>
    </TTGlyph>
    <TTGlyph name="Edotaccent.smcp" xMin="109" yMin="0" xMax="843" yMax="1525">
      <component glyphName="E.smcp" x="0" y="0" flags="0x204"/>
      <component glyphName="dotaccent" x="191" y="55" flags="0x4"/>
    </TTGlyph>
    <TTGlyph name="Egrave" xMin="110" yMin="0" xMax="970" yMax="1825">
      <component glyphName="E" x="0" y="0" flags="0x204"/>
      <component glyphName="grave" x="110" y="348" flags="0x4"/>
    </TTGlyph>
    <TTGlyph name="Egrave.smcp" xMin="109" yMin="0" xMax="843" yMax="1502">
      <component glyphName="E.smcp" x="0" y="0" flags="0x204"/>
      <component glyphName="grave" x="65" y="25" flags="0x4"/>
    </TTGlyph>
    <TTGlyph name="Emacron" xMin="110" yMin="0" xMax="970" yMax="1777">
      <component glyphName="E" x="0" y="0" flags="0x204"/>
      <component glyphName="macron" x="42" y="320" flags="0x4"/>
    </TTGlyph>
    <TTGlyph name="Emacron.smcp" xMin="109" yMin="0" xMax="843" yMax="1456">
      <component glyphName="E.smcp" x="0" y="0" flags="0x204"/>
      <component glyphName="macron" x="-1" y="-1" flags="0x4"/>
    </TTGlyph>
    <TTGlyph name="Eng" xMin="108" yMin="-437" xMax="1127" yMax="1456">
      <contour>
        <pt x="1127" y="1456" on="1"/>
        <pt x="1127" y="-33" on="1"/>
        <pt x="1127" y="-227" on="0"/>
        <pt x="947" y="-437" on="0"/>
        <pt x="787" y="-437" on="1"/>
        <pt x="752" y="-437" on="0"/>
        <pt x="690" y="-428" on="0"/>
        <pt x="656" y="-419" on="1"/>
        <pt x="668" y="-197" on="1"/>
        <pt x="690" y="-203" on="0"/>
        <pt x="728" y="-209" on="0"/>
        <pt x="753" y="-209" on="1"/>
        <pt x="796" y="-209" on="0"/>
        <pt x="844" y="-118" on="0"/>
        <pt x="844" y="-33" on="1"/>
        <pt x="844" y="0" on="1"/>
        <pt x="399" y="917" on="1"/>
        <pt x="393" y="916" on="1"/>
        <pt x="393" y="0" on="1"/>
        <pt x="108" y="0" on="1"/>
        <pt x="108" y="1456" on="1"/>
        <pt x="393" y="1456" on="1"/>
        <pt x="838" y="538" on="1"/>
        <pt x="844" y="539" on="1"/>
        <pt x="844" y="1456" on="1"/>
      </contour>
    </TTGlyph>
    <TTGlyph name="Eogonek" xMin="110" yMin="-415" xMax="970" yMax="1456">
      <component glyphName="E" x="0" y="0" flags="0x204"/>
      <component glyphName="ogonek" x="233" y="0" flags="0x4"/>
    </TTGlyph>
    <TTGlyph name="Eogonek.smcp" xMin="109" yMin="-415" xMax="843" yMax="1165">
      <component glyphName="E.smcp" x="0" y="0" flags="0x204"/>
      <component glyphName="ogonek" x="201" y="0" flags="0x4"/>
    </TTGlyph>
    <TTGlyph name="Epsilon" xMin="110" yMin="0" xMax="970" yMax="1456">
      <component glyphName="E" x="0" y="0" flags="0x204"/>
    </TTGlyph>
    <TTGlyph name="Epsilontonos" xMin="-122" yMin="0" xMax="1070" yMax="1625">
      <component glyphName="E" x="100" y="0" flags="0x4"/>
      <component glyphName="tonos" x="-343" y="2" flags="0x4"/>
    </TTGlyph>
    <TTGlyph name="Eta" xMin="110" yMin="0" xMax="1131" yMax="1456">
      <component glyphName="H" x="0" y="0" flags="0x204"/>
    </TTGlyph>
    <TTGlyph name="Etatonos" xMin="-86" yMin="0" xMax="1231" yMax="1622">
      <component glyphName="H" x="100" y="0" flags="0x4"/>
      <component glyphName="tonos" x="-307" y="-1" flags="0x4"/>
    </TTGlyph>
    <TTGlyph name="Eth" xMin="31" yMin="0" xMax="1096" yMax="1456">
      <contour>
        <pt x="140" y="0" on="1"/>
        <pt x="140" y="655" on="1"/>
        <pt x="31" y="655" on="1"/>
        <pt x="31" y="830" on="1"/>
        <pt x="140" y="830" on="1"/>
        <pt x="140" y="1456" on="1"/>
        <pt x="580" y="1456" on="1"/>
        <pt x="804" y="1456" on="0"/>
        <pt x="1096" y="1117" on="0"/>
        <pt x="1096" y="850" on="1"/>
        <pt x="1096" y="605" on="1"/>
        <pt x="1096" y="338" on="0"/>
        <pt x="804" y="0" on="0"/>
        <pt x="580" y="0" on="1"/>
      </contour>
      <contour>
        <pt x="612" y="655" on="1"/>
        <pt x="425" y="655" on="1"/>
        <pt x="425" y="227" on="1"/>
        <pt x="564" y="227" on="1"/>
        <pt x="683" y="227" on="0"/>
        <pt x="812" y="434" on="0"/>
        <pt x="812" y="605" on="1"/>
        <pt x="812" y="852" on="1"/>
        <pt x="812" y="1022" on="0"/>
        <pt x="683" y="1228" on="0"/>
        <pt x="564" y="1228" on="1"/>
        <pt x="425" y="1228" on="1"/>
        <pt x="425" y="830" on="1"/>
        <pt x="612" y="830" on="1"/>
      </contour>
    </TTGlyph>
    <TTGlyph name="Eth.smcp" xMin="-26" yMin="0" xMax="958" yMax="1165">
      <component glyphName="Dcroat.smcp" x="0" y="0" flags="0x204"/>
    </TTGlyph>
    <TTGlyph name="Euro" xMin="65" yMin="-21" xMax="866" yMax="1477">
      <contour>
        <pt x="806" y="453" on="1"/>
        <pt x="470" y="453" on="1"/>
        <pt x="470" y="441" on="1"/>
        <pt x="470" y="344" on="0"/>
        <pt x="569" y="206" on="0"/>
        <pt x="659" y="206" on="1"/>
        <pt x="707" y="206" on="0"/>
        <pt x="802" y="222" on="0"/>
        <pt x="846" y="239" on="1"/>
        <pt x="866" y="10" on="1"/>
        <pt x="816" y="-5" on="0"/>
        <pt x="712" y="-21" on="0"/>
        <pt x="659" y="-21" on="1"/>
        <pt x="447" y="-21" on="0"/>
        <pt x="186" y="248" on="0"/>
        <pt x="186" y="441" on="1"/>
        <pt x="186" y="453" on="1"/>
        <pt x="65" y="453" on="1"/>
        <pt x="65" y="653" on="1"/>
        <pt x="186" y="653" on="1"/>
        <pt x="186" y="770" on="1"/>
        <pt x="65" y="770" on="1"/>
        <pt x="65" y="970" on="1"/>
        <pt x="186" y="970" on="1"/>
        <pt x="186" y="986" on="1"/>
        <pt x="186" y="1190" on="0"/>
        <pt x="446" y="1477" on="0"/>
        <pt x="658" y="1477" on="1"/>
        <pt x="709" y="1477" on="0"/>
        <pt x="808" y="1461" on="0"/>
        <pt x="866" y="1446" on="1"/>
        <pt x="846" y="1214" on="1"/>
        <pt x="801" y="1230" on="0"/>
        <pt x="706" y="1249" on="0"/>
        <pt x="658" y="1249" on="1"/>
        <pt x="569" y="1249" on="0"/>
        <pt x="470" y="1092" on="0"/>
        <pt x="470" y="988" on="1"/>
        <pt x="470" y="970" on="1"/>
        <pt x="806" y="970" on="1"/>
        <pt x="806" y="770" on="1"/>
        <pt x="470" y="770" on="1"/>
        <pt x="470" y="653" on="1"/>
        <pt x="806" y="653" on="1"/>
      </contour>
    </TTGlyph>
    <TTGlyph name="F" xMin="110" yMin="0" xMax="976" yMax="1456">
      <contour>
        <pt x="889" y="605" on="1"/>
        <pt x="395" y="605" on="1"/>
        <pt x="395" y="0" on="1"/>
        <pt x="110" y="0" on="1"/>
        <pt x="110" y="1456" on="1"/>
        <pt x="976" y="1456" on="1"/>
        <pt x="976" y="1228" on="1"/>
        <pt x="395" y="1228" on="1"/>
        <pt x="395" y="832" on="1"/>
        <pt x="889" y="832" on="1"/>
      </contour>
    </TTGlyph>
    <TTGlyph name="F.smcp" xMin="109" yMin="0" xMax="866" yMax="1165">
      <contour>
        <pt x="793" y="461" on="1"/>
        <pt x="393" y="461" on="1"/>
        <pt x="393" y="0" on="1"/>
        <pt x="109" y="0" on="1"/>
        <pt x="109" y="1165" on="1"/>
        <pt x="866" y="1165" on="1"/>
        <pt x="866" y="939" on="1"/>
        <pt x="393" y="939" on="1"/>
        <pt x="393" y="688" on="1"/>
        <pt x="793" y="688" on="1"/>
      </contour>
    </TTGlyph>
    <TTGlyph name="G" xMin="81" yMin="-21" xMax="1074" yMax="1477">
      <contour>
        <pt x="1074" y="216" on="1"/>
        <pt x="1015" y="122" on="0"/>
        <pt x="779" y="-21" on="0"/>
        <pt x="598" y="-21" on="1"/>
        <pt x="364" y="-21" on="0"/>
        <pt x="81" y="253" on="0"/>
        <pt x="81" y="506" on="1"/>
        <pt x="81" y="950" on="1"/>
        <pt x="81" y="1201" on="0"/>
        <pt x="354" y="1477" on="0"/>
        <pt x="579" y="1477" on="1"/>
        <pt x="821" y="1477" on="0"/>
        <pt x="1063" y="1240" on="0"/>
        <pt x="1068" y="1019" on="1"/>
        <pt x="1066" y="1013" on="1"/>
        <pt x="799" y="1013" on="1"/>
        <pt x="796" y="1136" on="0"/>
        <pt x="693" y="1249" on="0"/>
        <pt x="587" y="1249" on="1"/>
        <pt x="483" y="1249" on="0"/>
        <pt x="365" y="1102" on="0"/>
        <pt x="365" y="952" on="1"/>
        <pt x="365" y="506" on="1"/>
        <pt x="365" y="353" on="0"/>
        <pt x="484" y="206" on="0"/>
        <pt x="598" y="206" on="1"/>
        <pt x="683" y="206" on="0"/>
        <pt x="764" y="252" on="0"/>
        <pt x="790" y="297" on="1"/>
        <pt x="790" y="558" on="1"/>
        <pt x="598" y="558" on="1"/>
        <pt x="598" y="758" on="1"/>
        <pt x="1074" y="758" on="1"/>
      </contour>
    </TTGlyph>
    <TTGlyph name="G.smcp" xMin="81" yMin="-17" xMax="988" yMax="1181">
      <contour>
        <pt x="988" y="161" on="1"/>
        <pt x="924" y="85" on="0"/>
        <pt x="714" y="-17" on="0"/>
        <pt x="545" y="-17" on="1"/>
        <pt x="339" y="-17" on="0"/>
        <pt x="81" y="249" on="0"/>
        <pt x="81" y="461" on="1"/>
        <pt x="81" y="704" on="1"/>
        <pt x="81" y="914" on="0"/>
        <pt x="334" y="1181" on="0"/>
        <pt x="531" y="1181" on="1"/>
        <pt x="734" y="1181" on="0"/>
        <pt x="964" y="987" on="0"/>
        <pt x="959" y="806" on="1"/>
        <pt x="957" y="800" on="1"/>
        <pt x="681" y="799" on="1"/>
        <pt x="683" y="882" on="0"/>
        <pt x="614" y="956" on="0"/>
        <pt x="531" y="956" on="1"/>
        <pt x="454" y="956" on="0"/>
        <pt x="365" y="816" on="0"/>
        <pt x="365" y="705" on="1"/>
        <pt x="365" y="461" on="1"/>
        <pt x="365" y="347" on="0"/>
        <pt x="459" y="208" on="0"/>
        <pt x="545" y="208" on="1"/>
        <pt x="610" y="208" on="0"/>
        <pt x="678" y="231" on="0"/>
        <pt x="703" y="254" on="1"/>
        <pt x="703" y="430" on="1"/>
        <pt x="535" y="430" on="1"/>
        <pt x="535" y="621" on="1"/>
        <pt x="988" y="621" on="1"/>
      </contour>
    </TTGlyph>
    <TTGlyph name="Gamma" xMin="111" yMin="0" xMax="931" yMax="1456">
      <contour>
        <pt x="931" y="1228" on="1"/>
        <pt x="396" y="1228" on="1"/>
        <pt x="396" y="0" on="1"/>
        <pt x="111" y="0" on="1"/>
        <pt x="111" y="1456" on="1"/>
        <pt x="931" y="1456" on="1"/>
      </contour>
    </TTGlyph>
    <TTGlyph name="Gbreve" xMin="81" yMin="-21" xMax="1074" yMax="1918">
      <component glyphName="G" x="0" y="0" flags="0x204"/>
      <component glyphName="breve" x="163" y="462" flags="0x4"/>
    </TTGlyph>
    <TTGlyph name="Gbreve.smcp" xMin="81" yMin="-17" xMax="988" yMax="1590">
      <component glyphName="G.smcp" x="0" y="0" flags="0x204"/>
      <component glyphName="breve" x="118" y="134" flags="0x4"/>
    </TTGlyph>
    <TTGlyph name="Gcircumflex" xMin="81" yMin="-21" xMax="1074" yMax="1874">
      <component glyphName="G" x="0" y="0" flags="0x204"/>
      <component glyphName="circumflex" x="128" y="360" flags="0x4"/>
    </TTGlyph>
    <TTGlyph name="Gcircumflex.smcp" xMin="81" yMin="-17" xMax="988" yMax="1546">
      <component glyphName="G.smcp" x="0" y="0" flags="0x204"/>
      <component glyphName="circumflex" x="83" y="32" flags="0x4"/>
    </TTGlyph>
    <TTGlyph name="Gcommaaccent" xMin="81" yMin="-489" xMax="1074" yMax="1477">
      <component glyphName="G" x="0" y="0" flags="0x204"/>
      <component glyphName="commaaccent" x="401" y="-363" flags="0x4"/>
    </TTGlyph>
    <TTGlyph name="Gcommaaccent.smcp" xMin="81" yMin="-489" xMax="988" yMax="1181">
      <component glyphName="G.smcp" x="0" y="0" flags="0x204"/>
      <component glyphName="commaaccent" x="351" y="-363" flags="0x4"/>
    </TTGlyph>
    <TTGlyph name="H" xMin="110" yMin="0" xMax="1131" yMax="1456">
      <contour>
        <pt x="1131" y="0" on="1"/>
        <pt x="847" y="0" on="1"/>
        <pt x="847" y="603" on="1"/>
        <pt x="395" y="603" on="1"/>
        <pt x="395" y="0" on="1"/>
        <pt x="110" y="0" on="1"/>
        <pt x="110" y="1456" on="1"/>
        <pt x="395" y="1456" on="1"/>
        <pt x="395" y="830" on="1"/>
        <pt x="847" y="830" on="1"/>
        <pt x="847" y="1456" on="1"/>
        <pt x="1131" y="1456" on="1"/>
      </contour>
    </TTGlyph>
    <TTGlyph name="H.smcp" xMin="109" yMin="0" xMax="1029" yMax="1165">
      <contour>
        <pt x="1029" y="0" on="1"/>
        <pt x="743" y="0" on="1"/>
        <pt x="743" y="458" on="1"/>
        <pt x="393" y="458" on="1"/>
        <pt x="393" y="0" on="1"/>
        <pt x="109" y="0" on="1"/>
        <pt x="109" y="1165" on="1"/>
        <pt x="393" y="1165" on="1"/>
        <pt x="393" y="684" on="1"/>
        <pt x="743" y="684" on="1"/>
        <pt x="743" y="1165" on="1"/>
        <pt x="1029" y="1165" on="1"/>
      </contour>
    </TTGlyph>
    <TTGlyph name="Hbar" xMin="20" yMin="0" xMax="1235" yMax="1456">
      <contour>
        <pt x="1135" y="1196" on="1"/>
        <pt x="1235" y="1196" on="1"/>
        <pt x="1235" y="1029" on="1"/>
        <pt x="1135" y="1029" on="1"/>
        <pt x="1135" y="0" on="1"/>
        <pt x="851" y="0" on="1"/>
        <pt x="851" y="603" on="1"/>
        <pt x="399" y="603" on="1"/>
        <pt x="399" y="0" on="1"/>
        <pt x="114" y="0" on="1"/>
        <pt x="114" y="1029" on="1"/>
        <pt x="20" y="1029" on="1"/>
        <pt x="20" y="1196" on="1"/>
        <pt x="114" y="1196" on="1"/>
        <pt x="114" y="1456" on="1"/>
        <pt x="399" y="1456" on="1"/>
        <pt x="399" y="1196" on="1"/>
        <pt x="851" y="1196" on="1"/>
        <pt x="851" y="1456" on="1"/>
        <pt x="1135" y="1456" on="1"/>
      </contour>
      <contour>
        <pt x="399" y="830" on="1"/>
        <pt x="851" y="830" on="1"/>
        <pt x="851" y="1029" on="1"/>
        <pt x="399" y="1029" on="1"/>
      </contour>
    </TTGlyph>
    <TTGlyph name="Hcircumflex" xMin="110" yMin="0" xMax="1131" yMax="1853">
      <component glyphName="H" x="0" y="0" flags="0x204"/>
      <component glyphName="circumflex" x="172" y="339" flags="0x4"/>
    </TTGlyph>
    <TTGlyph name="Hcircumflex.smcp" xMin="109" yMin="0" xMax="1029" yMax="1530">
      <component glyphName="H.smcp" x="0" y="0" flags="0x204"/>
      <component glyphName="circumflex" x="110" y="16" flags="0x4"/>
    </TTGlyph>
    <TTGlyph name="I" xMin="125" yMin="0" xMax="408" yMax="1456">
      <contour>
        <pt x="408" y="0" on="1"/>
        <pt x="125" y="0" on="1"/>
        <pt x="125" y="1456" on="1"/>
        <pt x="408" y="1456" on="1"/>
      </contour>
    </TTGlyph>
    <TTGlyph name="I.smcp" xMin="109" yMin="0" xMax="393" yMax="1165">
      <contour>
        <pt x="393" y="0" on="1"/>
        <pt x="109" y="0" on="1"/>
        <pt x="109" y="1165" on="1"/>
        <pt x="393" y="1165" on="1"/>
      </contour>
    </TTGlyph>
    <TTGlyph name="IJ" xMin="125" yMin="-21" xMax="1440" yMax="1456">
      <component glyphName="I" x="0" y="0" flags="0x4"/>
      <component glyphName="J" x="534" y="0" flags="0x4"/>
    </TTGlyph>
    <TTGlyph name="Iacute" xMin="123" yMin="0" xMax="601" yMax="1826">
      <component glyphName="I" x="0" y="0" flags="0x204"/>
      <component glyphName="acute" x="23" y="348" flags="0x4"/>
    </TTGlyph>
    <TTGlyph name="Iacute.smcp" xMin="106" yMin="0" xMax="584" yMax="1503">
      <component glyphName="I.smcp" x="0" y="0" flags="0x204"/>
      <component glyphName="acute" x="6" y="25" flags="0x4"/>
    </TTGlyph>
    <TTGlyph name="Ibreve" xMin="-47" yMin="0" xMax="586" yMax="1897">
      <component glyphName="I" x="0" y="0" flags="0x204"/>
      <component glyphName="breve" x="-143" y="441" flags="0x4"/>
    </TTGlyph>
    <TTGlyph name="Ibreve.smcp" xMin="-64" yMin="0" xMax="569" yMax="1574">
      <component glyphName="I.smcp" x="0" y="0" flags="0x204"/>
      <component glyphName="breve" x="-160" y="118" flags="0x4"/>
    </TTGlyph>
    <TTGlyph name="Icircumflex" xMin="-60" yMin="0" xMax="605" yMax="1853">
      <component glyphName="I" x="0" y="0" flags="0x204"/>
      <component glyphName="circumflex" x="-178" y="339" flags="0x4"/>
    </TTGlyph>
    <TTGlyph name="Icircumflex.smcp" xMin="-77" yMin="0" xMax="588" yMax="1530">
      <component glyphName="I.smcp" x="0" y="0" flags="0x204"/>
      <component glyphName="circumflex" x="-195" y="16" flags="0x4"/>
    </TTGlyph>
    <TTGlyph name="Idieresis" xMin="-80" yMin="0" xMax="619" yMax="1804">
      <component glyphName="I" x="0" y="0" flags="0x204"/>
      <component glyphName="dieresis" x="-223" y="348" flags="0x4"/>
    </TTGlyph>
    <TTGlyph name="Idieresis.smcp" xMin="-97" yMin="0" xMax="602" yMax="1481">
      <component glyphName="I.smcp" x="0" y="0" flags="0x204"/>
      <component glyphName="dieresis" x="-240" y="25" flags="0x4"/>
    </TTGlyph>
    <TTGlyph name="Idotaccent" xMin="120" yMin="0" xMax="411" yMax="1848">
      <component glyphName="I" x="0" y="0" flags="0x204"/>
      <component glyphName="dotaccent" x="-8" y="378" flags="0x4"/>
    </TTGlyph>
    <TTGlyph name="Idotaccent.smcp" xMin="103" yMin="0" xMax="394" yMax="1525">
      <component glyphName="I.smcp" x="0" y="0" flags="0x204"/>
      <component glyphName="dotaccent" x="-25" y="55" flags="0x4"/>
    </TTGlyph>
    <TTGlyph name="Igrave" xMin="-61" yMin="0" xMax="415" yMax="1825">
      <component glyphName="I" x="0" y="0" flags="0x204"/>
      <component glyphName="grave" x="-134" y="348" flags="0x4"/>
    </TTGlyph>
    <TTGlyph name="Igrave.smcp" xMin="-78" yMin="0" xMax="398" yMax="1502">
      <component glyphName="I.smcp" x="0" y="0" flags="0x204"/>
      <component glyphName="grave" x="-151" y="25" flags="0x4"/>
    </TTGlyph>
    <TTGlyph name="Imacron" xMin="-56" yMin="0" xMax="598" yMax="1777">
      <component glyphName="I" x="0" y="0" flags="0x204"/>
      <component glyphName="macron" x="-202" y="320" flags="0x4"/>
    </TTGlyph>
    <TTGlyph name="Imacron.smcp" xMin="-73" yMin="0" xMax="581" yMax="1456">
      <component glyphName="I.smcp" x="0" y="0" flags="0x204"/>
      <component glyphName="macron" x="-219" y="-1" flags="0x4"/>
    </TTGlyph>
    <TTGlyph name="Iogonek" xMin="37" yMin="-415" xMax="425" yMax="1456">
      <component glyphName="I" x="0" y="0" flags="0x204"/>
      <component glyphName="ogonek" x="-40" y="0" flags="0x4"/>
    </TTGlyph>
    <TTGlyph name="Iogonek.smcp" xMin="22" yMin="-415" xMax="410" yMax="1165">
      <component glyphName="I.smcp" x="0" y="0" flags="0x204"/>
      <component glyphName="ogonek" x="-55" y="0" flags="0x4"/>
    </TTGlyph>
    <TTGlyph name="Iota" xMin="125" yMin="0" xMax="408" yMax="1456">
      <component glyphName="I" x="0" y="0" flags="0x204"/>
    </TTGlyph>
    <TTGlyph name="Iotadieresis" xMin="-80" yMin="0" xMax="619" yMax="1804">
      <component glyphName="I" x="0" y="0" flags="0x204"/>
      <component glyphName="dieresis" x="-223" y="348" flags="0x4"/>
    </TTGlyph>
    <TTGlyph name="Iotatonos" xMin="-79" yMin="0" xMax="508" yMax="1624">
      <component glyphName="I" x="100" y="0" flags="0x4"/>
      <component glyphName="tonos" x="-300" y="1" flags="0x4"/>
    </TTGlyph>
    <TTGlyph name="Itilde" xMin="-56" yMin="0" xMax="597" yMax="1899">
      <component glyphName="I" x="0" y="0" flags="0x204"/>
      <component glyphName="tilde" x="-166" y="373" flags="0x4"/>
    </TTGlyph>
    <TTGlyph name="Itilde.smcp" xMin="-73" yMin="0" xMax="580" yMax="1576">
      <component glyphName="I.smcp" x="0" y="0" flags="0x204"/>
      <component glyphName="tilde" x="-183" y="50" flags="0x4"/>
    </TTGlyph>
    <TTGlyph name="J" xMin="53" yMin="-21" xMax="906" yMax="1456">
      <contour>
        <pt x="623" y="1456" on="1"/>
        <pt x="906" y="1456" on="1"/>
        <pt x="906" y="444" on="1"/>
        <pt x="906" y="230" on="0"/>
        <pt x="665" y="-21" on="0"/>
        <pt x="482" y="-21" on="1"/>
        <pt x="284" y="-21" on="0"/>
        <pt x="53" y="203" on="0"/>
        <pt x="57" y="421" on="1"/>
        <pt x="60" y="427" on="1"/>
        <pt x="337" y="427" on="1"/>
        <pt x="337" y="312" on="0"/>
        <pt x="418" y="206" on="0"/>
        <pt x="482" y="206" on="1"/>
        <pt x="540" y="206" on="0"/>
        <pt x="623" y="332" on="0"/>
        <pt x="623" y="444" on="1"/>
      </contour>
    </TTGlyph>
    <TTGlyph name="J.smcp" xMin="20" yMin="-20" xMax="812" yMax="1165">
      <contour>
        <pt x="529" y="1165" on="1"/>
        <pt x="812" y="1165" on="1"/>
        <pt x="812" y="386" on="1"/>
        <pt x="812" y="201" on="0"/>
        <pt x="595" y="-20" on="0"/>
        <pt x="423" y="-20" on="1"/>
        <pt x="238" y="-20" on="0"/>
        <pt x="20" y="179" on="0"/>
        <pt x="25" y="364" on="1"/>
        <pt x="27" y="370" on="1"/>
        <pt x="304" y="370" on="1"/>
        <pt x="304" y="289" on="0"/>
        <pt x="374" y="206" on="0"/>
        <pt x="423" y="206" on="1"/>
        <pt x="469" y="206" on="0"/>
        <pt x="529" y="303" on="0"/>
        <pt x="529" y="386" on="1"/>
      </contour>
    </TTGlyph>
    <TTGlyph name="Jcircumflex" xMin="53" yMin="-21" xMax="1083" yMax="1848">
      <component glyphName="J" x="0" y="0" flags="0x204"/>
      <component glyphName="circumflex" x="300" y="334" flags="0x4"/>
    </TTGlyph>
    <TTGlyph name="Jcircumflex.smcp" xMin="20" yMin="-20" xMax="1000" yMax="1530">
      <component glyphName="J.smcp" x="0" y="0" flags="0x204"/>
      <component glyphName="circumflex" x="217" y="16" flags="0x4"/>
    </TTGlyph>
    <TTGlyph name="K" xMin="110" yMin="0" xMax="1153" yMax="1456">
      <contour>
        <pt x="519" y="605" on="1"/>
        <pt x="395" y="605" on="1"/>
        <pt x="395" y="0" on="1"/>
        <pt x="110" y="0" on="1"/>
        <pt x="110" y="1456" on="1"/>
        <pt x="395" y="1456" on="1"/>
        <pt x="395" y="864" on="1"/>
        <pt x="487" y="864" on="1"/>
        <pt x="771" y="1456" on="1"/>
        <pt x="1120" y="1456" on="1"/>
        <pt x="723" y="791" on="1"/>
        <pt x="1153" y="0" on="1"/>
        <pt x="807" y="0" on="1"/>
      </contour>
    </TTGlyph>
    <TTGlyph name="K.smcp" xMin="109" yMin="0" xMax="992" yMax="1165">
      <contour>
        <pt x="474" y="444" on="1"/>
        <pt x="393" y="444" on="1"/>
        <pt x="393" y="0" on="1"/>
        <pt x="109" y="0" on="1"/>
        <pt x="109" y="1165" on="1"/>
        <pt x="393" y="1165" on="1"/>
        <pt x="393" y="712" on="1"/>
        <pt x="458" y="712" on="1"/>
        <pt x="623" y="1165" on="1"/>
        <pt x="984" y="1165" on="1"/>
        <pt x="709" y="631" on="1"/>
        <pt x="992" y="0" on="1"/>
        <pt x="628" y="0" on="1"/>
      </contour>
    </TTGlyph>
    <TTGlyph name="Kappa" xMin="110" yMin="0" xMax="1153" yMax="1456">
      <component glyphName="K" x="0" y="0" flags="0x204"/>
    </TTGlyph>
    <TTGlyph name="Kcommaaccent" xMin="110" yMin="-489" xMax="1153" yMax="1456">
      <component glyphName="K" x="0" y="0" flags="0x204"/>
      <component glyphName="commaaccent" x="367" y="-363" flags="0x4"/>
    </TTGlyph>
    <TTGlyph name="Kcommaaccent.smcp" xMin="109" yMin="-489" xMax="992" yMax="1165">
      <component glyphName="K.smcp" x="0" y="0" flags="0x204"/>
      <component glyphName="commaaccent" x="293" y="-363" flags="0x4"/>
    </TTGlyph>
    <TTGlyph name="L" xMin="110" yMin="0" xMax="927" yMax="1456">
      <contour>
        <pt x="395" y="227" on="1"/>
        <pt x="927" y="227" on="1"/>
        <pt x="927" y="0" on="1"/>
        <pt x="110" y="0" on="1"/>
        <pt x="110" y="1456" on="1"/>
        <pt x="395" y="1456" on="1"/>
      </contour>
    </TTGlyph>
    <TTGlyph name="L.smcp" xMin="109" yMin="0" xMax="782" yMax="1165">
      <contour>
        <pt x="393" y="225" on="1"/>
        <pt x="782" y="225" on="1"/>
        <pt x="782" y="0" on="1"/>
        <pt x="109" y="0" on="1"/>
        <pt x="109" y="1165" on="1"/>
        <pt x="393" y="1165" on="1"/>
      </contour>
    </TTGlyph>
    <TTGlyph name="Lacute" xMin="110" yMin="0" xMax="927" yMax="1810">
      <component glyphName="L" x="0" y="0" flags="0x204"/>
      <component glyphName="acute" x="10" y="332" flags="0x4"/>
    </TTGlyph>
    <TTGlyph name="Lacute.smcp" xMin="97" yMin="0" xMax="782" yMax="1496">
      <component glyphName="L.smcp" x="0" y="0" flags="0x204"/>
      <component glyphName="acute" x="-3" y="18" flags="0x4"/>
    </TTGlyph>
    <TTGlyph name="Lambda" xMin="14" yMin="0" xMax="1124" yMax="1456">
      <contour>
        <pt x="311" y="0" on="1"/>
        <pt x="14" y="0" on="1"/>
        <pt x="420" y="1456" on="1"/>
        <pt x="716" y="1456" on="1"/>
        <pt x="1124" y="0" on="1"/>
        <pt x="826" y="0" on="1"/>
        <pt x="573" y="1122" on="1"/>
        <pt x="572" y="1128" on="1"/>
        <pt x="566" y="1128" on="1"/>
        <pt x="565" y="1123" on="1"/>
      </contour>
    </TTGlyph>
    <TTGlyph name="Lcaron" xMin="110" yMin="0" xMax="927" yMax="1459">
      <component glyphName="L" x="0" y="0" flags="0x204"/>
      <component glyphName="commaaccent" x="496" y="1193" flags="0x4"/>
    </TTGlyph>
    <TTGlyph name="Lcaron.smcp" xMin="109" yMin="0" xMax="782" yMax="1167">
      <component glyphName="L.smcp" x="0" y="0" flags="0x204"/>
      <component glyphName="commaaccent" x="446" y="901" flags="0x4"/>
    </TTGlyph>
    <TTGlyph name="Lcommaaccent" xMin="110" yMin="-489" xMax="927" yMax="1456">
      <component glyphName="L" x="0" y="0" flags="0x204"/>
      <component glyphName="commaaccent" x="326" y="-363" flags="0x4"/>
    </TTGlyph>
    <TTGlyph name="Lcommaaccent.smcp" xMin="109" yMin="-489" xMax="782" yMax="1165">
      <component glyphName="L.smcp" x="0" y="0" flags="0x204"/>
      <component glyphName="commaaccent" x="236" y="-363" flags="0x4"/>
    </TTGlyph>
    <TTGlyph name="Ldot" xMin="110" yMin="0" xMax="927" yMax="1456">
      <component glyphName="L" x="0" y="0" flags="0x204"/>
      <component glyphName="dotaccent" x="361" y="-549" flags="0x4"/>
    </TTGlyph>
    <TTGlyph name="Ldot.smcp" xMin="109" yMin="0" xMax="782" yMax="1165">
      <component glyphName="L.smcp" x="0" y="0" flags="0x204"/>
      <component glyphName="dotaccent" x="319" y="-716" flags="0x4"/>
    </TTGlyph>
    <TTGlyph name="Lslash" xMin="14" yMin="0" xMax="918" yMax="1456">
      <contour>
        <pt x="386" y="892" on="1"/>
        <pt x="580" y="956" on="1"/>
        <pt x="580" y="765" on="1"/>
        <pt x="386" y="701" on="1"/>
        <pt x="386" y="227" on="1"/>
        <pt x="918" y="227" on="1"/>
        <pt x="918" y="0" on="1"/>
        <pt x="101" y="0" on="1"/>
        <pt x="101" y="606" on="1"/>
        <pt x="14" y="578" on="1"/>
        <pt x="14" y="769" on="1"/>
        <pt x="101" y="797" on="1"/>
        <pt x="101" y="1456" on="1"/>
        <pt x="386" y="1456" on="1"/>
      </contour>
    </TTGlyph>
    <TTGlyph name="M" xMin="105" yMin="0" xMax="1376" yMax="1456">
      <contour>
        <pt x="474" y="1456" on="1"/>
        <pt x="735" y="387" on="1"/>
        <pt x="741" y="387" on="1"/>
        <pt x="1005" y="1456" on="1"/>
        <pt x="1376" y="1456" on="1"/>
        <pt x="1376" y="0" on="1"/>
        <pt x="1093" y="0" on="1"/>
        <pt x="1093" y="423" on="1"/>
        <pt x="1117" y="989" on="1"/>
        <pt x="1111" y="990" on="1"/>
        <pt x="833" y="0" on="1"/>
        <pt x="644" y="0" on="1"/>
        <pt x="369" y="982" on="1"/>
        <pt x="363" y="981" on="1"/>
        <pt x="388" y="423" on="1"/>
        <pt x="388" y="0" on="1"/>
        <pt x="105" y="0" on="1"/>
        <pt x="105" y="1456" on="1"/>
      </contour>
    </TTGlyph>
    <TTGlyph name="M.smcp" xMin="109" yMin="0" xMax="1224" yMax="1165">
      <contour>
        <pt x="659" y="342" on="1"/>
        <pt x="665" y="342" on="1"/>
        <pt x="868" y="1165" on="1"/>
        <pt x="1224" y="1165" on="1"/>
        <pt x="1224" y="0" on="1"/>
        <pt x="940" y="0" on="1"/>
        <pt x="940" y="611" on="1"/>
        <pt x="934" y="611" on="1"/>
        <pt x="757" y="0" on="1"/>
        <pt x="568" y="0" on="1"/>
        <pt x="399" y="586" on="1"/>
        <pt x="393" y="586" on="1"/>
        <pt x="393" y="0" on="1"/>
        <pt x="109" y="0" on="1"/>
        <pt x="109" y="1165" on="1"/>
        <pt x="459" y="1165" on="1"/>
      </contour>
    </TTGlyph>
    <TTGlyph name="Mu" xMin="105" yMin="0" xMax="1376" yMax="1456">
      <component glyphName="M" x="0" y="0" flags="0x204"/>
    </TTGlyph>
    <TTGlyph name="N" xMin="110" yMin="0" xMax="1129" yMax="1456">
      <contour>
        <pt x="1129" y="0" on="1"/>
        <pt x="846" y="0" on="1"/>
        <pt x="401" y="931" on="1"/>
        <pt x="395" y="929" on="1"/>
        <pt x="395" y="0" on="1"/>
        <pt x="110" y="0" on="1"/>
        <pt x="110" y="1456" on="1"/>
        <pt x="395" y="1456" on="1"/>
        <pt x="840" y="526" on="1"/>
        <pt x="846" y="528" on="1"/>
        <pt x="846" y="1456" on="1"/>
        <pt x="1129" y="1456" on="1"/>
      </contour>
    </TTGlyph>
    <TTGlyph name="N.smcp" xMin="109" yMin="0" xMax="1013" yMax="1165">
      <contour>
        <pt x="1013" y="0" on="1"/>
        <pt x="728" y="0" on="1"/>
        <pt x="399" y="646" on="1"/>
        <pt x="393" y="644" on="1"/>
        <pt x="393" y="0" on="1"/>
        <pt x="109" y="0" on="1"/>
        <pt x="109" y="1165" on="1"/>
        <pt x="393" y="1165" on="1"/>
        <pt x="722" y="519" on="1"/>
        <pt x="728" y="521" on="1"/>
        <pt x="728" y="1165" on="1"/>
        <pt x="1013" y="1165" on="1"/>
      </contour>
    </TTGlyph>
    <TTGlyph name="Nacute" xMin="110" yMin="0" xMax="1129" yMax="1826">
      <component glyphName="N" x="0" y="0" flags="0x204"/>
      <component glyphName="acute" x="375" y="348" flags="0x4"/>
    </TTGlyph>
    <TTGlyph name="Nacute.smcp" xMin="109" yMin="0" xMax="1013" yMax="1503">
      <component glyphName="N.smcp" x="0" y="0" flags="0x204"/>
      <component glyphName="acute" x="304" y="25" flags="0x4"/>
    </TTGlyph>
    <TTGlyph name="Ncaron" xMin="110" yMin="0" xMax="1129" yMax="1872">
      <component glyphName="N" x="0" y="0" flags="0x204"/>
      <component glyphName="caron" x="193" y="350" flags="0x4"/>
    </TTGlyph>
    <TTGlyph name="Ncaron.smcp" xMin="109" yMin="0" xMax="1013" yMax="1549">
      <component glyphName="N.smcp" x="0" y="0" flags="0x204"/>
      <component glyphName="caron" x="122" y="27" flags="0x4"/>
    </TTGlyph>
    <TTGlyph name="Ncommaaccent" xMin="110" yMin="-489" xMax="1129" yMax="1456">
      <component glyphName="N" x="0" y="0" flags="0x204"/>
      <component glyphName="commaaccent" x="429" y="-363" flags="0x4"/>
    </TTGlyph>
    <TTGlyph name="Ncommaaccent.smcp" xMin="109" yMin="-489" xMax="1013" yMax="1165">
      <component glyphName="N.smcp" x="0" y="0" flags="0x204"/>
      <component glyphName="commaaccent" x="358" y="-363" flags="0x4"/>
    </TTGlyph>
    <TTGlyph name="Ntilde" xMin="110" yMin="0" xMax="1129" yMax="1899">
      <component glyphName="N" x="0" y="0" flags="0x204"/>
      <component glyphName="tilde" x="184" y="373" flags="0x4"/>
    </TTGlyph>
    <TTGlyph name="Ntilde.smcp" xMin="109" yMin="0" xMax="1013" yMax="1576">
      <component glyphName="N.smcp" x="0" y="0" flags="0x204"/>
      <component glyphName="tilde" x="113" y="50" flags="0x4"/>
    </TTGlyph>
    <TTGlyph name="Nu" xMin="110" yMin="0" xMax="1129" yMax="1456">
      <component glyphName="N" x="0" y="0" flags="0x204"/>
    </TTGlyph>
    <TTGlyph name="O" xMin="75" yMin="-21" xMax="1091" yMax="1477">
      <contour>
        <pt x="1091" y="523" on="1"/>
        <pt x="1091" y="267" on="0"/>
        <pt x="813" y="-21" on="0"/>
        <pt x="582" y="-21" on="1"/>
        <pt x="351" y="-21" on="0"/>
        <pt x="75" y="267" on="0"/>
        <pt x="75" y="523" on="1"/>
        <pt x="75" y="931" on="1"/>
        <pt x="75" y="1186" on="0"/>
        <pt x="351" y="1477" on="0"/>
        <pt x="581" y="1477" on="1"/>
        <pt x="811" y="1477" on="0"/>
        <pt x="1091" y="1186" on="0"/>
        <pt x="1091" y="931" on="1"/>
      </contour>
      <contour>
        <pt x="808" y="933" on="1"/>
        <pt x="808" y="1089" on="0"/>
        <pt x="692" y="1248" on="0"/>
        <pt x="581" y="1248" on="1"/>
        <pt x="469" y="1248" on="0"/>
        <pt x="357" y="1090" on="0"/>
        <pt x="357" y="933" on="1"/>
        <pt x="357" y="523" on="1"/>
        <pt x="357" y="365" on="0"/>
        <pt x="471" y="207" on="0"/>
        <pt x="582" y="207" on="1"/>
        <pt x="692" y="207" on="0"/>
        <pt x="808" y="365" on="0"/>
        <pt x="808" y="523" on="1"/>
      </contour>
    </TTGlyph>
    <TTGlyph name="O.smcp" xMin="77" yMin="-20" xMax="974" yMax="1181">
      <contour>
        <pt x="974" y="461" on="1"/>
        <pt x="974" y="247" on="0"/>
        <pt x="725" y="-20" on="0"/>
        <pt x="527" y="-20" on="1"/>
        <pt x="329" y="-20" on="0"/>
        <pt x="77" y="247" on="0"/>
        <pt x="77" y="461" on="1"/>
        <pt x="77" y="704" on="1"/>
        <pt x="77" y="916" on="0"/>
        <pt x="327" y="1181" on="0"/>
        <pt x="526" y="1181" on="1"/>
        <pt x="724" y="1181" on="0"/>
        <pt x="974" y="916" on="0"/>
        <pt x="974" y="704" on="1"/>
      </contour>
      <contour>
        <pt x="691" y="705" on="1"/>
        <pt x="691" y="813" on="0"/>
        <pt x="602" y="956" on="0"/>
        <pt x="526" y="956" on="1"/>
        <pt x="446" y="956" on="0"/>
        <pt x="361" y="814" on="0"/>
        <pt x="361" y="705" on="1"/>
        <pt x="361" y="461" on="1"/>
        <pt x="361" y="350" on="0"/>
        <pt x="447" y="206" on="0"/>
        <pt x="527" y="206" on="1"/>
        <pt x="603" y="206" on="0"/>
        <pt x="691" y="351" on="0"/>
        <pt x="691" y="461" on="1"/>
      </contour>
    </TTGlyph>
    <TTGlyph name="OE" xMin="87" yMin="-21" xMax="1639" yMax="1477">
      <contour>
        <pt x="1639" y="0" on="1"/>
        <pt x="856" y="0" on="1"/>
        <pt x="780" y="-10" on="0"/>
        <pt x="671" y="-21" on="0"/>
        <pt x="616" y="-21" on="1"/>
        <pt x="381" y="-21" on="0"/>
        <pt x="87" y="311" on="0"/>
        <pt x="87" y="576" on="1"/>
        <pt x="87" y="880" on="1"/>
        <pt x="87" y="1145" on="0"/>
        <pt x="379" y="1477" on="0"/>
        <pt x="615" y="1477" on="1"/>
        <pt x="672" y="1477" on="0"/>
        <pt x="791" y="1465" on="0"/>
        <pt x="856" y="1456" on="1"/>
        <pt x="1637" y="1456" on="1"/>
        <pt x="1637" y="1228" on="1"/>
        <pt x="1064" y="1228" on="1"/>
        <pt x="1064" y="866" on="1"/>
        <pt x="1553" y="866" on="1"/>
        <pt x="1553" y="639" on="1"/>
        <pt x="1064" y="639" on="1"/>
        <pt x="1064" y="227" on="1"/>
        <pt x="1639" y="227" on="1"/>
      </contour>
      <contour>
        <pt x="616" y="206" on="1"/>
        <pt x="657" y="206" on="0"/>
        <pt x="739" y="212" on="0"/>
        <pt x="779" y="219" on="1"/>
        <pt x="779" y="1237" on="1"/>
        <pt x="738" y="1243" on="0"/>
        <pt x="656" y="1250" on="0"/>
        <pt x="615" y="1250" on="1"/>
        <pt x="499" y="1250" on="0"/>
        <pt x="371" y="1060" on="0"/>
        <pt x="371" y="882" on="1"/>
        <pt x="371" y="576" on="1"/>
        <pt x="371" y="397" on="0"/>
        <pt x="501" y="206" on="0"/>
      </contour>
    </TTGlyph>
    <TTGlyph name="Oacute" xMin="75" yMin="-21" xMax="1091" yMax="1847">
      <component glyphName="O" x="0" y="0" flags="0x204"/>
      <component glyphName="acute" x="339" y="369" flags="0x4"/>
    </TTGlyph>
    <TTGlyph name="Oacute.smcp" xMin="77" yMin="-20" xMax="974" yMax="1522">
      <component glyphName="O.smcp" x="0" y="0" flags="0x204"/>
      <component glyphName="acute" x="271" y="44" flags="0x4"/>
    </TTGlyph>
    <TTGlyph name="Obreve" xMin="75" yMin="-21" xMax="1091" yMax="1918">
      <component glyphName="O" x="0" y="0" flags="0x204"/>
      <component glyphName="breve" x="171" y="462" flags="0x4"/>
    </TTGlyph>
    <TTGlyph name="Obreve.smcp" xMin="77" yMin="-20" xMax="974" yMax="1593">
      <component glyphName="O.smcp" x="0" y="0" flags="0x204"/>
      <component glyphName="breve" x="103" y="137" flags="0x4"/>
    </TTGlyph>
    <TTGlyph name="Ocircumflex" xMin="75" yMin="-21" xMax="1091" yMax="1874">
      <component glyphName="O" x="0" y="0" flags="0x204"/>
      <component glyphName="circumflex" x="136" y="360" flags="0x4"/>
    </TTGlyph>
    <TTGlyph name="Ocircumflex.smcp" xMin="77" yMin="-20" xMax="974" yMax="1549">
      <component glyphName="O.smcp" x="0" y="0" flags="0x204"/>
      <component glyphName="circumflex" x="68" y="35" flags="0x4"/>
    </TTGlyph>
    <TTGlyph name="Odieresis" xMin="75" yMin="-21" xMax="1091" yMax="1825">
      <component glyphName="O" x="0" y="0" flags="0x204"/>
      <component glyphName="dieresis" x="91" y="369" flags="0x4"/>
    </TTGlyph>
    <TTGlyph name="Odieresis.smcp" xMin="77" yMin="-20" xMax="974" yMax="1500">
      <component glyphName="O.smcp" x="0" y="0" flags="0x204"/>
      <component glyphName="dieresis" x="23" y="44" flags="0x4"/>
    </TTGlyph>
    <TTGlyph name="Ograve" xMin="75" yMin="-21" xMax="1091" yMax="1846">
      <component glyphName="O" x="0" y="0" flags="0x204"/>
      <component glyphName="grave" x="180" y="369" flags="0x4"/>
    </TTGlyph>
    <TTGlyph name="Ograve.smcp" xMin="77" yMin="-20" xMax="974" yMax="1521">
      <component glyphName="O.smcp" x="0" y="0" flags="0x204"/>
      <component glyphName="grave" x="112" y="44" flags="0x4"/>
    </TTGlyph>
    <TTGlyph name="Ohorn" xMin="77" yMin="-21" xMax="1337" yMax="1607">
      <contour>
        <pt x="1093" y="523" on="1"/>
        <pt x="1093" y="267" on="0"/>
        <pt x="815" y="-21" on="0"/>
        <pt x="584" y="-21" on="1"/>
        <pt x="353" y="-21" on="0"/>
        <pt x="77" y="267" on="0"/>
        <pt x="77" y="523" on="1"/>
        <pt x="77" y="931" on="1"/>
        <pt x="77" y="1186" on="0"/>
        <pt x="353" y="1477" on="0"/>
        <pt x="583" y="1477" on="1"/>
        <pt x="710" y="1477" on="0"/>
        <pt x="915" y="1384" on="0"/>
        <pt x="983" y="1297" on="1"/>
        <pt x="1058" y="1330" on="0"/>
        <pt x="1136" y="1489" on="0"/>
        <pt x="1136" y="1607" on="1"/>
        <pt x="1337" y="1607" on="1"/>
        <pt x="1337" y="1418" on="0"/>
        <pt x="1199" y="1165" on="0"/>
        <pt x="1071" y="1112" on="1"/>
        <pt x="1081" y="1069" on="0"/>
        <pt x="1093" y="979" on="0"/>
        <pt x="1093" y="931" on="1"/>
      </contour>
      <contour>
        <pt x="810" y="933" on="1"/>
        <pt x="810" y="1089" on="0"/>
        <pt x="694" y="1248" on="0"/>
        <pt x="583" y="1248" on="1"/>
        <pt x="471" y="1248" on="0"/>
        <pt x="359" y="1090" on="0"/>
        <pt x="359" y="933" on="1"/>
        <pt x="359" y="523" on="1"/>
        <pt x="359" y="365" on="0"/>
        <pt x="473" y="207" on="0"/>
        <pt x="584" y="207" on="1"/>
        <pt x="694" y="207" on="0"/>
        <pt x="810" y="365" on="0"/>
        <pt x="810" y="523" on="1"/>
      </contour>
    </TTGlyph>
    <TTGlyph name="Ohungarumlaut" xMin="75" yMin="-21" xMax="1091" yMax="1888">
      <component glyphName="O" x="0" y="0" flags="0x204"/>
      <component glyphName="hungarumlaut" x="166" y="370" flags="0x4"/>
    </TTGlyph>
    <TTGlyph name="Ohungarumlaut.smcp" xMin="77" yMin="-20" xMax="1009" yMax="1563">
      <component glyphName="O.smcp" x="0" y="0" flags="0x204"/>
      <component glyphName="hungarumlaut" x="98" y="45" flags="0x4"/>
    </TTGlyph>
    <TTGlyph name="Omacron" xMin="75" yMin="-21" xMax="1091" yMax="1798">
      <component glyphName="O" x="0" y="0" flags="0x204"/>
      <component glyphName="macron" x="112" y="341" flags="0x4"/>
    </TTGlyph>
    <TTGlyph name="Omacron.smcp" xMin="77" yMin="-20" xMax="974" yMax="1473">
      <component glyphName="O.smcp" x="0" y="0" flags="0x204"/>
      <component glyphName="macron" x="44" y="16" flags="0x4"/>
    </TTGlyph>
    <TTGlyph name="Omega" xMin="92" yMin="0" xMax="1081" yMax="1477">
      <contour>
        <pt x="627" y="235" on="1"/>
        <pt x="693" y="273" on="0"/>
        <pt x="764" y="531" on="0"/>
        <pt x="764" y="772" on="1"/>
        <pt x="764" y="862" on="1"/>
        <pt x="764" y="1047" on="0"/>
        <pt x="670" y="1244" on="0"/>
        <pt x="588" y="1240" on="1"/>
        <pt x="582" y="1240" on="1"/>
        <pt x="501" y="1244" on="0"/>
        <pt x="409" y="1047" on="0"/>
        <pt x="409" y="862" on="1"/>
        <pt x="409" y="772" on="1"/>
        <pt x="409" y="529" on="0"/>
        <pt x="480" y="272" on="0"/>
        <pt x="550" y="235" on="1"/>
        <pt x="550" y="0" on="1"/>
        <pt x="116" y="0" on="1"/>
        <pt x="116" y="230" on="1"/>
        <pt x="332" y="230" on="1"/>
        <pt x="224" y="319" on="0"/>
        <pt x="92" y="604" on="0"/>
        <pt x="92" y="772" on="1"/>
        <pt x="92" y="860" on="1"/>
        <pt x="92" y="1132" on="0"/>
        <pt x="365" y="1477" on="0"/>
        <pt x="585" y="1477" on="1"/>
        <pt x="804" y="1477" on="0"/>
        <pt x="1081" y="1132" on="0"/>
        <pt x="1081" y="860" on="1"/>
        <pt x="1081" y="772" on="1"/>
        <pt x="1081" y="604" on="0"/>
        <pt x="947" y="320" on="0"/>
        <pt x="840" y="230" on="1"/>
        <pt x="1063" y="230" on="1"/>
        <pt x="1063" y="0" on="1"/>
        <pt x="627" y="0" on="1"/>
      </contour>
    </TTGlyph>
    <TTGlyph name="Omegatonos" xMin="-36" yMin="0" xMax="1101" yMax="1623">
      <component glyphName="Omega" x="20" y="0" flags="0x4"/>
      <component glyphName="tonos" x="-257" y="0" flags="0x4"/>
    </TTGlyph>
    <TTGlyph name="Omicron" xMin="75" yMin="-21" xMax="1091" yMax="1477">
      <component glyphName="O" x="0" y="0" flags="0x204"/>
    </TTGlyph>
    <TTGlyph name="Omicrontonos" xMin="-23" yMin="-21" xMax="1111" yMax="1623">
      <component glyphName="O" x="20" y="0" flags="0x4"/>
      <component glyphName="tonos" x="-244" y="0" flags="0x4"/>
    </TTGlyph>
    <TTGlyph name="Oslash" xMin="81" yMin="-93" xMax="1097" yMax="1516">
      <contour>
        <pt x="1097" y="523" on="1"/>
        <pt x="1097" y="267" on="0"/>
        <pt x="819" y="-21" on="0"/>
        <pt x="588" y="-21" on="1"/>
        <pt x="525" y="-21" on="0"/>
        <pt x="410" y="1" on="0"/>
        <pt x="360" y="24" on="1"/>
        <pt x="303" y="-93" on="1"/>
        <pt x="176" y="-93" on="1"/>
        <pt x="262" y="83" on="1"/>
        <pt x="175" y="153" on="0"/>
        <pt x="81" y="376" on="0"/>
        <pt x="81" y="523" on="1"/>
        <pt x="81" y="931" on="1"/>
        <pt x="81" y="1186" on="0"/>
        <pt x="357" y="1477" on="0"/>
        <pt x="587" y="1477" on="1"/>
        <pt x="677" y="1477" on="0"/>
        <pt x="834" y="1429" on="0"/>
        <pt x="897" y="1384" on="1"/>
        <pt x="962" y="1516" on="1"/>
        <pt x="1091" y="1516" on="1"/>
        <pt x="985" y="1300" on="1"/>
        <pt x="1039" y="1229" on="0"/>
        <pt x="1097" y="1043" on="0"/>
        <pt x="1097" y="931" on="1"/>
      </contour>
      <contour>
        <pt x="363" y="523" on="1"/>
        <pt x="363" y="469" on="0"/>
        <pt x="375" y="382" on="0"/>
        <pt x="388" y="355" on="1"/>
        <pt x="394" y="354" on="1"/>
        <pt x="776" y="1135" on="1"/>
        <pt x="748" y="1191" on="0"/>
        <pt x="653" y="1248" on="0"/>
        <pt x="587" y="1248" on="1"/>
        <pt x="475" y="1248" on="0"/>
        <pt x="363" y="1090" on="0"/>
        <pt x="363" y="933" on="1"/>
      </contour>
      <contour>
        <pt x="814" y="933" on="1"/>
        <pt x="814" y="937" on="1"/>
        <pt x="808" y="938" on="1"/>
        <pt x="466" y="241" on="1"/>
        <pt x="490" y="223" on="0"/>
        <pt x="551" y="207" on="0"/>
        <pt x="588" y="207" on="1"/>
        <pt x="698" y="207" on="0"/>
        <pt x="814" y="365" on="0"/>
        <pt x="814" y="523" on="1"/>
      </contour>
    </TTGlyph>
    <TTGlyph name="Oslashacute" xMin="81" yMin="-93" xMax="1097" yMax="1888">
      <component glyphName="Oslash" x="0" y="0" flags="0x204"/>
      <component glyphName="acute" x="370" y="410" flags="0x4"/>
    </TTGlyph>
    <TTGlyph name="Otilde" xMin="75" yMin="-21" xMax="1091" yMax="1920">
      <component glyphName="O" x="0" y="0" flags="0x204"/>
      <component glyphName="tilde" x="148" y="394" flags="0x4"/>
    </TTGlyph>
    <TTGlyph name="Otilde.smcp" xMin="77" yMin="-20" xMax="974" yMax="1595">
      <component glyphName="O.smcp" x="0" y="0" flags="0x204"/>
      <component glyphName="tilde" x="80" y="69" flags="0x4"/>
    </TTGlyph>
    <TTGlyph name="P" xMin="110" yMin="0" xMax="1086" yMax="1456">
      <contour>
        <pt x="395" y="522" on="1"/>
        <pt x="395" y="0" on="1"/>
        <pt x="110" y="0" on="1"/>
        <pt x="110" y="1456" on="1"/>
        <pt x="616" y="1456" on="1"/>
        <pt x="834" y="1456" on="0"/>
        <pt x="1086" y="1198" on="0"/>
        <pt x="1086" y="989" on="1"/>
        <pt x="1086" y="779" on="0"/>
        <pt x="833" y="522" on="0"/>
        <pt x="616" y="522" on="1"/>
      </contour>
      <contour>
        <pt x="395" y="750" on="1"/>
        <pt x="616" y="750" on="1"/>
        <pt x="707" y="750" on="0"/>
        <pt x="803" y="884" on="0"/>
        <pt x="803" y="987" on="1"/>
        <pt x="803" y="1091" on="0"/>
        <pt x="708" y="1228" on="0"/>
        <pt x="616" y="1228" on="1"/>
        <pt x="395" y="1228" on="1"/>
      </contour>
    </TTGlyph>
    <TTGlyph name="P.smcp" xMin="109" yMin="0" xMax="982" yMax="1165">
      <contour>
        <pt x="393" y="359" on="1"/>
        <pt x="393" y="0" on="1"/>
        <pt x="109" y="0" on="1"/>
        <pt x="109" y="1165" on="1"/>
        <pt x="548" y="1165" on="1"/>
        <pt x="742" y="1165" on="0"/>
        <pt x="982" y="938" on="0"/>
        <pt x="982" y="762" on="1"/>
        <pt x="982" y="585" on="0"/>
        <pt x="742" y="359" on="0"/>
        <pt x="548" y="359" on="1"/>
      </contour>
      <contour>
        <pt x="393" y="586" on="1"/>
        <pt x="548" y="586" on="1"/>
        <pt x="616" y="586" on="0"/>
        <pt x="698" y="688" on="0"/>
        <pt x="698" y="760" on="1"/>
        <pt x="698" y="833" on="0"/>
        <pt x="616" y="939" on="0"/>
        <pt x="548" y="939" on="1"/>
        <pt x="393" y="939" on="1"/>
      </contour>
    </TTGlyph>
    <TTGlyph name="Phi" xMin="68" yMin="0" xMax="1311" yMax="1456">
      <contour>
        <pt x="833" y="1285" on="1"/>
        <pt x="1045" y="1275" on="0"/>
        <pt x="1311" y="966" on="0"/>
        <pt x="1311" y="721" on="1"/>
        <pt x="1311" y="480" on="0"/>
        <pt x="1045" y="178" on="0"/>
        <pt x="833" y="169" on="1"/>
        <pt x="833" y="0" on="1"/>
        <pt x="550" y="0" on="1"/>
        <pt x="550" y="169" on="1"/>
        <pt x="335" y="177" on="0"/>
        <pt x="68" y="477" on="0"/>
        <pt x="68" y="719" on="1"/>
        <pt x="68" y="966" on="0"/>
        <pt x="335" y="1276" on="0"/>
        <pt x="550" y="1285" on="1"/>
        <pt x="550" y="1456" on="1"/>
        <pt x="833" y="1456" on="1"/>
      </contour>
      <contour>
        <pt x="346" y="719" on="1"/>
        <pt x="346" y="580" on="0"/>
        <pt x="454" y="424" on="0"/>
        <pt x="544" y="422" on="1"/>
        <pt x="550" y="423" on="1"/>
        <pt x="550" y="1029" on="1"/>
        <pt x="544" y="1031" on="1"/>
        <pt x="454" y="1028" on="0"/>
        <pt x="346" y="864" on="0"/>
      </contour>
      <contour>
        <pt x="1032" y="721" on="1"/>
        <pt x="1032" y="865" on="0"/>
        <pt x="927" y="1027" on="0"/>
        <pt x="839" y="1031" on="1"/>
        <pt x="833" y="1029" on="1"/>
        <pt x="833" y="424" on="1"/>
        <pt x="839" y="422" on="1"/>
        <pt x="926" y="425" on="0"/>
        <pt x="1032" y="583" on="0"/>
      </contour>
    </TTGlyph>
    <TTGlyph name="Pi" xMin="110" yMin="0" xMax="1132" yMax="1456">
      <contour>
        <pt x="1132" y="0" on="1"/>
        <pt x="848" y="0" on="1"/>
        <pt x="848" y="1228" on="1"/>
        <pt x="395" y="1228" on="1"/>
        <pt x="395" y="0" on="1"/>
        <pt x="110" y="0" on="1"/>
        <pt x="110" y="1456" on="1"/>
        <pt x="1132" y="1456" on="1"/>
      </contour>
    </TTGlyph>
    <TTGlyph name="Psi" xMin="40" yMin="0" xMax="1242" yMax="1456">
      <contour>
        <pt x="789" y="599" on="1"/>
        <pt x="795" y="598" on="1"/>
        <pt x="876" y="612" on="0"/>
        <pt x="957" y="789" on="0"/>
        <pt x="957" y="949" on="1"/>
        <pt x="957" y="1456" on="1"/>
        <pt x="1242" y="1456" on="1"/>
        <pt x="1242" y="949" on="1"/>
        <pt x="1242" y="690" on="0"/>
        <pt x="999" y="380" on="0"/>
        <pt x="789" y="353" on="1"/>
        <pt x="789" y="0" on="1"/>
        <pt x="505" y="0" on="1"/>
        <pt x="505" y="351" on="1"/>
        <pt x="288" y="373" on="0"/>
        <pt x="40" y="685" on="0"/>
        <pt x="40" y="949" on="1"/>
        <pt x="40" y="1456" on="1"/>
        <pt x="324" y="1456" on="1"/>
        <pt x="324" y="949" on="1"/>
        <pt x="324" y="796" on="0"/>
        <pt x="415" y="617" on="0"/>
        <pt x="499" y="599" on="1"/>
        <pt x="505" y="600" on="1"/>
        <pt x="505" y="1456" on="1"/>
        <pt x="789" y="1456" on="1"/>
      </contour>
    </TTGlyph>
    <TTGlyph name="Q" xMin="81" yMin="-231" xMax="1202" yMax="1477">
      <contour>
        <pt x="1097" y="523" on="1"/>
        <pt x="1097" y="410" on="0"/>
        <pt x="1039" y="224" on="0"/>
        <pt x="986" y="156" on="1"/>
        <pt x="1202" y="-81" on="1"/>
        <pt x="1026" y="-231" on="1"/>
        <pt x="802" y="18" on="1"/>
        <pt x="753" y="-1" on="0"/>
        <pt x="646" y="-21" on="0"/>
        <pt x="588" y="-21" on="1"/>
        <pt x="357" y="-21" on="0"/>
        <pt x="81" y="267" on="0"/>
        <pt x="81" y="523" on="1"/>
        <pt x="81" y="931" on="1"/>
        <pt x="81" y="1186" on="0"/>
        <pt x="357" y="1477" on="0"/>
        <pt x="587" y="1477" on="1"/>
        <pt x="817" y="1477" on="0"/>
        <pt x="1097" y="1186" on="0"/>
        <pt x="1097" y="931" on="1"/>
      </contour>
      <contour>
        <pt x="814" y="933" on="1"/>
        <pt x="814" y="1089" on="0"/>
        <pt x="698" y="1248" on="0"/>
        <pt x="587" y="1248" on="1"/>
        <pt x="475" y="1248" on="0"/>
        <pt x="363" y="1090" on="0"/>
        <pt x="363" y="933" on="1"/>
        <pt x="363" y="523" on="1"/>
        <pt x="363" y="365" on="0"/>
        <pt x="477" y="207" on="0"/>
        <pt x="588" y="207" on="1"/>
        <pt x="698" y="207" on="0"/>
        <pt x="814" y="365" on="0"/>
        <pt x="814" y="523" on="1"/>
      </contour>
    </TTGlyph>
    <TTGlyph name="Q.smcp" xMin="81" yMin="-141" xMax="989" yMax="1181">
      <contour>
        <pt x="978" y="461" on="1"/>
        <pt x="978" y="363" on="0"/>
        <pt x="922" y="196" on="0"/>
        <pt x="871" y="133" on="1"/>
        <pt x="989" y="-3" on="1"/>
        <pt x="809" y="-141" on="1"/>
        <pt x="682" y="3" on="1"/>
        <pt x="647" y="-8" on="0"/>
        <pt x="571" y="-20" on="0"/>
        <pt x="531" y="-20" on="1"/>
        <pt x="333" y="-20" on="0"/>
        <pt x="81" y="247" on="0"/>
        <pt x="81" y="461" on="1"/>
        <pt x="81" y="704" on="1"/>
        <pt x="81" y="916" on="0"/>
        <pt x="331" y="1181" on="0"/>
        <pt x="530" y="1181" on="1"/>
        <pt x="728" y="1181" on="0"/>
        <pt x="978" y="916" on="0"/>
        <pt x="978" y="704" on="1"/>
      </contour>
      <contour>
        <pt x="695" y="705" on="1"/>
        <pt x="695" y="813" on="0"/>
        <pt x="606" y="956" on="0"/>
        <pt x="530" y="956" on="1"/>
        <pt x="450" y="956" on="0"/>
        <pt x="365" y="814" on="0"/>
        <pt x="365" y="705" on="1"/>
        <pt x="365" y="461" on="1"/>
        <pt x="365" y="350" on="0"/>
        <pt x="451" y="206" on="0"/>
        <pt x="531" y="206" on="1"/>
        <pt x="607" y="206" on="0"/>
        <pt x="695" y="351" on="0"/>
        <pt x="695" y="461" on="1"/>
      </contour>
    </TTGlyph>
    <TTGlyph name="R" xMin="111" yMin="0" xMax="1120" yMax="1455">
      <contour>
        <pt x="395" y="579" on="1"/>
        <pt x="395" y="0" on="1"/>
        <pt x="111" y="0" on="1"/>
        <pt x="111" y="1455" on="1"/>
        <pt x="586" y="1455" on="1"/>
        <pt x="801" y="1455" on="0"/>
        <pt x="1046" y="1228" on="0"/>
        <pt x="1046" y="1026" on="1"/>
        <pt x="1046" y="912" on="0"/>
        <pt x="944" y="747" on="0"/>
        <pt x="846" y="698" on="1"/>
        <pt x="958" y="660" on="0"/>
        <pt x="1057" y="484" on="0"/>
        <pt x="1057" y="352" on="1"/>
        <pt x="1057" y="249" on="1"/>
        <pt x="1057" y="189" on="0"/>
        <pt x="1085" y="52" on="0"/>
        <pt x="1120" y="21" on="1"/>
        <pt x="1120" y="0" on="1"/>
        <pt x="826" y="0" on="1"/>
        <pt x="791" y="32" on="0"/>
        <pt x="773" y="176" on="0"/>
        <pt x="773" y="251" on="1"/>
        <pt x="773" y="350" on="1"/>
        <pt x="773" y="459" on="0"/>
        <pt x="684" y="579" on="0"/>
        <pt x="601" y="579" on="1"/>
      </contour>
      <contour>
        <pt x="395" y="806" on="1"/>
        <pt x="585" y="806" on="1"/>
        <pt x="672" y="806" on="0"/>
        <pt x="762" y="912" on="0"/>
        <pt x="762" y="1010" on="1"/>
        <pt x="762" y="1110" on="0"/>
        <pt x="672" y="1228" on="0"/>
        <pt x="586" y="1228" on="1"/>
        <pt x="395" y="1228" on="1"/>
      </contour>
    </TTGlyph>
    <TTGlyph name="R.smcp" xMin="109" yMin="0" xMax="953" yMax="1165">
      <contour>
        <pt x="914" y="813" on="1"/>
        <pt x="914" y="716" on="0"/>
        <pt x="824" y="572" on="0"/>
        <pt x="739" y="528" on="1"/>
        <pt x="840" y="498" on="0"/>
        <pt x="929" y="355" on="0"/>
        <pt x="929" y="250" on="1"/>
        <pt x="929" y="172" on="1"/>
        <pt x="929" y="136" on="0"/>
        <pt x="939" y="32" on="0"/>
        <pt x="953" y="13" on="1"/>
        <pt x="953" y="0" on="1"/>
        <pt x="660" y="0" on="1"/>
        <pt x="650" y="18" on="0"/>
        <pt x="645" y="123" on="0"/>
        <pt x="645" y="173" on="1"/>
        <pt x="645" y="249" on="1"/>
        <pt x="645" y="328" on="0"/>
        <pt x="577" y="410" on="0"/>
        <pt x="511" y="413" on="1"/>
        <pt x="393" y="413" on="1"/>
        <pt x="393" y="0" on="1"/>
        <pt x="109" y="0" on="1"/>
        <pt x="109" y="1165" on="1"/>
        <pt x="503" y="1165" on="1"/>
        <pt x="689" y="1165" on="0"/>
        <pt x="914" y="974" on="0"/>
      </contour>
      <contour>
        <pt x="393" y="640" on="1"/>
        <pt x="503" y="640" on="1"/>
        <pt x="561" y="640" on="0"/>
        <pt x="629" y="721" on="0"/>
        <pt x="629" y="791" on="1"/>
        <pt x="629" y="854" on="0"/>
        <pt x="560" y="939" on="0"/>
        <pt x="503" y="939" on="1"/>
        <pt x="393" y="939" on="1"/>
      </contour>
    </TTGlyph>
    <TTGlyph name="Racute" xMin="111" yMin="0" xMax="1120" yMax="1826">
      <component glyphName="R" x="0" y="0" flags="0x204"/>
      <component glyphName="acute" x="300" y="348" flags="0x4"/>
    </TTGlyph>
    <TTGlyph name="Racute.smcp" xMin="109" yMin="0" xMax="953" yMax="1503">
      <component glyphName="R.smcp" x="0" y="0" flags="0x204"/>
      <component glyphName="acute" x="232" y="25" flags="0x4"/>
    </TTGlyph>
    <TTGlyph name="Rcaron" xMin="111" yMin="0" xMax="1120" yMax="1872">
      <component glyphName="R" x="0" y="0" flags="0x204"/>
      <component glyphName="caron" x="118" y="350" flags="0x4"/>
    </TTGlyph>
    <TTGlyph name="Rcaron.smcp" xMin="109" yMin="0" xMax="953" yMax="1549">
      <component glyphName="R.smcp" x="0" y="0" flags="0x204"/>
      <component glyphName="caron" x="50" y="27" flags="0x4"/>
    </TTGlyph>
    <TTGlyph name="Rcommaaccent" xMin="111" yMin="-489" xMax="1120" yMax="1455">
      <component glyphName="R" x="0" y="0" flags="0x204"/>
      <component glyphName="commaaccent" x="354" y="-363" flags="0x4"/>
    </TTGlyph>
    <TTGlyph name="Rcommaaccent.smcp" xMin="109" yMin="-489" xMax="953" yMax="1165">
      <component glyphName="R.smcp" x="0" y="0" flags="0x204"/>
      <component glyphName="commaaccent" x="286" y="-363" flags="0x4"/>
    </TTGlyph>
    <TTGlyph name="Rho" xMin="110" yMin="0" xMax="1086" yMax="1456">
      <component glyphName="P" x="0" y="0" flags="0x204"/>
    </TTGlyph>
    <TTGlyph name="S" xMin="67" yMin="-21" xMax="1041" yMax="1477">
      <contour>
        <pt x="757" y="380" on="1"/>
        <pt x="757" y="465" on="0"/>
        <pt x="669" y="564" on="0"/>
        <pt x="558" y="612" on="1"/>
        <pt x="331" y="691" on="0"/>
        <pt x="104" y="892" on="0"/>
        <pt x="104" y="1073" on="1"/>
        <pt x="104" y="1252" on="0"/>
        <pt x="368" y="1477" on="0"/>
        <pt x="573" y="1477" on="1"/>
        <pt x="781" y="1477" on="0"/>
        <pt x="1041" y="1226" on="0"/>
        <pt x="1037" y="1035" on="1"/>
        <pt x="1035" y="1029" on="1"/>
        <pt x="759" y="1029" on="1"/>
        <pt x="759" y="1129" on="0"/>
        <pt x="659" y="1253" on="0"/>
        <pt x="568" y="1253" on="1"/>
        <pt x="483" y="1253" on="0"/>
        <pt x="388" y="1150" on="0"/>
        <pt x="388" y="1072" on="1"/>
        <pt x="388" y="1000" on="0"/>
        <pt x="494" y="907" on="0"/>
        <pt x="625" y="850" on="1"/>
        <pt x="832" y="780" on="0"/>
        <pt x="1041" y="565" on="0"/>
        <pt x="1041" y="382" on="1"/>
        <pt x="1041" y="193" on="0"/>
        <pt x="789" y="-21" on="0"/>
        <pt x="580" y="-21" on="1"/>
        <pt x="372" y="-21" on="0"/>
        <pt x="67" y="222" on="0"/>
        <pt x="72" y="449" on="1"/>
        <pt x="74" y="455" on="1"/>
        <pt x="351" y="455" on="1"/>
        <pt x="351" y="320" on="0"/>
        <pt x="465" y="202" on="0"/>
        <pt x="580" y="202" on="1"/>
        <pt x="670" y="202" on="0"/>
        <pt x="757" y="298" on="0"/>
      </contour>
    </TTGlyph>
    <TTGlyph name="S.smcp" xMin="55" yMin="-20" xMax="910" yMax="1181">
      <contour>
        <pt x="628" y="323" on="1"/>
        <pt x="628" y="378" on="0"/>
        <pt x="558" y="449" on="0"/>
        <pt x="466" y="476" on="1"/>
        <pt x="270" y="518" on="0"/>
        <pt x="95" y="677" on="0"/>
        <pt x="95" y="839" on="1"/>
        <pt x="95" y="985" on="0"/>
        <pt x="308" y="1181" on="0"/>
        <pt x="490" y="1181" on="1"/>
        <pt x="680" y="1181" on="0"/>
        <pt x="893" y="982" on="0"/>
        <pt x="889" y="815" on="1"/>
        <pt x="887" y="809" on="1"/>
        <pt x="612" y="809" on="1"/>
        <pt x="612" y="882" on="0"/>
        <pt x="558" y="957" on="0"/>
        <pt x="490" y="957" on="1"/>
        <pt x="429" y="957" on="0"/>
        <pt x="377" y="893" on="0"/>
        <pt x="377" y="841" on="1"/>
        <pt x="377" y="782" on="0"/>
        <pt x="443" y="713" on="0"/>
        <pt x="550" y="685" on="1"/>
        <pt x="732" y="644" on="0"/>
        <pt x="910" y="483" on="0"/>
        <pt x="910" y="327" on="1"/>
        <pt x="910" y="172" on="0"/>
        <pt x="681" y="-20" on="0"/>
        <pt x="493" y="-20" on="1"/>
        <pt x="284" y="-20" on="0"/>
        <pt x="55" y="181" on="0"/>
        <pt x="61" y="352" on="1"/>
        <pt x="63" y="358" on="1"/>
        <pt x="338" y="358" on="1"/>
        <pt x="340" y="273" on="0"/>
        <pt x="418" y="205" on="0"/>
        <pt x="493" y="205" on="1"/>
        <pt x="566" y="205" on="0"/>
        <pt x="628" y="269" on="0"/>
      </contour>
    </TTGlyph>
    <TTGlyph name="Sacute" xMin="67" yMin="-21" xMax="1041" yMax="1847">
      <component glyphName="S" x="0" y="0" flags="0x204"/>
      <component glyphName="acute" x="311" y="369" flags="0x4"/>
    </TTGlyph>
    <TTGlyph name="Sacute.smcp" xMin="55" yMin="-20" xMax="910" yMax="1523">
      <component glyphName="S.smcp" x="0" y="0" flags="0x204"/>
      <component glyphName="acute" x="230" y="45" flags="0x4"/>
    </TTGlyph>
    <TTGlyph name="Scaron" xMin="67" yMin="-21" xMax="1041" yMax="1893">
      <component glyphName="S" x="0" y="0" flags="0x204"/>
      <component glyphName="caron" x="129" y="371" flags="0x4"/>
    </TTGlyph>
    <TTGlyph name="Scaron.smcp" xMin="55" yMin="-20" xMax="910" yMax="1569">
      <component glyphName="S.smcp" x="0" y="0" flags="0x204"/>
      <component glyphName="caron" x="48" y="47" flags="0x4"/>
    </TTGlyph>
    <TTGlyph name="Scedilla" xMin="67" yMin="-470" xMax="1041" yMax="1477">
      <component glyphName="S" x="0" y="0" flags="0x204"/>
      <component glyphName="cedilla" x="361" y="-8" flags="0x4"/>
    </TTGlyph>
    <TTGlyph name="Scedilla.smcp" xMin="55" yMin="-467" xMax="910" yMax="1181">
      <component glyphName="S.smcp" x="0" y="0" flags="0x204"/>
      <component glyphName="cedilla" x="261" y="-5" flags="0x4"/>
    </TTGlyph>
    <TTGlyph name="Scircumflex" xMin="67" yMin="-21" xMax="1041" yMax="1874">
      <component glyphName="S" x="0" y="0" flags="0x204"/>
      <component glyphName="circumflex" x="108" y="360" flags="0x4"/>
    </TTGlyph>
    <TTGlyph name="Scircumflex.smcp" xMin="55" yMin="-20" xMax="910" yMax="1550">
      <component glyphName="S.smcp" x="0" y="0" flags="0x204"/>
      <component glyphName="circumflex" x="27" y="36" flags="0x4"/>
    </TTGlyph>
    <TTGlyph name="Sigma" xMin="70" yMin="0" xMax="949" yMax="1456">
      <contour>
        <pt x="731" y="730" on="1"/>
        <pt x="430" y="227" on="1"/>
        <pt x="949" y="227" on="1"/>
        <pt x="949" y="0" on="1"/>
        <pt x="70" y="0" on="1"/>
        <pt x="70" y="144" on="1"/>
        <pt x="429" y="739" on="1"/>
        <pt x="70" y="1313" on="1"/>
        <pt x="70" y="1456" on="1"/>
        <pt x="933" y="1456" on="1"/>
        <pt x="933" y="1229" on="1"/>
        <pt x="434" y="1229" on="1"/>
        <pt x="731" y="748" on="1"/>
      </contour>
    </TTGlyph>
    <TTGlyph name="T" xMin="29" yMin="0" xMax="967" yMax="1456">
      <contour>
        <pt x="967" y="1228" on="1"/>
        <pt x="639" y="1228" on="1"/>
        <pt x="639" y="0" on="1"/>
        <pt x="355" y="0" on="1"/>
        <pt x="355" y="1228" on="1"/>
        <pt x="29" y="1228" on="1"/>
        <pt x="29" y="1456" on="1"/>
        <pt x="967" y="1456" on="1"/>
      </contour>
    </TTGlyph>
    <TTGlyph name="T.smcp" xMin="43" yMin="0" xMax="892" yMax="1165">
      <contour>
        <pt x="892" y="939" on="1"/>
        <pt x="608" y="939" on="1"/>
        <pt x="608" y="0" on="1"/>
        <pt x="323" y="0" on="1"/>
        <pt x="323" y="939" on="1"/>
        <pt x="43" y="939" on="1"/>
        <pt x="43" y="1165" on="1"/>
        <pt x="892" y="1165" on="1"/>
      </contour>
    </TTGlyph>
    <TTGlyph name="Tau" xMin="29" yMin="0" xMax="967" yMax="1456">
      <component glyphName="T" x="0" y="0" flags="0x204"/>
    </TTGlyph>
    <TTGlyph name="Tbar" xMin="29" yMin="0" xMax="967" yMax="1456">
      <contour>
        <pt x="797" y="749" on="1"/>
        <pt x="639" y="749" on="1"/>
        <pt x="639" y="0" on="1"/>
        <pt x="355" y="0" on="1"/>
        <pt x="355" y="749" on="1"/>
        <pt x="216" y="749" on="1"/>
        <pt x="216" y="924" on="1"/>
        <pt x="355" y="924" on="1"/>
        <pt x="355" y="1228" on="1"/>
        <pt x="29" y="1228" on="1"/>
        <pt x="29" y="1456" on="1"/>
        <pt x="967" y="1456" on="1"/>
        <pt x="967" y="1228" on="1"/>
        <pt x="639" y="1228" on="1"/>
        <pt x="639" y="924" on="1"/>
        <pt x="797" y="924" on="1"/>
      </contour>
    </TTGlyph>
    <TTGlyph name="Tbar.smcp" xMin="43" yMin="0" xMax="892" yMax="1165">
      <component glyphName="T.smcp" x="0" y="0" flags="0x204"/>
      <component glyphName="crossbar" x="35" y="-71" flags="0x4"/>
    </TTGlyph>
    <TTGlyph name="Tcaron" xMin="29" yMin="0" xMax="967" yMax="1871">
      <component glyphName="T" x="0" y="0" flags="0x204"/>
      <component glyphName="caron" x="74" y="349" flags="0x4"/>
    </TTGlyph>
    <TTGlyph name="Tcaron.smcp" xMin="43" yMin="0" xMax="892" yMax="1548">
      <component glyphName="T.smcp" x="0" y="0" flags="0x204"/>
      <component glyphName="caron" x="36" y="26" flags="0x4"/>
    </TTGlyph>
    <TTGlyph name="Tcommaaccent.smcp" xMin="43" yMin="-489" xMax="892" yMax="1165">
      <component glyphName="T.smcp" x="0" y="0" flags="0x204"/>
      <component glyphName="commaaccent" x="272" y="-363" flags="0x4"/>
    </TTGlyph>
    <TTGlyph name="Theta" xMin="72" yMin="-21" xMax="1088" yMax="1477">
      <contour>
        <pt x="723" y="609" on="1"/>
        <pt x="442" y="609" on="1"/>
        <pt x="442" y="835" on="1"/>
        <pt x="723" y="835" on="1"/>
      </contour>
      <contour>
        <pt x="1088" y="523" on="1"/>
        <pt x="1088" y="267" on="0"/>
        <pt x="810" y="-21" on="0"/>
        <pt x="579" y="-21" on="1"/>
        <pt x="348" y="-21" on="0"/>
        <pt x="72" y="267" on="0"/>
        <pt x="72" y="523" on="1"/>
        <pt x="72" y="931" on="1"/>
        <pt x="72" y="1186" on="0"/>
        <pt x="348" y="1477" on="0"/>
        <pt x="578" y="1477" on="1"/>
        <pt x="808" y="1477" on="0"/>
        <pt x="1088" y="1186" on="0"/>
        <pt x="1088" y="931" on="1"/>
      </contour>
      <contour>
        <pt x="805" y="933" on="1"/>
        <pt x="805" y="1089" on="0"/>
        <pt x="689" y="1248" on="0"/>
        <pt x="578" y="1248" on="1"/>
        <pt x="466" y="1248" on="0"/>
        <pt x="354" y="1090" on="0"/>
        <pt x="354" y="933" on="1"/>
        <pt x="354" y="523" on="1"/>
        <pt x="354" y="365" on="0"/>
        <pt x="468" y="207" on="0"/>
        <pt x="579" y="207" on="1"/>
        <pt x="689" y="207" on="0"/>
        <pt x="805" y="365" on="0"/>
        <pt x="805" y="523" on="1"/>
      </contour>
    </TTGlyph>
    <TTGlyph name="Thorn" xMin="108" yMin="0" xMax="1028" yMax="1456">
      <contour>
        <pt x="393" y="1456" on="1"/>
        <pt x="393" y="1188" on="1"/>
        <pt x="558" y="1188" on="1"/>
        <pt x="781" y="1188" on="0"/>
        <pt x="1028" y="940" on="0"/>
        <pt x="1028" y="738" on="1"/>
        <pt x="1028" y="535" on="0"/>
        <pt x="781" y="288" on="0"/>
        <pt x="558" y="288" on="1"/>
        <pt x="393" y="288" on="1"/>
        <pt x="393" y="0" on="1"/>
        <pt x="108" y="0" on="1"/>
        <pt x="108" y="1456" on="1"/>
      </contour>
      <contour>
        <pt x="393" y="963" on="1"/>
        <pt x="393" y="515" on="1"/>
        <pt x="558" y="515" on="1"/>
        <pt x="652" y="515" on="0"/>
        <pt x="743" y="641" on="0"/>
        <pt x="743" y="736" on="1"/>
        <pt x="743" y="832" on="0"/>
        <pt x="651" y="961" on="0"/>
        <pt x="558" y="961" on="1"/>
        <pt x="395" y="961" on="1"/>
      </contour>
    </TTGlyph>
    <TTGlyph name="U" xMin="94" yMin="-21" xMax="1082" yMax="1456">
      <contour>
        <pt x="1082" y="1456" on="1"/>
        <pt x="1082" y="465" on="1"/>
        <pt x="1082" y="232" on="0"/>
        <pt x="809" y="-21" on="0"/>
        <pt x="588" y="-21" on="1"/>
        <pt x="367" y="-21" on="0"/>
        <pt x="94" y="233" on="0"/>
        <pt x="94" y="465" on="1"/>
        <pt x="94" y="1456" on="1"/>
        <pt x="378" y="1456" on="1"/>
        <pt x="378" y="465" on="1"/>
        <pt x="378" y="332" on="0"/>
        <pt x="488" y="206" on="0"/>
        <pt x="588" y="206" on="1"/>
        <pt x="691" y="206" on="0"/>
        <pt x="799" y="326" on="0"/>
        <pt x="799" y="465" on="1"/>
        <pt x="799" y="1456" on="1"/>
      </contour>
    </TTGlyph>
    <TTGlyph name="U.smcp" xMin="94" yMin="-20" xMax="994" yMax="1165">
      <contour>
        <pt x="994" y="1165" on="1"/>
        <pt x="994" y="415" on="1"/>
        <pt x="994" y="210" on="0"/>
        <pt x="749" y="-20" on="0"/>
        <pt x="544" y="-20" on="1"/>
        <pt x="339" y="-20" on="0"/>
        <pt x="94" y="211" on="0"/>
        <pt x="94" y="415" on="1"/>
        <pt x="94" y="1165" on="1"/>
        <pt x="378" y="1165" on="1"/>
        <pt x="378" y="415" on="1"/>
        <pt x="378" y="311" on="0"/>
        <pt x="461" y="206" on="0"/>
        <pt x="544" y="206" on="1"/>
        <pt x="628" y="206" on="0"/>
        <pt x="708" y="309" on="0"/>
        <pt x="708" y="415" on="1"/>
        <pt x="708" y="1165" on="1"/>
      </contour>
    </TTGlyph>
    <TTGlyph name="Uacute" xMin="94" yMin="-21" xMax="1082" yMax="1826">
      <component glyphName="U" x="0" y="0" flags="0x204"/>
      <component glyphName="acute" x="342" y="348" flags="0x4"/>
    </TTGlyph>
    <TTGlyph name="Uacute.smcp" xMin="94" yMin="-20" xMax="994" yMax="1507">
      <component glyphName="U.smcp" x="0" y="0" flags="0x204"/>
      <component glyphName="acute" x="287" y="29" flags="0x4"/>
    </TTGlyph>
    <TTGlyph name="Ubreve" xMin="94" yMin="-21" xMax="1082" yMax="1897">
      <component glyphName="U" x="0" y="0" flags="0x204"/>
      <component glyphName="breve" x="174" y="441" flags="0x4"/>
    </TTGlyph>
    <TTGlyph name="Ubreve.smcp" xMin="94" yMin="-20" xMax="994" yMax="1578">
      <component glyphName="U.smcp" x="0" y="0" flags="0x204"/>
      <component glyphName="breve" x="119" y="122" flags="0x4"/>
    </TTGlyph>
    <TTGlyph name="Ucircumflex" xMin="94" yMin="-21" xMax="1082" yMax="1853">
      <component glyphName="U" x="0" y="0" flags="0x204"/>
      <component glyphName="circumflex" x="139" y="339" flags="0x4"/>
    </TTGlyph>
    <TTGlyph name="Ucircumflex.smcp" xMin="94" yMin="-20" xMax="994" yMax="1534">
      <component glyphName="U.smcp" x="0" y="0" flags="0x204"/>
      <component glyphName="circumflex" x="84" y="20" flags="0x4"/>
    </TTGlyph>
    <TTGlyph name="Udieresis" xMin="94" yMin="-21" xMax="1082" yMax="1804">
      <component glyphName="U" x="0" y="0" flags="0x204"/>
      <component glyphName="dieresis" x="94" y="348" flags="0x4"/>
    </TTGlyph>
    <TTGlyph name="Udieresis.smcp" xMin="94" yMin="-20" xMax="994" yMax="1485">
      <component glyphName="U.smcp" x="0" y="0" flags="0x204"/>
      <component glyphName="dieresis" x="39" y="29" flags="0x4"/>
    </TTGlyph>
    <TTGlyph name="Ugrave" xMin="94" yMin="-21" xMax="1082" yMax="1825">
      <component glyphName="U" x="0" y="0" flags="0x204"/>
      <component glyphName="grave" x="183" y="348" flags="0x4"/>
    </TTGlyph>
    <TTGlyph name="Ugrave.smcp" xMin="94" yMin="-20" xMax="994" yMax="1506">
      <component glyphName="U.smcp" x="0" y="0" flags="0x204"/>
      <component glyphName="grave" x="128" y="29" flags="0x4"/>
    </TTGlyph>
    <TTGlyph name="Uhorn" xMin="94" yMin="-21" xMax="1432" yMax="1609">
      <contour>
        <pt x="1082" y="1456" on="1"/>
        <pt x="1082" y="1266" on="1"/>
        <pt x="1088" y="1265" on="1"/>
        <pt x="1170" y="1277" on="0"/>
        <pt x="1232" y="1447" on="0"/>
        <pt x="1232" y="1609" on="1"/>
        <pt x="1432" y="1609" on="1"/>
        <pt x="1432" y="1366" on="0"/>
        <pt x="1265" y="1099" on="0"/>
        <pt x="1082" y="1079" on="1"/>
        <pt x="1082" y="465" on="1"/>
        <pt x="1082" y="232" on="0"/>
        <pt x="809" y="-21" on="0"/>
        <pt x="588" y="-21" on="1"/>
        <pt x="367" y="-21" on="0"/>
        <pt x="94" y="233" on="0"/>
        <pt x="94" y="465" on="1"/>
        <pt x="94" y="1456" on="1"/>
        <pt x="378" y="1456" on="1"/>
        <pt x="378" y="465" on="1"/>
        <pt x="378" y="332" on="0"/>
        <pt x="488" y="206" on="0"/>
        <pt x="588" y="206" on="1"/>
        <pt x="691" y="206" on="0"/>
        <pt x="799" y="326" on="0"/>
        <pt x="799" y="465" on="1"/>
        <pt x="799" y="1456" on="1"/>
      </contour>
    </TTGlyph>
    <TTGlyph name="Uhungarumlaut" xMin="94" yMin="-21" xMax="1082" yMax="1867">
      <component glyphName="U" x="0" y="0" flags="0x204"/>
      <component glyphName="hungarumlaut" x="169" y="349" flags="0x4"/>
    </TTGlyph>
    <TTGlyph name="Uhungarumlaut.smcp" xMin="94" yMin="-20" xMax="1025" yMax="1548">
      <component glyphName="U.smcp" x="0" y="0" flags="0x204"/>
      <component glyphName="hungarumlaut" x="114" y="30" flags="0x4"/>
    </TTGlyph>
    <TTGlyph name="Umacron" xMin="94" yMin="-21" xMax="1082" yMax="1777">
      <component glyphName="U" x="0" y="0" flags="0x204"/>
      <component glyphName="macron" x="115" y="320" flags="0x4"/>
    </TTGlyph>
    <TTGlyph name="Umacron.smcp" xMin="94" yMin="-20" xMax="994" yMax="1458">
      <component glyphName="U.smcp" x="0" y="0" flags="0x204"/>
      <component glyphName="macron" x="60" y="1" flags="0x4"/>
    </TTGlyph>
    <TTGlyph name="Uogonek" xMin="94" yMin="-415" xMax="1082" yMax="1456">
      <component glyphName="U" x="0" y="0" flags="0x204"/>
      <component glyphName="ogonek" x="317" y="0" flags="0x4"/>
    </TTGlyph>
    <TTGlyph name="Uogonek.smcp" xMin="94" yMin="-415" xMax="994" yMax="1165">
      <component glyphName="U.smcp" x="0" y="0" flags="0x204"/>
      <component glyphName="ogonek" x="276" y="0" flags="0x4"/>
    </TTGlyph>
    <TTGlyph name="Upsilon" xMin="7" yMin="0" xMax="1116" yMax="1456">
      <component glyphName="Y" x="0" y="0" flags="0x204"/>
    </TTGlyph>
    <TTGlyph name="Upsilondieresis" xMin="7" yMin="0" xMax="1116" yMax="1803">
      <component glyphName="Y" x="0" y="0" flags="0x204"/>
      <component glyphName="dieresis" x="77" y="347" flags="0x4"/>
    </TTGlyph>
    <TTGlyph name="Upsilontonos" xMin="-156" yMin="0" xMax="1216" yMax="1623">
      <component glyphName="Y" x="100" y="0" flags="0x4"/>
      <component glyphName="tonos" x="-377" y="0" flags="0x4"/>
    </TTGlyph>
    <TTGlyph name="Uring" xMin="94" yMin="-21" xMax="1082" yMax="1929">
      <component glyphName="U" x="0" y="0" flags="0x204"/>
      <component glyphName="ring" x="277" y="440" flags="0x4"/>
    </TTGlyph>
    <TTGlyph name="Uring.smcp" xMin="94" yMin="-20" xMax="994" yMax="1610">
      <component glyphName="U.smcp" x="0" y="0" flags="0x204"/>
      <component glyphName="ring" x="222" y="121" flags="0x4"/>
    </TTGlyph>
    <TTGlyph name="Utilde" xMin="94" yMin="-21" xMax="1082" yMax="1899">
      <component glyphName="U" x="0" y="0" flags="0x204"/>
      <component glyphName="tilde" x="151" y="373" flags="0x4"/>
    </TTGlyph>
    <TTGlyph name="Utilde.smcp" xMin="94" yMin="-20" xMax="994" yMax="1580">
      <component glyphName="U.smcp" x="0" y="0" flags="0x204"/>
      <component glyphName="tilde" x="96" y="54" flags="0x4"/>
    </TTGlyph>
    <TTGlyph name="V" xMin="9" yMin="0" xMax="1119" yMax="1456">
      <contour>
        <pt x="549" y="372" on="1"/>
        <pt x="560" y="316" on="1"/>
        <pt x="566" y="316" on="1"/>
        <pt x="577" y="369" on="1"/>
        <pt x="820" y="1456" on="1"/>
        <pt x="1119" y="1456" on="1"/>
        <pt x="712" y="0" on="1"/>
        <pt x="416" y="0" on="1"/>
        <pt x="9" y="1456" on="1"/>
        <pt x="308" y="1456" on="1"/>
      </contour>
    </TTGlyph>
    <TTGlyph name="V.smcp" xMin="12" yMin="0" xMax="1008" yMax="1165">
      <contour>
        <pt x="504" y="300" on="1"/>
        <pt x="506" y="286" on="1"/>
        <pt x="512" y="286" on="1"/>
        <pt x="514" y="295" on="1"/>
        <pt x="712" y="1165" on="1"/>
        <pt x="1008" y="1165" on="1"/>
        <pt x="666" y="0" on="1"/>
        <pt x="354" y="0" on="1"/>
        <pt x="12" y="1165" on="1"/>
        <pt x="309" y="1165" on="1"/>
      </contour>
    </TTGlyph>
    <TTGlyph name="W" xMin="21" yMin="0" xMax="1526" yMax="1456">
      <contour>
        <pt x="1087" y="527" on="1"/>
        <pt x="1093" y="527" on="1"/>
        <pt x="1250" y="1456" on="1"/>
        <pt x="1526" y="1456" on="1"/>
        <pt x="1245" y="0" on="1"/>
        <pt x="980" y="0" on="1"/>
        <pt x="775" y="892" on="1"/>
        <pt x="769" y="892" on="1"/>
        <pt x="566" y="0" on="1"/>
        <pt x="302" y="0" on="1"/>
        <pt x="21" y="1456" on="1"/>
        <pt x="297" y="1456" on="1"/>
        <pt x="454" y="527" on="1"/>
        <pt x="460" y="527" on="1"/>
        <pt x="670" y="1456" on="1"/>
        <pt x="874" y="1456" on="1"/>
      </contour>
    </TTGlyph>
    <TTGlyph name="W.smcp" xMin="33" yMin="0" xMax="1307" yMax="1165">
      <contour>
        <pt x="914" y="552" on="1"/>
        <pt x="920" y="552" on="1"/>
        <pt x="1010" y="1165" on="1"/>
        <pt x="1307" y="1165" on="1"/>
        <pt x="1083" y="0" on="1"/>
        <pt x="805" y="0" on="1"/>
        <pt x="670" y="595" on="1"/>
        <pt x="664" y="594" on="1"/>
        <pt x="535" y="0" on="1"/>
        <pt x="256" y="0" on="1"/>
        <pt x="33" y="1165" on="1"/>
        <pt x="330" y="1165" on="1"/>
        <pt x="418" y="550" on="1"/>
        <pt x="424" y="550" on="1"/>
        <pt x="555" y="1165" on="1"/>
        <pt x="785" y="1165" on="1"/>
      </contour>
    </TTGlyph>
    <TTGlyph name="Wacute" xMin="21" yMin="0" xMax="1526" yMax="1826">
      <component glyphName="W" x="0" y="0" flags="0x204"/>
      <component glyphName="acute" x="529" y="348" flags="0x4"/>
    </TTGlyph>
    <TTGlyph name="Wcircumflex" xMin="21" yMin="0" xMax="1526" yMax="1853">
      <component glyphName="W" x="0" y="0" flags="0x204"/>
      <component glyphName="circumflex" x="326" y="339" flags="0x4"/>
    </TTGlyph>
    <TTGlyph name="Wcircumflex.smcp" xMin="33" yMin="0" xMax="1307" yMax="1530">
      <component glyphName="W.smcp" x="0" y="0" flags="0x204"/>
      <component glyphName="circumflex" x="222" y="16" flags="0x4"/>
    </TTGlyph>
    <TTGlyph name="Wdieresis" xMin="21" yMin="0" xMax="1526" yMax="1804">
      <component glyphName="W" x="0" y="0" flags="0x204"/>
      <component glyphName="dieresis" x="281" y="348" flags="0x4"/>
    </TTGlyph>
    <TTGlyph name="Wgrave" xMin="21" yMin="0" xMax="1526" yMax="1825">
      <component glyphName="W" x="0" y="0" flags="0x204"/>
      <component glyphName="grave" x="370" y="348" flags="0x4"/>
    </TTGlyph>
    <TTGlyph name="X" xMin="27" yMin="0" xMax="1115" yMax="1456">
      <contour>
        <pt x="558" y="947" on="1"/>
        <pt x="564" y="947" on="1"/>
        <pt x="762" y="1456" on="1"/>
        <pt x="1091" y="1456" on="1"/>
        <pt x="738" y="734" on="1"/>
        <pt x="1115" y="0" on="1"/>
        <pt x="772" y="0" on="1"/>
        <pt x="568" y="520" on="1"/>
        <pt x="562" y="520" on="1"/>
        <pt x="358" y="0" on="1"/>
        <pt x="27" y="0" on="1"/>
        <pt x="389" y="734" on="1"/>
        <pt x="36" y="1456" on="1"/>
        <pt x="363" y="1456" on="1"/>
      </contour>
    </TTGlyph>
    <TTGlyph name="X.smcp" xMin="28" yMin="0" xMax="969" yMax="1165">
      <contour>
        <pt x="493" y="788" on="1"/>
        <pt x="499" y="788" on="1"/>
        <pt x="635" y="1165" on="1"/>
        <pt x="962" y="1165" on="1"/>
        <pt x="676" y="588" on="1"/>
        <pt x="969" y="0" on="1"/>
        <pt x="644" y="0" on="1"/>
        <pt x="502" y="386" on="1"/>
        <pt x="496" y="386" on="1"/>
        <pt x="354" y="0" on="1"/>
        <pt x="28" y="0" on="1"/>
        <pt x="321" y="588" on="1"/>
        <pt x="34" y="1165" on="1"/>
        <pt x="359" y="1165" on="1"/>
      </contour>
    </TTGlyph>
    <TTGlyph name="Xi" xMin="85" yMin="0" xMax="929" yMax="1456">
      <contour>
        <pt x="85" y="227" on="1"/>
        <pt x="929" y="227" on="1"/>
        <pt x="929" y="0" on="1"/>
        <pt x="85" y="0" on="1"/>
      </contour>
      <contour>
        <pt x="185" y="844" on="1"/>
        <pt x="831" y="844" on="1"/>
        <pt x="831" y="626" on="1"/>
        <pt x="185" y="626" on="1"/>
      </contour>
      <contour>
        <pt x="108" y="1456" on="1"/>
        <pt x="890" y="1456" on="1"/>
        <pt x="890" y="1229" on="1"/>
        <pt x="108" y="1229" on="1"/>
      </contour>
    </TTGlyph>
    <TTGlyph name="Y" xMin="7" yMin="0" xMax="1116" yMax="1456">
      <contour>
        <pt x="558" y="832" on="1"/>
        <pt x="564" y="832" on="1"/>
        <pt x="807" y="1456" on="1"/>
        <pt x="1116" y="1456" on="1"/>
        <pt x="700" y="518" on="1"/>
        <pt x="700" y="0" on="1"/>
        <pt x="416" y="0" on="1"/>
        <pt x="416" y="536" on="1"/>
        <pt x="7" y="1456" on="1"/>
        <pt x="318" y="1456" on="1"/>
      </contour>
    </TTGlyph>
    <TTGlyph name="Y.smcp" xMin="6" yMin="0" xMax="941" yMax="1165">
      <contour>
        <pt x="471" y="712" on="1"/>
        <pt x="477" y="712" on="1"/>
        <pt x="635" y="1165" on="1"/>
        <pt x="941" y="1165" on="1"/>
        <pt x="612" y="417" on="1"/>
        <pt x="612" y="0" on="1"/>
        <pt x="329" y="0" on="1"/>
        <pt x="329" y="427" on="1"/>
        <pt x="6" y="1165" on="1"/>
        <pt x="312" y="1165" on="1"/>
      </contour>
    </TTGlyph>
    <TTGlyph name="Yacute" xMin="7" yMin="0" xMax="1116" yMax="1825">
      <component glyphName="Y" x="0" y="0" flags="0x204"/>
      <component glyphName="acute" x="325" y="347" flags="0x4"/>
    </TTGlyph>
    <TTGlyph name="Yacute.smcp" xMin="6" yMin="0" xMax="941" yMax="1502">
      <component glyphName="Y.smcp" x="0" y="0" flags="0x204"/>
      <component glyphName="acute" x="234" y="24" flags="0x4"/>
    </TTGlyph>
    <TTGlyph name="Ycircumflex" xMin="7" yMin="0" xMax="1116" yMax="1852">
      <component glyphName="Y" x="0" y="0" flags="0x204"/>
      <component glyphName="circumflex" x="122" y="338" flags="0x4"/>
    </TTGlyph>
    <TTGlyph name="Ycircumflex.smcp" xMin="6" yMin="0" xMax="941" yMax="1529">
      <component glyphName="Y.smcp" x="0" y="0" flags="0x204"/>
      <component glyphName="circumflex" x="31" y="15" flags="0x4"/>
    </TTGlyph>
    <TTGlyph name="Ydieresis" xMin="7" yMin="0" xMax="1116" yMax="1803">
      <component glyphName="Y" x="0" y="0" flags="0x204"/>
      <component glyphName="dieresis" x="77" y="347" flags="0x4"/>
    </TTGlyph>
    <TTGlyph name="Ydieresis.smcp" xMin="6" yMin="0" xMax="941" yMax="1480">
      <component glyphName="Y.smcp" x="0" y="0" flags="0x204"/>
      <component glyphName="dieresis" x="-12" y="24" flags="0x4"/>
    </TTGlyph>
    <TTGlyph name="Ygrave" xMin="7" yMin="0" xMax="1116" yMax="1824">
      <component glyphName="Y" x="0" y="0" flags="0x204"/>
      <component glyphName="grave" x="166" y="347" flags="0x4"/>
    </TTGlyph>
    <TTGlyph name="Z" xMin="60" yMin="0" xMax="945" yMax="1456">
      <contour>
        <pt x="386" y="227" on="1"/>
        <pt x="945" y="227" on="1"/>
        <pt x="945" y="0" on="1"/>
        <pt x="66" y="0" on="1"/>
        <pt x="66" y="143" on="1"/>
        <pt x="612" y="1229" on="1"/>
        <pt x="60" y="1229" on="1"/>
        <pt x="60" y="1456" on="1"/>
        <pt x="936" y="1456" on="1"/>
        <pt x="936" y="1318" on="1"/>
      </contour>
    </TTGlyph>
    <TTGlyph name="Z.smcp" xMin="64" yMin="0" xMax="885" yMax="1165">
      <contour>
        <pt x="409" y="225" on="1"/>
        <pt x="885" y="225" on="1"/>
        <pt x="885" y="0" on="1"/>
        <pt x="64" y="0" on="1"/>
        <pt x="64" y="116" on="1"/>
        <pt x="534" y="939" on="1"/>
        <pt x="91" y="939" on="1"/>
        <pt x="91" y="1165" on="1"/>
        <pt x="883" y="1165" on="1"/>
        <pt x="883" y="1053" on="1"/>
      </contour>
    </TTGlyph>
    <TTGlyph name="Zacute" xMin="60" yMin="0" xMax="945" yMax="1828">
      <component glyphName="Z" x="0" y="0" flags="0x204"/>
      <component glyphName="acute" x="253" y="350" flags="0x4"/>
    </TTGlyph>
    <TTGlyph name="Zacute.smcp" xMin="64" yMin="0" xMax="885" yMax="1505">
      <component glyphName="Z.smcp" x="0" y="0" flags="0x204"/>
      <component glyphName="acute" x="247" y="27" flags="0x4"/>
    </TTGlyph>
    <TTGlyph name="Zcaron" xMin="60" yMin="0" xMax="945" yMax="1874">
      <component glyphName="Z" x="0" y="0" flags="0x204"/>
      <component glyphName="caron" x="71" y="352" flags="0x4"/>
    </TTGlyph>
    <TTGlyph name="Zcaron.smcp" xMin="64" yMin="0" xMax="885" yMax="1551">
      <component glyphName="Z.smcp" x="0" y="0" flags="0x204"/>
      <component glyphName="caron" x="65" y="29" flags="0x4"/>
    </TTGlyph>
    <TTGlyph name="Zdotaccent" xMin="60" yMin="0" xMax="945" yMax="1850">
      <component glyphName="Z" x="0" y="0" flags="0x204"/>
      <component glyphName="dotaccent" x="220" y="380" flags="0x4"/>
    </TTGlyph>
    <TTGlyph name="Zdotaccent.smcp" xMin="64" yMin="0" xMax="885" yMax="1527">
      <component glyphName="Z.smcp" x="0" y="0" flags="0x204"/>
      <component glyphName="dotaccent" x="214" y="57" flags="0x4"/>
    </TTGlyph>
    <TTGlyph name="Zeta" xMin="60" yMin="0" xMax="945" yMax="1456">
      <component glyphName="Z" x="0" y="0" flags="0x204"/>
    </TTGlyph>
    <TTGlyph name="a" xMin="57" yMin="-21" xMax="901" yMax="1102">
      <contour>
        <pt x="619" y="0" on="1"/>
        <pt x="607" y="27" on="0"/>
        <pt x="588" y="91" on="0"/>
        <pt x="583" y="124" on="1"/>
        <pt x="543" y="58" on="0"/>
        <pt x="428" y="-21" on="0"/>
        <pt x="352" y="-21" on="1"/>
        <pt x="218" y="-21" on="0"/>
        <pt x="57" y="155" on="0"/>
        <pt x="57" y="302" on="1"/>
        <pt x="57" y="461" on="0"/>
        <pt x="262" y="637" on="0"/>
        <pt x="464" y="637" on="1"/>
        <pt x="571" y="637" on="1"/>
        <pt x="571" y="725" on="1"/>
        <pt x="571" y="804" on="0"/>
        <pt x="514" y="889" on="0"/>
        <pt x="457" y="889" on="1"/>
        <pt x="409" y="889" on="0"/>
        <pt x="361" y="821" on="0"/>
        <pt x="361" y="756" on="1"/>
        <pt x="86" y="757" on="1"/>
        <pt x="83" y="763" on="1"/>
        <pt x="78" y="904" on="0"/>
        <pt x="297" y="1102" on="0"/>
        <pt x="476" y="1102" on="1"/>
        <pt x="645" y="1102" on="0"/>
        <pt x="856" y="905" on="0"/>
        <pt x="856" y="723" on="1"/>
        <pt x="856" y="285" on="1"/>
        <pt x="856" y="205" on="0"/>
        <pt x="878" y="67" on="0"/>
        <pt x="901" y="0" on="1"/>
      </contour>
      <contour>
        <pt x="434" y="193" on="1"/>
        <pt x="477" y="193" on="0"/>
        <pt x="550" y="239" on="0"/>
        <pt x="571" y="275" on="1"/>
        <pt x="571" y="474" on="1"/>
        <pt x="464" y="474" on="1"/>
        <pt x="399" y="474" on="0"/>
        <pt x="341" y="384" on="0"/>
        <pt x="341" y="315" on="1"/>
        <pt x="341" y="261" on="0"/>
        <pt x="391" y="193" on="0"/>
      </contour>
    </TTGlyph>
    <TTGlyph name="aacute" xMin="57" yMin="-21" xMax="901" yMax="1504">
      <component glyphName="a" x="0" y="0" flags="0x204"/>
      <component glyphName="acute" x="222" y="26" flags="0x4"/>
    </TTGlyph>
    <TTGlyph name="abreve" xMin="57" yMin="-21" xMax="901" yMax="1575">
      <component glyphName="a" x="0" y="0" flags="0x204"/>
      <component glyphName="breve" x="54" y="119" flags="0x4"/>
    </TTGlyph>
    <TTGlyph name="acircumflex" xMin="57" yMin="-21" xMax="901" yMax="1531">
      <component glyphName="a" x="0" y="0" flags="0x204"/>
      <component glyphName="circumflex" x="19" y="17" flags="0x4"/>
    </TTGlyph>
    <TTGlyph name="acute" xMin="100" yMin="1212" xMax="578" yMax="1478">
      <contour>
        <pt x="276" y="1478" on="1"/>
        <pt x="575" y="1478" on="1"/>
        <pt x="578" y="1472" on="1"/>
        <pt x="329" y="1212" on="1"/>
        <pt x="100" y="1212" on="1"/>
      </contour>
    </TTGlyph>
    <TTGlyph name="acutecomb" xMin="-687" yMin="1202" xMax="-354" yMax="1505">
      <contour>
        <pt x="-573" y="1505" on="1"/>
        <pt x="-354" y="1505" on="1"/>
        <pt x="-521" y="1202" on="1"/>
        <pt x="-687" y="1202" on="1"/>
      </contour>
    </TTGlyph>
    <TTGlyph name="adieresis" xMin="57" yMin="-21" xMax="901" yMax="1482">
      <component glyphName="a" x="0" y="0" flags="0x204"/>
      <component glyphName="dieresis" x="-24" y="26" flags="0x4"/>
    </TTGlyph>
    <TTGlyph name="ae" xMin="41" yMin="-21" xMax="1430" yMax="1102">
      <contour>
        <pt x="1057" y="-21" on="1"/>
        <pt x="949" y="-21" on="0"/>
        <pt x="781" y="55" on="0"/>
        <pt x="723" y="127" on="1"/>
        <pt x="671" y="62" on="0"/>
        <pt x="504" y="-21" on="0"/>
        <pt x="391" y="-21" on="1"/>
        <pt x="223" y="-21" on="0"/>
        <pt x="41" y="160" on="0"/>
        <pt x="41" y="317" on="1"/>
        <pt x="41" y="476" on="0"/>
        <pt x="262" y="649" on="0"/>
        <pt x="474" y="649" on="1"/>
        <pt x="610" y="649" on="1"/>
        <pt x="610" y="705" on="1"/>
        <pt x="610" y="784" on="0"/>
        <pt x="550" y="874" on="0"/>
        <pt x="497" y="874" on="1"/>
        <pt x="440" y="874" on="0"/>
        <pt x="375" y="800" on="0"/>
        <pt x="375" y="745" on="1"/>
        <pt x="100" y="762" on="1"/>
        <pt x="98" y="768" on="1"/>
        <pt x="93" y="913" on="0"/>
        <pt x="316" y="1102" on="0"/>
        <pt x="500" y="1102" on="1"/>
        <pt x="583" y="1102" on="0"/>
        <pt x="723" y="1055" on="0"/>
        <pt x="774" y="1010" on="1"/>
        <pt x="825" y="1054" on="0"/>
        <pt x="959" y="1102" on="0"/>
        <pt x="1041" y="1102" on="1"/>
        <pt x="1222" y="1102" on="0"/>
        <pt x="1430" y="840" on="0"/>
        <pt x="1430" y="615" on="1"/>
        <pt x="1430" y="455" on="1"/>
        <pt x="895" y="455" on="1"/>
        <pt x="900" y="338" on="0"/>
        <pt x="993" y="206" on="0"/>
        <pt x="1091" y="206" on="1"/>
        <pt x="1168" y="206" on="0"/>
        <pt x="1269" y="243" on="0"/>
        <pt x="1334" y="284" on="1"/>
        <pt x="1405" y="101" on="1"/>
        <pt x="1352" y="52" on="0"/>
        <pt x="1163" y="-21" on="0"/>
      </contour>
      <contour>
        <pt x="446" y="184" on="1"/>
        <pt x="487" y="184" on="0"/>
        <pt x="581" y="238" on="0"/>
        <pt x="610" y="276" on="1"/>
        <pt x="610" y="466" on="1"/>
        <pt x="476" y="466" on="1"/>
        <pt x="405" y="466" on="0"/>
        <pt x="324" y="377" on="0"/>
        <pt x="324" y="313" on="1"/>
        <pt x="324" y="252" on="0"/>
        <pt x="384" y="184" on="0"/>
      </contour>
      <contour>
        <pt x="1041" y="874" on="1"/>
        <pt x="968" y="874" on="0"/>
        <pt x="902" y="754" on="0"/>
        <pt x="896" y="644" on="1"/>
        <pt x="1153" y="644" on="1"/>
        <pt x="1153" y="671" on="1"/>
        <pt x="1153" y="765" on="0"/>
        <pt x="1097" y="874" on="0"/>
      </contour>
    </TTGlyph>
    <TTGlyph name="aeacute" xMin="41" yMin="-21" xMax="1430" yMax="1505">
      <component glyphName="ae" x="0" y="0" flags="0x204"/>
      <component glyphName="acute" x="494" y="27" flags="0x4"/>
    </TTGlyph>
    <TTGlyph name="agrave" xMin="57" yMin="-21" xMax="901" yMax="1503">
      <component glyphName="a" x="0" y="0" flags="0x204"/>
      <component glyphName="grave" x="63" y="26" flags="0x4"/>
    </TTGlyph>
    <TTGlyph name="alpha" xMin="61" yMin="-21" xMax="980" yMax="1102">
      <contour>
        <pt x="892" y="1081" on="1"/>
        <pt x="892" y="348" on="1"/>
        <pt x="892" y="271" on="0"/>
        <pt x="917" y="210" on="0"/>
        <pt x="946" y="210" on="1"/>
        <pt x="950" y="210" on="0"/>
        <pt x="956" y="211" on="0"/>
        <pt x="958" y="214" on="1"/>
        <pt x="980" y="2" on="1"/>
        <pt x="952" y="-11" on="0"/>
        <pt x="902" y="-21" on="0"/>
        <pt x="869" y="-21" on="1"/>
        <pt x="788" y="-21" on="0"/>
        <pt x="673" y="55" on="0"/>
        <pt x="642" y="132" on="1"/>
        <pt x="603" y="57" on="0"/>
        <pt x="493" y="-21" on="0"/>
        <pt x="419" y="-21" on="1"/>
        <pt x="248" y="-21" on="0"/>
        <pt x="61" y="272" on="0"/>
        <pt x="61" y="514" on="1"/>
        <pt x="61" y="535" on="1"/>
        <pt x="61" y="790" on="0"/>
        <pt x="248" y="1102" on="0"/>
        <pt x="420" y="1102" on="1"/>
        <pt x="486" y="1102" on="0"/>
        <pt x="588" y="1034" on="0"/>
        <pt x="626" y="971" on="1"/>
        <pt x="644" y="1081" on="1"/>
      </contour>
      <contour>
        <pt x="346" y="514" on="1"/>
        <pt x="346" y="368" on="0"/>
        <pt x="412" y="206" on="0"/>
        <pt x="492" y="206" on="1"/>
        <pt x="532" y="206" on="0"/>
        <pt x="590" y="242" on="0"/>
        <pt x="610" y="278" on="1"/>
        <pt x="608" y="294" on="0"/>
        <pt x="607" y="329" on="0"/>
        <pt x="607" y="348" on="1"/>
        <pt x="607" y="796" on="1"/>
        <pt x="587" y="833" on="0"/>
        <pt x="531" y="874" on="0"/>
        <pt x="494" y="874" on="1"/>
        <pt x="415" y="874" on="0"/>
        <pt x="346" y="689" on="0"/>
        <pt x="346" y="535" on="1"/>
      </contour>
    </TTGlyph>
    <TTGlyph name="alpha.alt" xMin="61" yMin="-21" xMax="960" yMax="1102">
      <contour>
        <pt x="695" y="136" on="1"/>
        <pt x="650" y="59" on="0"/>
        <pt x="522" y="-21" on="0"/>
        <pt x="435" y="-21" on="1"/>
        <pt x="256" y="-21" on="0"/>
        <pt x="61" y="272" on="0"/>
        <pt x="61" y="514" on="1"/>
        <pt x="61" y="535" on="1"/>
        <pt x="61" y="790" on="0"/>
        <pt x="257" y="1102" on="0"/>
        <pt x="436" y="1102" on="1"/>
        <pt x="520" y="1102" on="0"/>
        <pt x="646" y="1021" on="0"/>
        <pt x="691" y="946" on="1"/>
        <pt x="707" y="1082" on="1"/>
        <pt x="954" y="1082" on="1"/>
        <pt x="860" y="540" on="1"/>
        <pt x="960" y="0" on="1"/>
        <pt x="713" y="0" on="1"/>
      </contour>
      <contour>
        <pt x="346" y="514" on="1"/>
        <pt x="346" y="368" on="0"/>
        <pt x="412" y="206" on="0"/>
        <pt x="492" y="206" on="1"/>
        <pt x="570" y="206" on="0"/>
        <pt x="641" y="364" on="0"/>
        <pt x="642" y="489" on="1"/>
        <pt x="642" y="562" on="1"/>
        <pt x="641" y="695" on="0"/>
        <pt x="569" y="871" on="0"/>
        <pt x="497" y="867" on="1"/>
        <pt x="491" y="867" on="1"/>
        <pt x="414" y="871" on="0"/>
        <pt x="346" y="689" on="0"/>
        <pt x="346" y="535" on="1"/>
      </contour>
    </TTGlyph>
    <TTGlyph name="alphatonos" xMin="61" yMin="-21" xMax="980" yMax="1560">
      <component glyphName="alpha" x="0" y="0" flags="0x204"/>
      <component glyphName="tonos" x="201" y="-63" flags="0x4"/>
    </TTGlyph>
    <TTGlyph name="amacron" xMin="57" yMin="-21" xMax="901" yMax="1457">
      <component glyphName="a" x="0" y="0" flags="0x204"/>
      <component glyphName="macron" x="-3" y="0" flags="0x4"/>
    </TTGlyph>
    <TTGlyph name="ampersand" xMin="59" yMin="-21" xMax="1186" yMax="1477">
      <contour>
        <pt x="59" y="388" on="1"/>
        <pt x="59" y="506" on="0"/>
        <pt x="174" y="677" on="0"/>
        <pt x="292" y="770" on="1"/>
        <pt x="230" y="864" on="0"/>
        <pt x="170" y="1017" on="0"/>
        <pt x="170" y="1097" on="1"/>
        <pt x="170" y="1268" on="0"/>
        <pt x="367" y="1477" on="0"/>
        <pt x="531" y="1477" on="1"/>
        <pt x="673" y="1477" on="0"/>
        <pt x="854" y="1280" on="0"/>
        <pt x="854" y="1140" on="1"/>
        <pt x="854" y="1043" on="0"/>
        <pt x="767" y="882" on="0"/>
        <pt x="693" y="823" on="1"/>
        <pt x="612" y="758" on="1"/>
        <pt x="842" y="454" on="1"/>
        <pt x="848" y="455" on="1"/>
        <pt x="875" y="507" on="0"/>
        <pt x="906" y="638" on="0"/>
        <pt x="906" y="711" on="1"/>
        <pt x="1114" y="711" on="1"/>
        <pt x="1114" y="573" on="0"/>
        <pt x="1055" y="344" on="0"/>
        <pt x="992" y="255" on="1"/>
        <pt x="1186" y="0" on="1"/>
        <pt x="864" y="0" on="1"/>
        <pt x="800" y="84" on="1"/>
        <pt x="725" y="31" on="0"/>
        <pt x="570" y="-21" on="0"/>
        <pt x="481" y="-21" on="1"/>
        <pt x="288" y="-21" on="0"/>
        <pt x="59" y="205" on="0"/>
      </contour>
      <contour>
        <pt x="498" y="206" on="1"/>
        <pt x="542" y="206" on="0"/>
        <pt x="630" y="230" on="0"/>
        <pt x="671" y="255" on="1"/>
        <pt x="412" y="599" on="1"/>
        <pt x="405" y="593" on="1"/>
        <pt x="370" y="545" on="0"/>
        <pt x="345" y="454" on="0"/>
        <pt x="345" y="406" on="1"/>
        <pt x="345" y="319" on="0"/>
        <pt x="432" y="206" on="0"/>
      </contour>
      <contour>
        <pt x="423" y="1100" on="1"/>
        <pt x="423" y="1059" on="0"/>
        <pt x="458" y="973" on="0"/>
        <pt x="493" y="922" on="1"/>
        <pt x="552" y="966" on="1"/>
        <pt x="602" y="1002" on="0"/>
        <pt x="636" y="1077" on="0"/>
        <pt x="636" y="1122" on="1"/>
        <pt x="636" y="1172" on="0"/>
        <pt x="577" y="1249" on="0"/>
        <pt x="530" y="1249" on="1"/>
        <pt x="478" y="1249" on="0"/>
        <pt x="423" y="1164" on="0"/>
      </contour>
    </TTGlyph>
    <TTGlyph name="anoteleia" xMin="140" yMin="560" xMax="418" yMax="822">
      <component glyphName="periodcentered" x="0" y="0" flags="0x4"/>
    </TTGlyph>
    <TTGlyph name="aogonek" xMin="57" yMin="-415" xMax="916" yMax="1102">
      <component glyphName="a" x="0" y="0" flags="0x204"/>
      <component glyphName="ogonek" x="451" y="0" flags="0x4"/>
    </TTGlyph>
    <TTGlyph name="approxequal" xMin="94" yMin="238" xMax="925" yMax="1023">
      <contour>
        <pt x="102" y="873" on="1"/>
        <pt x="142" y="941" on="0"/>
        <pt x="246" y="1019" on="0"/>
        <pt x="302" y="1019" on="1"/>
        <pt x="361" y="1021" on="0"/>
        <pt x="446" y="986" on="0"/>
        <pt x="515" y="946" on="1"/>
        <pt x="576" y="909" on="0"/>
        <pt x="658" y="877" on="0"/>
        <pt x="715" y="877" on="1"/>
        <pt x="770" y="877" on="0"/>
        <pt x="874" y="954" on="0"/>
        <pt x="915" y="1023" on="1"/>
        <pt x="925" y="815" on="1"/>
        <pt x="884" y="745" on="0"/>
        <pt x="779" y="669" on="0"/>
        <pt x="725" y="669" on="1"/>
        <pt x="667" y="669" on="0"/>
        <pt x="585" y="701" on="0"/>
        <pt x="525" y="738" on="1"/>
        <pt x="453" y="779" on="0"/>
        <pt x="370" y="813" on="0"/>
        <pt x="310" y="811" on="1"/>
        <pt x="254" y="811" on="0"/>
        <pt x="150" y="733" on="0"/>
        <pt x="110" y="665" on="1"/>
      </contour>
      <contour>
        <pt x="94" y="447" on="1"/>
        <pt x="134" y="515" on="0"/>
        <pt x="238" y="593" on="0"/>
        <pt x="293" y="593" on="1"/>
        <pt x="353" y="595" on="0"/>
        <pt x="437" y="561" on="0"/>
        <pt x="507" y="520" on="1"/>
        <pt x="570" y="482" on="0"/>
        <pt x="650" y="450" on="0"/>
        <pt x="707" y="450" on="1"/>
        <pt x="761" y="450" on="0"/>
        <pt x="866" y="528" on="0"/>
        <pt x="907" y="597" on="1"/>
        <pt x="916" y="388" on="1"/>
        <pt x="875" y="319" on="0"/>
        <pt x="771" y="242" on="0"/>
        <pt x="716" y="242" on="1"/>
        <pt x="659" y="242" on="0"/>
        <pt x="577" y="274" on="0"/>
        <pt x="516" y="311" on="1"/>
        <pt x="446" y="352" on="0"/>
        <pt x="361" y="386" on="0"/>
        <pt x="301" y="384" on="1"/>
        <pt x="246" y="384" on="0"/>
        <pt x="141" y="306" on="0"/>
        <pt x="101" y="238" on="1"/>
      </contour>
    </TTGlyph>
    <TTGlyph name="aring" xMin="57" yMin="-21" xMax="901" yMax="1607">
      <component glyphName="a" x="0" y="0" flags="0x204"/>
      <component glyphName="ring" x="157" y="118" flags="0x4"/>
    </TTGlyph>
    <TTGlyph name="aringacute" xMin="57" yMin="-21" xMax="901" yMax="1826">
      <component glyphName="a" x="0" y="0" flags="0x204"/>
      <component glyphName="ringacute" x="162" y="72" flags="0x4"/>
    </TTGlyph>
    <TTGlyph name="asciicircum" xMin="38" yMin="729" xMax="750" yMax="1456">
      <contour>
        <pt x="257" y="729" on="1"/>
        <pt x="38" y="729" on="1"/>
        <pt x="291" y="1456" on="1"/>
        <pt x="497" y="1456" on="1"/>
        <pt x="750" y="729" on="1"/>
        <pt x="531" y="729" on="1"/>
        <pt x="397" y="1151" on="1"/>
        <pt x="395" y="1159" on="1"/>
        <pt x="389" y="1159" on="1"/>
        <pt x="388" y="1151" on="1"/>
      </contour>
    </TTGlyph>
    <TTGlyph name="asciitilde" xMin="89" yMin="378" xMax="1030" yMax="825">
      <contour>
        <pt x="1030" y="761" on="1"/>
        <pt x="1030" y="597" on="0"/>
        <pt x="877" y="378" on="0"/>
        <pt x="760" y="378" on="1"/>
        <pt x="689" y="378" on="0"/>
        <pt x="568" y="442" on="0"/>
        <pt x="504" y="512" on="1"/>
        <pt x="464" y="557" on="0"/>
        <pt x="408" y="596" on="0"/>
        <pt x="373" y="596" on="1"/>
        <pt x="335" y="596" on="0"/>
        <pt x="282" y="493" on="0"/>
        <pt x="282" y="418" on="1"/>
        <pt x="89" y="444" on="1"/>
        <pt x="89" y="609" on="0"/>
        <pt x="238" y="825" on="0"/>
        <pt x="357" y="825" on="1"/>
        <pt x="426" y="825" on="0"/>
        <pt x="553" y="758" on="0"/>
        <pt x="615" y="693" on="1"/>
        <pt x="652" y="647" on="0"/>
        <pt x="710" y="608" on="0"/>
        <pt x="744" y="608" on="1"/>
        <pt x="781" y="608" on="0"/>
        <pt x="836" y="713" on="0"/>
        <pt x="836" y="789" on="1"/>
      </contour>
    </TTGlyph>
    <TTGlyph name="asterisk" xMin="31" yMin="579" xMax="790" yMax="1456">
      <contour>
        <pt x="295" y="966" on="1"/>
        <pt x="31" y="1058" on="1"/>
        <pt x="84" y="1231" on="1"/>
        <pt x="344" y="1104" on="1"/>
        <pt x="325" y="1456" on="1"/>
        <pt x="503" y="1456" on="1"/>
        <pt x="484" y="1098" on="1"/>
        <pt x="737" y="1223" on="1"/>
        <pt x="790" y="1048" on="1"/>
        <pt x="522" y="955" on="1"/>
        <pt x="698" y="686" on="1"/>
        <pt x="554" y="579" on="1"/>
        <pt x="405" y="873" on="1"/>
        <pt x="255" y="588" on="1"/>
        <pt x="112" y="691" on="1"/>
      </contour>
    </TTGlyph>
    <TTGlyph name="at" xMin="40" yMin="-453" xMax="1550" yMax="1414">
      <contour>
        <pt x="1536" y="516" on="1"/>
        <pt x="1528" y="297" on="0"/>
        <pt x="1313" y="-21" on="0"/>
        <pt x="1099" y="-21" on="1"/>
        <pt x="1027" y="-21" on="0"/>
        <pt x="924" y="68" on="0"/>
        <pt x="903" y="150" on="1"/>
        <pt x="865" y="65" on="0"/>
        <pt x="754" y="-18" on="0"/>
        <pt x="680" y="-18" on="1"/>
        <pt x="552" y="-18" on="0"/>
        <pt x="415" y="220" on="0"/>
        <pt x="433" y="416" on="1"/>
        <pt x="455" y="668" on="0"/>
        <pt x="666" y="972" on="0"/>
        <pt x="816" y="972" on="1"/>
        <pt x="922" y="972" on="0"/>
        <pt x="1052" y="920" on="0"/>
        <pt x="1129" y="866" on="1"/>
        <pt x="1126" y="862" on="1"/>
        <pt x="1131" y="862" on="1"/>
        <pt x="1085" y="293" on="1"/>
        <pt x="1080" y="196" on="0"/>
        <pt x="1110" y="126" on="0"/>
        <pt x="1136" y="133" on="1"/>
        <pt x="1142" y="132" on="1"/>
        <pt x="1238" y="127" on="0"/>
        <pt x="1355" y="347" on="0"/>
        <pt x="1363" y="516" on="1"/>
        <pt x="1376" y="866" on="0"/>
        <pt x="1112" y="1259" on="0"/>
        <pt x="836" y="1259" on="1"/>
        <pt x="570" y="1259" on="0"/>
        <pt x="258" y="838" on="0"/>
        <pt x="246" y="478" on="1"/>
        <pt x="230" y="126" on="0"/>
        <pt x="514" y="-285" on="0"/>
        <pt x="779" y="-285" on="1"/>
        <pt x="854" y="-285" on="0"/>
        <pt x="1014" y="-246" on="0"/>
        <pt x="1072" y="-216" on="1"/>
        <pt x="1107" y="-364" on="1"/>
        <pt x="1047" y="-406" on="0"/>
        <pt x="864" y="-453" on="0"/>
        <pt x="776" y="-453" on="1"/>
        <pt x="423" y="-453" on="0"/>
        <pt x="40" y="45" on="0"/>
        <pt x="56" y="478" on="1"/>
        <pt x="71" y="906" on="0"/>
        <pt x="493" y="1414" on="0"/>
        <pt x="840" y="1414" on="1"/>
        <pt x="1182" y="1414" on="0"/>
        <pt x="1550" y="932" on="0"/>
      </contour>
      <contour>
        <pt x="649" y="416" on="1"/>
        <pt x="641" y="289" on="0"/>
        <pt x="688" y="155" on="0"/>
        <pt x="740" y="155" on="1"/>
        <pt x="786" y="155" on="0"/>
        <pt x="861" y="212" on="0"/>
        <pt x="890" y="287" on="1"/>
        <pt x="890" y="293" on="1"/>
        <pt x="929" y="789" on="1"/>
        <pt x="910" y="794" on="0"/>
        <pt x="873" y="801" on="0"/>
        <pt x="854" y="801" on="1"/>
        <pt x="759" y="801" on="0"/>
        <pt x="664" y="611" on="0"/>
      </contour>
    </TTGlyph>
    <TTGlyph name="atilde" xMin="57" yMin="-21" xMax="901" yMax="1577">
      <component glyphName="a" x="0" y="0" flags="0x204"/>
      <component glyphName="tilde" x="31" y="51" flags="0x4"/>
    </TTGlyph>
    <TTGlyph name="b" xMin="92" yMin="-21" xMax="940" yMax="1560">
      <contour>
        <pt x="940" y="458" on="1"/>
        <pt x="940" y="239" on="0"/>
        <pt x="759" y="-21" on="0"/>
        <pt x="584" y="-21" on="1"/>
        <pt x="508" y="-21" on="0"/>
        <pt x="395" y="49" on="0"/>
        <pt x="355" y="116" on="1"/>
        <pt x="338" y="0" on="1"/>
        <pt x="92" y="0" on="1"/>
        <pt x="92" y="1560" on="1"/>
        <pt x="376" y="1560" on="1"/>
        <pt x="376" y="990" on="1"/>
        <pt x="414" y="1044" on="0"/>
        <pt x="517" y="1102" on="0"/>
        <pt x="582" y="1102" on="1"/>
        <pt x="758" y="1102" on="0"/>
        <pt x="940" y="831" on="0"/>
        <pt x="940" y="605" on="1"/>
      </contour>
      <contour>
        <pt x="657" y="605" on="1"/>
        <pt x="657" y="732" on="0"/>
        <pt x="594" y="874" on="0"/>
        <pt x="509" y="874" on="1"/>
        <pt x="463" y="874" on="0"/>
        <pt x="397" y="828" on="0"/>
        <pt x="376" y="786" on="1"/>
        <pt x="376" y="281" on="1"/>
        <pt x="396" y="244" on="0"/>
        <pt x="463" y="207" on="0"/>
        <pt x="510" y="207" on="1"/>
        <pt x="596" y="207" on="0"/>
        <pt x="657" y="334" on="0"/>
        <pt x="657" y="458" on="1"/>
      </contour>
    </TTGlyph>
    <TTGlyph name="backslash" xMin="0" yMin="-125" xMax="795" yMax="1456">
      <contour>
        <pt x="0" y="1456" on="1"/>
        <pt x="280" y="1456" on="1"/>
        <pt x="795" y="-125" on="1"/>
        <pt x="513" y="-125" on="1"/>
      </contour>
    </TTGlyph>
    <TTGlyph name="bar" xMin="153" yMin="-270" xMax="316" yMax="1456">
      <contour>
        <pt x="316" y="-270" on="1"/>
        <pt x="153" y="-270" on="1"/>
        <pt x="153" y="1456" on="1"/>
        <pt x="316" y="1456" on="1"/>
      </contour>
    </TTGlyph>
    <TTGlyph name="beta" xMin="120" yMin="-409" xMax="1006" yMax="1477">
      <contour>
        <pt x="546" y="1477" on="1"/>
        <pt x="734" y="1477" on="0"/>
        <pt x="956" y="1268" on="0"/>
        <pt x="956" y="1083" on="1"/>
        <pt x="956" y="982" on="0"/>
        <pt x="865" y="815" on="0"/>
        <pt x="786" y="767" on="1"/>
        <pt x="891" y="724" on="0"/>
        <pt x="1006" y="539" on="0"/>
        <pt x="1006" y="409" on="1"/>
        <pt x="1006" y="204" on="0"/>
        <pt x="806" y="-21" on="0"/>
        <pt x="630" y="-21" on="1"/>
        <pt x="571" y="-21" on="0"/>
        <pt x="453" y="12" on="0"/>
        <pt x="403" y="45" on="1"/>
        <pt x="403" y="-409" on="1"/>
        <pt x="120" y="-409" on="1"/>
        <pt x="120" y="1030" on="1"/>
        <pt x="120" y="1228" on="0"/>
        <pt x="366" y="1477" on="0"/>
      </contour>
      <contour>
        <pt x="543" y="853" on="1"/>
        <pt x="610" y="853" on="0"/>
        <pt x="673" y="959" on="0"/>
        <pt x="673" y="1061" on="1"/>
        <pt x="673" y="1139" on="0"/>
        <pt x="606" y="1249" on="0"/>
        <pt x="546" y="1249" on="1"/>
        <pt x="482" y="1249" on="0"/>
        <pt x="403" y="1129" on="0"/>
        <pt x="403" y="1030" on="1"/>
        <pt x="403" y="253" on="1"/>
        <pt x="432" y="230" on="0"/>
        <pt x="512" y="206" on="0"/>
        <pt x="561" y="206" on="1"/>
        <pt x="634" y="206" on="0"/>
        <pt x="721" y="322" on="0"/>
        <pt x="721" y="414" on="1"/>
        <pt x="721" y="526" on="0"/>
        <pt x="640" y="647" on="0"/>
        <pt x="564" y="647" on="1"/>
        <pt x="493" y="647" on="1"/>
        <pt x="493" y="853" on="1"/>
      </contour>
    </TTGlyph>
    <TTGlyph name="braceleft" xMin="44" yMin="-366" xMax="543" yMax="1597">
      <contour>
        <pt x="490" y="-366" on="1"/>
        <pt x="323" y="-311" on="0"/>
        <pt x="181" y="-71" on="0"/>
        <pt x="181" y="99" on="1"/>
        <pt x="181" y="305" on="1"/>
        <pt x="181" y="403" on="0"/>
        <pt x="113" y="514" on="0"/>
        <pt x="44" y="514" on="1"/>
        <pt x="44" y="716" on="1"/>
        <pt x="113" y="716" on="0"/>
        <pt x="181" y="826" on="0"/>
        <pt x="181" y="925" on="1"/>
        <pt x="181" y="1132" on="1"/>
        <pt x="181" y="1303" on="0"/>
        <pt x="323" y="1542" on="0"/>
        <pt x="490" y="1597" on="1"/>
        <pt x="543" y="1440" on="1"/>
        <pt x="481" y="1409" on="0"/>
        <pt x="433" y="1252" on="0"/>
        <pt x="433" y="1132" on="1"/>
        <pt x="433" y="925" on="1"/>
        <pt x="433" y="821" on="0"/>
        <pt x="351" y="660" on="0"/>
        <pt x="268" y="615" on="1"/>
        <pt x="350" y="569" on="0"/>
        <pt x="433" y="408" on="0"/>
        <pt x="433" y="305" on="1"/>
        <pt x="433" y="99" on="1"/>
        <pt x="433" y="-21" on="0"/>
        <pt x="480" y="-177" on="0"/>
        <pt x="543" y="-208" on="1"/>
      </contour>
    </TTGlyph>
    <TTGlyph name="braceright" xMin="42" yMin="-366" xMax="543" yMax="1597">
      <contour>
        <pt x="42" y="-208" on="1"/>
        <pt x="104" y="-177" on="0"/>
        <pt x="154" y="-21" on="0"/>
        <pt x="154" y="99" on="1"/>
        <pt x="154" y="305" on="1"/>
        <pt x="154" y="409" on="0"/>
        <pt x="236" y="570" on="0"/>
        <pt x="321" y="615" on="1"/>
        <pt x="236" y="659" on="0"/>
        <pt x="154" y="820" on="0"/>
        <pt x="154" y="925" on="1"/>
        <pt x="154" y="1132" on="1"/>
        <pt x="154" y="1252" on="0"/>
        <pt x="104" y="1409" on="0"/>
        <pt x="42" y="1440" on="1"/>
        <pt x="95" y="1597" on="1"/>
        <pt x="261" y="1542" on="0"/>
        <pt x="404" y="1303" on="0"/>
        <pt x="404" y="1132" on="1"/>
        <pt x="404" y="925" on="1"/>
        <pt x="404" y="825" on="0"/>
        <pt x="471" y="716" on="0"/>
        <pt x="543" y="716" on="1"/>
        <pt x="543" y="514" on="1"/>
        <pt x="471" y="514" on="0"/>
        <pt x="404" y="404" on="0"/>
        <pt x="404" y="305" on="1"/>
        <pt x="404" y="99" on="1"/>
        <pt x="404" y="-71" on="0"/>
        <pt x="261" y="-311" on="0"/>
        <pt x="95" y="-366" on="1"/>
      </contour>
    </TTGlyph>
    <TTGlyph name="bracketleft" xMin="106" yMin="-339" xMax="505" yMax="1695">
      <contour>
        <pt x="505" y="1478" on="1"/>
        <pt x="393" y="1478" on="1"/>
        <pt x="393" y="-123" on="1"/>
        <pt x="505" y="-123" on="1"/>
        <pt x="505" y="-339" on="1"/>
        <pt x="106" y="-339" on="1"/>
        <pt x="106" y="1695" on="1"/>
        <pt x="505" y="1695" on="1"/>
      </contour>
    </TTGlyph>
    <TTGlyph name="bracketright" xMin="21" yMin="-339" xMax="420" yMax="1695">
      <contour>
        <pt x="21" y="1695" on="1"/>
        <pt x="420" y="1695" on="1"/>
        <pt x="420" y="-339" on="1"/>
        <pt x="21" y="-339" on="1"/>
        <pt x="21" y="-123" on="1"/>
        <pt x="135" y="-123" on="1"/>
        <pt x="135" y="1478" on="1"/>
        <pt x="21" y="1478" on="1"/>
      </contour>
    </TTGlyph>
    <TTGlyph name="breve" xMin="96" yMin="1160" xMax="729" yMax="1456">
      <contour>
        <pt x="723" y="1456" on="1"/>
        <pt x="725" y="1450" on="1"/>
        <pt x="729" y="1321" on="0"/>
        <pt x="558" y="1160" on="0"/>
        <pt x="414" y="1160" on="1"/>
        <pt x="268" y="1160" on="0"/>
        <pt x="96" y="1322" on="0"/>
        <pt x="101" y="1450" on="1"/>
        <pt x="103" y="1456" on="1"/>
        <pt x="310" y="1456" on="1"/>
        <pt x="310" y="1403" on="0"/>
        <pt x="361" y="1335" on="0"/>
        <pt x="414" y="1335" on="1"/>
        <pt x="465" y="1335" on="0"/>
        <pt x="514" y="1403" on="0"/>
        <pt x="514" y="1456" on="1"/>
      </contour>
    </TTGlyph>
    <TTGlyph name="breveacutecomb" xMin="91" yMin="1207" xMax="702" yMax="1680">
      <contour>
        <pt x="695" y="1456" on="1"/>
        <pt x="697" y="1450" on="1"/>
        <pt x="702" y="1343" on="0"/>
        <pt x="536" y="1207" on="0"/>
        <pt x="397" y="1207" on="1"/>
        <pt x="256" y="1207" on="0"/>
        <pt x="91" y="1343" on="0"/>
        <pt x="97" y="1450" on="1"/>
        <pt x="99" y="1456" on="1"/>
        <pt x="303" y="1456" on="1"/>
        <pt x="303" y="1411" on="0"/>
        <pt x="348" y="1355" on="0"/>
        <pt x="397" y="1355" on="1"/>
        <pt x="444" y="1355" on="0"/>
        <pt x="489" y="1412" on="0"/>
        <pt x="489" y="1456" on="1"/>
      </contour>
      <contour>
        <pt x="426" y="1680" on="1"/>
        <pt x="627" y="1680" on="1"/>
        <pt x="478" y="1491" on="1"/>
        <pt x="325" y="1491" on="1"/>
      </contour>
    </TTGlyph>
    <TTGlyph name="brevegravecomb" xMin="89" yMin="1161" xMax="703" yMax="1734">
      <contour>
        <pt x="697" y="1456" on="1"/>
        <pt x="699" y="1450" on="1"/>
        <pt x="703" y="1322" on="0"/>
        <pt x="536" y="1161" on="0"/>
        <pt x="397" y="1161" on="1"/>
        <pt x="256" y="1161" on="0"/>
        <pt x="89" y="1322" on="0"/>
        <pt x="94" y="1450" on="1"/>
        <pt x="96" y="1456" on="1"/>
        <pt x="285" y="1456" on="1"/>
        <pt x="285" y="1404" on="0"/>
        <pt x="339" y="1337" on="0"/>
        <pt x="397" y="1337" on="1"/>
        <pt x="453" y="1337" on="0"/>
        <pt x="508" y="1404" on="0"/>
        <pt x="508" y="1456" on="1"/>
      </contour>
      <contour>
        <pt x="523" y="1513" on="1"/>
        <pt x="306" y="1513" on="1"/>
        <pt x="133" y="1729" on="1"/>
        <pt x="136" y="1734" on="1"/>
        <pt x="389" y="1734" on="1"/>
      </contour>
    </TTGlyph>
    <TTGlyph name="brevehookcomb" xMin="91" yMin="1221" xMax="711" yMax="1814">
      <contour>
        <pt x="704" y="1456" on="1"/>
        <pt x="705" y="1450" on="1"/>
        <pt x="711" y="1349" on="0"/>
        <pt x="543" y="1221" on="0"/>
        <pt x="401" y="1221" on="1"/>
        <pt x="258" y="1221" on="0"/>
        <pt x="91" y="1349" on="0"/>
        <pt x="98" y="1450" on="1"/>
        <pt x="99" y="1456" on="1"/>
        <pt x="305" y="1456" on="1"/>
        <pt x="305" y="1414" on="0"/>
        <pt x="351" y="1360" on="0"/>
        <pt x="401" y="1360" on="1"/>
        <pt x="449" y="1360" on="0"/>
        <pt x="497" y="1414" on="0"/>
        <pt x="497" y="1456" on="1"/>
      </contour>
      <contour>
        <pt x="293" y="1498" on="1"/>
        <pt x="276" y="1602" on="1"/>
        <pt x="333" y="1604" on="0"/>
        <pt x="385" y="1629" on="0"/>
        <pt x="385" y="1655" on="1"/>
        <pt x="385" y="1686" on="0"/>
        <pt x="330" y="1711" on="0"/>
        <pt x="278" y="1711" on="1"/>
        <pt x="284" y="1814" on="1"/>
        <pt x="449" y="1814" on="0"/>
        <pt x="620" y="1735" on="0"/>
        <pt x="620" y="1663" on="1"/>
        <pt x="620" y="1612" on="0"/>
        <pt x="550" y="1555" on="0"/>
        <pt x="500" y="1549" on="1"/>
        <pt x="500" y="1498" on="1"/>
      </contour>
    </TTGlyph>
    <TTGlyph name="brevetildecomb" xMin="91" yMin="1219" xMax="700" yMax="1762">
      <contour>
        <pt x="693" y="1456" on="1"/>
        <pt x="695" y="1450" on="1"/>
        <pt x="700" y="1348" on="0"/>
        <pt x="535" y="1219" on="0"/>
        <pt x="396" y="1219" on="1"/>
        <pt x="256" y="1219" on="0"/>
        <pt x="91" y="1348" on="0"/>
        <pt x="97" y="1450" on="1"/>
        <pt x="99" y="1456" on="1"/>
        <pt x="302" y="1456" on="1"/>
        <pt x="302" y="1413" on="0"/>
        <pt x="347" y="1359" on="0"/>
        <pt x="396" y="1359" on="1"/>
        <pt x="443" y="1359" on="0"/>
        <pt x="488" y="1413" on="0"/>
        <pt x="488" y="1456" on="1"/>
      </contour>
      <contour>
        <pt x="644" y="1728" on="1"/>
        <pt x="644" y="1653" on="0"/>
        <pt x="564" y="1548" on="0"/>
        <pt x="505" y="1548" on="1"/>
        <pt x="458" y="1548" on="0"/>
        <pt x="338" y="1618" on="0"/>
        <pt x="306" y="1618" on="1"/>
        <pt x="284" y="1618" on="0"/>
        <pt x="255" y="1567" on="0"/>
        <pt x="255" y="1530" on="1"/>
        <pt x="142" y="1563" on="1"/>
        <pt x="142" y="1636" on="0"/>
        <pt x="219" y="1743" on="0"/>
        <pt x="280" y="1743" on="1"/>
        <pt x="314" y="1743" on="0"/>
        <pt x="443" y="1674" on="0"/>
        <pt x="478" y="1674" on="1"/>
        <pt x="498" y="1674" on="0"/>
        <pt x="528" y="1724" on="0"/>
        <pt x="528" y="1762" on="1"/>
      </contour>
    </TTGlyph>
    <TTGlyph name="brokenbar" xMin="108" yMin="-270" xMax="359" yMax="1456">
      <contour>
        <pt x="108" y="-270" on="1"/>
        <pt x="108" y="521" on="1"/>
        <pt x="359" y="521" on="1"/>
        <pt x="359" y="-270" on="1"/>
      </contour>
      <contour>
        <pt x="359" y="698" on="1"/>
        <pt x="108" y="698" on="1"/>
        <pt x="108" y="1456" on="1"/>
        <pt x="359" y="1456" on="1"/>
      </contour>
    </TTGlyph>
    <TTGlyph name="bullet" xMin="126" yMin="485" xMax="565" yMax="1034">
      <contour>
        <pt x="126" y="806" on="1"/>
        <pt x="126" y="906" on="0"/>
        <pt x="245" y="1034" on="0"/>
        <pt x="344" y="1034" on="1"/>
        <pt x="445" y="1034" on="0"/>
        <pt x="565" y="907" on="0"/>
        <pt x="565" y="806" on="1"/>
        <pt x="565" y="710" on="1"/>
        <pt x="565" y="609" on="0"/>
        <pt x="446" y="485" on="0"/>
        <pt x="346" y="485" on="1"/>
        <pt x="246" y="485" on="0"/>
        <pt x="126" y="610" on="0"/>
        <pt x="126" y="710" on="1"/>
      </contour>
    </TTGlyph>
    <TTGlyph name="c" xMin="52" yMin="-21" xMax="868" yMax="1102">
      <contour>
        <pt x="487" y="206" on="1"/>
        <pt x="545" y="206" on="0"/>
        <pt x="604" y="292" on="0"/>
        <pt x="604" y="373" on="1"/>
        <pt x="862" y="373" on="1"/>
        <pt x="865" y="367" on="1"/>
        <pt x="868" y="197" on="0"/>
        <pt x="653" y="-21" on="0"/>
        <pt x="487" y="-21" on="1"/>
        <pt x="277" y="-21" on="0"/>
        <pt x="52" y="253" on="0"/>
        <pt x="52" y="470" on="1"/>
        <pt x="52" y="609" on="1"/>
        <pt x="52" y="825" on="0"/>
        <pt x="276" y="1102" on="0"/>
        <pt x="485" y="1102" on="1"/>
        <pt x="661" y="1102" on="0"/>
        <pt x="868" y="876" on="0"/>
        <pt x="865" y="684" on="1"/>
        <pt x="863" y="679" on="1"/>
        <pt x="604" y="679" on="1"/>
        <pt x="604" y="767" on="0"/>
        <pt x="545" y="874" on="0"/>
        <pt x="485" y="874" on="1"/>
        <pt x="400" y="874" on="0"/>
        <pt x="336" y="730" on="0"/>
        <pt x="336" y="609" on="1"/>
        <pt x="336" y="470" on="1"/>
        <pt x="336" y="346" on="0"/>
        <pt x="400" y="206" on="0"/>
      </contour>
    </TTGlyph>
    <TTGlyph name="cacute" xMin="52" yMin="-21" xMax="868" yMax="1504">
      <component glyphName="c" x="0" y="0" flags="0x204"/>
      <component glyphName="acute" x="210" y="26" flags="0x4"/>
    </TTGlyph>
    <TTGlyph name="caron" xMin="82" yMin="1252" xMax="770" yMax="1522">
      <contour>
        <pt x="426" y="1395" on="1"/>
        <pt x="514" y="1522" on="1"/>
        <pt x="770" y="1522" on="1"/>
        <pt x="770" y="1505" on="1"/>
        <pt x="522" y="1252" on="1"/>
        <pt x="330" y="1252" on="1"/>
        <pt x="82" y="1507" on="1"/>
        <pt x="82" y="1522" on="1"/>
        <pt x="338" y="1522" on="1"/>
      </contour>
    </TTGlyph>
    <TTGlyph name="ccaron" xMin="52" yMin="-21" xMax="868" yMax="1550">
      <component glyphName="c" x="0" y="0" flags="0x204"/>
      <component glyphName="caron" x="28" y="28" flags="0x4"/>
    </TTGlyph>
    <TTGlyph name="ccedilla" xMin="52" yMin="-462" xMax="868" yMax="1102">
      <component glyphName="c" x="0" y="0" flags="0x204"/>
      <component glyphName="cedilla" x="263" y="0" flags="0x4"/>
    </TTGlyph>
    <TTGlyph name="ccircumflex" xMin="52" yMin="-21" xMax="868" yMax="1531">
      <component glyphName="c" x="0" y="0" flags="0x204"/>
      <component glyphName="circumflex" x="7" y="17" flags="0x4"/>
    </TTGlyph>
    <TTGlyph name="cedilla" xMin="83" yMin="-462" xMax="436" yMax="7">
      <contour>
        <pt x="323" y="7" on="1"/>
        <pt x="314" y="-52" on="1"/>
        <pt x="365" y="-63" on="0"/>
        <pt x="436" y="-146" on="0"/>
        <pt x="436" y="-225" on="1"/>
        <pt x="436" y="-333" on="0"/>
        <pt x="275" y="-462" on="0"/>
        <pt x="128" y="-462" on="1"/>
        <pt x="122" y="-299" on="1"/>
        <pt x="156" y="-299" on="0"/>
        <pt x="195" y="-258" on="0"/>
        <pt x="195" y="-215" on="1"/>
        <pt x="195" y="-173" on="0"/>
        <pt x="144" y="-139" on="0"/>
        <pt x="83" y="-134" on="1"/>
        <pt x="110" y="7" on="1"/>
      </contour>
    </TTGlyph>
    <TTGlyph name="cent" xMin="89" yMin="-245" xMax="907" yMax="1318">
      <contour>
        <pt x="524" y="206" on="1"/>
        <pt x="582" y="206" on="0"/>
        <pt x="641" y="292" on="0"/>
        <pt x="641" y="373" on="1"/>
        <pt x="907" y="373" on="1"/>
        <pt x="907" y="224" on="0"/>
        <pt x="745" y="17" on="0"/>
        <pt x="613" y="-11" on="1"/>
        <pt x="613" y="-245" on="1"/>
        <pt x="429" y="-245" on="1"/>
        <pt x="429" y="-12" on="1"/>
        <pt x="263" y="18" on="0"/>
        <pt x="89" y="280" on="0"/>
        <pt x="89" y="470" on="1"/>
        <pt x="89" y="609" on="1"/>
        <pt x="89" y="798" on="0"/>
        <pt x="264" y="1062" on="0"/>
        <pt x="429" y="1093" on="1"/>
        <pt x="429" y="1318" on="1"/>
        <pt x="613" y="1318" on="1"/>
        <pt x="613" y="1093" on="1"/>
        <pt x="749" y="1064" on="0"/>
        <pt x="907" y="847" on="0"/>
        <pt x="907" y="679" on="1"/>
        <pt x="641" y="679" on="1"/>
        <pt x="641" y="767" on="0"/>
        <pt x="582" y="874" on="0"/>
        <pt x="522" y="874" on="1"/>
        <pt x="437" y="874" on="0"/>
        <pt x="373" y="730" on="0"/>
        <pt x="373" y="609" on="1"/>
        <pt x="373" y="470" on="1"/>
        <pt x="373" y="346" on="0"/>
        <pt x="437" y="206" on="0"/>
      </contour>
    </TTGlyph>
    <TTGlyph name="chi" xMin="15" yMin="-432" xMax="944" yMax="1098">
      <contour>
        <pt x="164" y="1098" on="1"/>
        <pt x="301" y="1098" on="0"/>
        <pt x="435" y="939" on="0"/>
        <pt x="470" y="826" on="1"/>
        <pt x="506" y="725" on="1"/>
        <pt x="512" y="725" on="1"/>
        <pt x="657" y="1082" on="1"/>
        <pt x="944" y="1082" on="1"/>
        <pt x="642" y="347" on="1"/>
        <pt x="791" y="-68" on="1"/>
        <pt x="803" y="-118" on="0"/>
        <pt x="851" y="-188" on="0"/>
        <pt x="883" y="-197" on="1"/>
        <pt x="892" y="-199" on="0"/>
        <pt x="913" y="-200" on="0"/>
        <pt x="926" y="-200" on="1"/>
        <pt x="913" y="-421" on="1"/>
        <pt x="882" y="-428" on="0"/>
        <pt x="811" y="-432" on="0"/>
        <pt x="777" y="-429" on="1"/>
        <pt x="678" y="-418" on="0"/>
        <pt x="557" y="-224" on="0"/>
        <pt x="522" y="-98" on="1"/>
        <pt x="495" y="-23" on="1"/>
        <pt x="489" y="-23" on="1"/>
        <pt x="328" y="-415" on="1"/>
        <pt x="50" y="-415" on="1"/>
        <pt x="361" y="353" on="1"/>
        <pt x="219" y="754" on="1"/>
        <pt x="203" y="808" on="0"/>
        <pt x="123" y="869" on="0"/>
        <pt x="76" y="869" on="1"/>
        <pt x="66" y="869" on="0"/>
        <pt x="30" y="865" on="0"/>
        <pt x="21" y="863" on="1"/>
        <pt x="15" y="1075" on="1"/>
        <pt x="66" y="1087" on="0"/>
        <pt x="125" y="1098" on="0"/>
      </contour>
    </TTGlyph>
    <TTGlyph name="circumflex" xMin="118" yMin="1252" xMax="783" yMax="1514">
      <contour>
        <pt x="783" y="1274" on="1"/>
        <pt x="783" y="1252" on="1"/>
        <pt x="561" y="1252" on="1"/>
        <pt x="447" y="1386" on="1"/>
        <pt x="335" y="1252" on="1"/>
        <pt x="118" y="1252" on="1"/>
        <pt x="118" y="1277" on="1"/>
        <pt x="368" y="1514" on="1"/>
        <pt x="527" y="1514" on="1"/>
      </contour>
    </TTGlyph>
    <TTGlyph name="circumflexacutecomb" xMin="80" yMin="1252" xMax="1125" yMax="1687">
      <contour>
        <pt x="338" y="1507" on="1"/>
        <pt x="569" y="1507" on="1"/>
        <pt x="826" y="1258" on="1"/>
        <pt x="824" y="1252" on="1"/>
        <pt x="574" y="1252" on="1"/>
        <pt x="453" y="1396" on="1"/>
        <pt x="331" y="1252" on="1"/>
        <pt x="82" y="1252" on="1"/>
        <pt x="80" y="1258" on="1"/>
      </contour>
      <contour>
        <pt x="869" y="1687" on="1"/>
        <pt x="1125" y="1687" on="1"/>
        <pt x="939" y="1419" on="1"/>
        <pt x="743" y="1419" on="1"/>
      </contour>
    </TTGlyph>
    <TTGlyph name="circumflexgravecomb" xMin="-222" yMin="1252" xMax="821" yMax="1687">
      <contour>
        <pt x="821" y="1258" on="1"/>
        <pt x="819" y="1252" on="1"/>
        <pt x="570" y="1252" on="1"/>
        <pt x="448" y="1396" on="1"/>
        <pt x="326" y="1252" on="1"/>
        <pt x="77" y="1252" on="1"/>
        <pt x="75" y="1258" on="1"/>
        <pt x="332" y="1507" on="1"/>
        <pt x="564" y="1507" on="1"/>
      </contour>
      <contour>
        <pt x="158" y="1419" on="1"/>
        <pt x="-35" y="1419" on="1"/>
        <pt x="-222" y="1687" on="1"/>
        <pt x="32" y="1687" on="1"/>
      </contour>
    </TTGlyph>
    <TTGlyph name="circumflexhookcomb" xMin="75" yMin="1252" xMax="1026" yMax="1723">
      <contour>
        <pt x="821" y="1258" on="1"/>
        <pt x="819" y="1252" on="1"/>
        <pt x="573" y="1252" on="1"/>
        <pt x="447" y="1400" on="1"/>
        <pt x="322" y="1252" on="1"/>
        <pt x="77" y="1252" on="1"/>
        <pt x="75" y="1258" on="1"/>
        <pt x="330" y="1507" on="1"/>
        <pt x="566" y="1507" on="1"/>
      </contour>
      <contour>
        <pt x="744" y="1385" on="1"/>
        <pt x="729" y="1495" on="1"/>
        <pt x="780" y="1498" on="0"/>
        <pt x="826" y="1524" on="0"/>
        <pt x="826" y="1551" on="1"/>
        <pt x="826" y="1584" on="0"/>
        <pt x="777" y="1612" on="0"/>
        <pt x="731" y="1612" on="1"/>
        <pt x="737" y="1723" on="1"/>
        <pt x="878" y="1723" on="0"/>
        <pt x="1026" y="1637" on="0"/>
        <pt x="1026" y="1561" on="1"/>
        <pt x="1026" y="1506" on="0"/>
        <pt x="966" y="1445" on="0"/>
        <pt x="923" y="1438" on="1"/>
        <pt x="923" y="1385" on="1"/>
      </contour>
    </TTGlyph>
    <TTGlyph name="circumflextildecomb" xMin="75" yMin="1260" xMax="811" yMax="1767">
      <contour>
        <pt x="811" y="1266" on="1"/>
        <pt x="808" y="1260" on="1"/>
        <pt x="568" y="1260" on="1"/>
        <pt x="443" y="1392" on="1"/>
        <pt x="319" y="1260" on="1"/>
        <pt x="78" y="1260" on="1"/>
        <pt x="75" y="1266" on="1"/>
        <pt x="328" y="1487" on="1"/>
        <pt x="558" y="1487" on="1"/>
      </contour>
      <contour>
        <pt x="687" y="1727" on="1"/>
        <pt x="687" y="1658" on="0"/>
        <pt x="618" y="1554" on="0"/>
        <pt x="563" y="1554" on="1"/>
        <pt x="520" y="1554" on="0"/>
        <pt x="392" y="1627" on="0"/>
        <pt x="360" y="1627" on="1"/>
        <pt x="341" y="1627" on="0"/>
        <pt x="319" y="1578" on="0"/>
        <pt x="319" y="1543" on="1"/>
        <pt x="214" y="1574" on="1"/>
        <pt x="214" y="1643" on="0"/>
        <pt x="281" y="1749" on="0"/>
        <pt x="336" y="1749" on="1"/>
        <pt x="369" y="1749" on="0"/>
        <pt x="507" y="1678" on="0"/>
        <pt x="539" y="1678" on="1"/>
        <pt x="557" y="1678" on="0"/>
        <pt x="581" y="1731" on="0"/>
        <pt x="581" y="1767" on="1"/>
      </contour>
    </TTGlyph>
    <TTGlyph name="colon" xMin="127" yMin="0" xMax="408" yMax="1081">
      <component glyphName="period" x="3" y="0" flags="0x4"/>
      <component glyphName="period" x="3" y="823" flags="0x4"/>
    </TTGlyph>
    <TTGlyph name="comma" xMin="47" yMin="-309" xMax="358" yMax="241">
      <contour>
        <pt x="358" y="2" on="1"/>
        <pt x="213" y="-309" on="1"/>
        <pt x="47" y="-309" on="1"/>
        <pt x="106" y="10" on="1"/>
        <pt x="106" y="241" on="1"/>
        <pt x="358" y="241" on="1"/>
      </contour>
    </TTGlyph>
    <TTGlyph name="commaaccent" xMin="42" yMin="-126" xMax="275" yMax="266">
      <contour>
        <pt x="275" y="105" on="1"/>
        <pt x="156" y="-126" on="1"/>
        <pt x="42" y="-126" on="1"/>
        <pt x="95" y="114" on="1"/>
        <pt x="95" y="266" on="1"/>
        <pt x="275" y="266" on="1"/>
      </contour>
    </TTGlyph>
    <TTGlyph name="commaaccentrotate" xMin="107" yMin="1101" xMax="363" yMax="1536">
      <contour>
        <pt x="107" y="1279" on="1"/>
        <pt x="208" y="1536" on="1"/>
        <pt x="363" y="1536" on="1"/>
        <pt x="333" y="1271" on="1"/>
        <pt x="333" y="1101" on="1"/>
        <pt x="107" y="1101" on="1"/>
      </contour>
    </TTGlyph>
    <TTGlyph name="copyright" xMin="82" yMin="-21" xMax="1337" yMax="1476">
      <contour>
        <pt x="987" y="596" on="1"/>
        <pt x="990" y="590" on="1"/>
        <pt x="993" y="439" on="0"/>
        <pt x="836" y="282" on="0"/>
        <pt x="696" y="282" on="1"/>
        <pt x="553" y="282" on="0"/>
        <pt x="386" y="494" on="0"/>
        <pt x="386" y="669" on="1"/>
        <pt x="386" y="788" on="1"/>
        <pt x="386" y="961" on="0"/>
        <pt x="553" y="1175" on="0"/>
        <pt x="696" y="1175" on="1"/>
        <pt x="836" y="1175" on="0"/>
        <pt x="994" y="1016" on="0"/>
        <pt x="991" y="867" on="1"/>
        <pt x="988" y="861" on="1"/>
        <pt x="852" y="861" on="1"/>
        <pt x="852" y="957" on="0"/>
        <pt x="774" y="1046" on="0"/>
        <pt x="696" y="1047" on="1"/>
        <pt x="615" y="1046" on="0"/>
        <pt x="529" y="904" on="0"/>
        <pt x="529" y="789" on="1"/>
        <pt x="529" y="669" on="1"/>
        <pt x="529" y="551" on="0"/>
        <pt x="615" y="410" on="0"/>
        <pt x="696" y="410" on="1"/>
        <pt x="774" y="410" on="0"/>
        <pt x="851" y="497" on="0"/>
        <pt x="851" y="596" on="1"/>
      </contour>
      <contour>
        <pt x="193" y="729" on="1"/>
        <pt x="193" y="463" on="0"/>
        <pt x="494" y="98" on="0"/>
        <pt x="709" y="99" on="1"/>
        <pt x="923" y="98" on="0"/>
        <pt x="1224" y="463" on="0"/>
        <pt x="1224" y="729" on="1"/>
        <pt x="1224" y="993" on="0"/>
        <pt x="923" y="1356" on="0"/>
        <pt x="709" y="1356" on="1"/>
        <pt x="494" y="1356" on="0"/>
        <pt x="193" y="993" on="0"/>
      </contour>
      <contour>
        <pt x="82" y="729" on="1"/>
        <pt x="82" y="1044" on="0"/>
        <pt x="447" y="1476" on="0"/>
        <pt x="709" y="1476" on="1"/>
        <pt x="970" y="1476" on="0"/>
        <pt x="1337" y="1044" on="0"/>
        <pt x="1337" y="729" on="1"/>
        <pt x="1337" y="413" on="0"/>
        <pt x="969" y="-21" on="0"/>
        <pt x="709" y="-21" on="1"/>
        <pt x="448" y="-21" on="0"/>
        <pt x="82" y="413" on="0"/>
      </contour>
    </TTGlyph>
    <TTGlyph name="crossbar" xMin="145" yMin="655" xMax="726" yMax="830">
      <contour>
        <pt x="726" y="655" on="1"/>
        <pt x="145" y="655" on="1"/>
        <pt x="145" y="830" on="1"/>
        <pt x="726" y="830" on="1"/>
      </contour>
    </TTGlyph>
    <TTGlyph name="currency" xMin="74" yMin="-27" xMax="1193" yMax="1265">
      <contour>
        <pt x="947" y="104" on="1"/>
        <pt x="880" y="44" on="0"/>
        <pt x="719" y="-20" on="0"/>
        <pt x="631" y="-20" on="1"/>
        <pt x="543" y="-20" on="0"/>
        <pt x="383" y="43" on="0"/>
        <pt x="316" y="102" on="1"/>
        <pt x="204" y="-26" on="1"/>
        <pt x="74" y="110" on="1"/>
        <pt x="196" y="250" on="1"/>
        <pt x="151" y="326" on="0"/>
        <pt x="104" y="508" on="0"/>
        <pt x="104" y="608" on="1"/>
        <pt x="104" y="711" on="0"/>
        <pt x="155" y="898" on="0"/>
        <pt x="203" y="977" on="1"/>
        <pt x="74" y="1127" on="1"/>
        <pt x="204" y="1264" on="1"/>
        <pt x="327" y="1122" on="1"/>
        <pt x="392" y="1176" on="0"/>
        <pt x="547" y="1234" on="0"/>
        <pt x="631" y="1234" on="1"/>
        <pt x="715" y="1234" on="0"/>
        <pt x="870" y="1174" on="0"/>
        <pt x="936" y="1120" on="1"/>
        <pt x="1061" y="1265" on="1"/>
        <pt x="1193" y="1127" on="1"/>
        <pt x="1060" y="974" on="1"/>
        <pt x="1106" y="896" on="0"/>
        <pt x="1157" y="709" on="0"/>
        <pt x="1157" y="608" on="1"/>
        <pt x="1157" y="509" on="0"/>
        <pt x="1110" y="329" on="0"/>
        <pt x="1067" y="253" on="1"/>
        <pt x="1193" y="110" on="1"/>
        <pt x="1061" y="-27" on="1"/>
      </contour>
      <contour>
        <pt x="276" y="608" on="1"/>
        <pt x="276" y="419" on="0"/>
        <pt x="482" y="160" on="0"/>
        <pt x="631" y="160" on="1"/>
        <pt x="778" y="160" on="0"/>
        <pt x="984" y="419" on="0"/>
        <pt x="984" y="608" on="1"/>
        <pt x="984" y="795" on="0"/>
        <pt x="778" y="1054" on="0"/>
        <pt x="631" y="1054" on="1"/>
        <pt x="482" y="1054" on="0"/>
        <pt x="276" y="795" on="0"/>
      </contour>
    </TTGlyph>
    <TTGlyph name="cyrillicbreve" xMin="96" yMin="1160" xMax="729" yMax="1456">
      <component glyphName="breve" x="0" y="0" flags="0x204"/>
    </TTGlyph>
    <TTGlyph name="cyrillichook" xMin="-73" yMin="-437" xMax="395" yMax="258">
      <contour>
        <pt x="395" y="258" on="1"/>
        <pt x="395" y="-33" on="1"/>
        <pt x="395" y="-227" on="0"/>
        <pt x="215" y="-437" on="0"/>
        <pt x="55" y="-437" on="1"/>
        <pt x="20" y="-437" on="0"/>
        <pt x="-38" y="-428" on="0"/>
        <pt x="-73" y="-419" on="1"/>
        <pt x="-61" y="-195" on="1"/>
        <pt x="-38" y="-201" on="0"/>
        <pt x="-1" y="-208" on="0"/>
        <pt x="21" y="-208" on="1"/>
        <pt x="64" y="-208" on="0"/>
        <pt x="110" y="-119" on="0"/>
        <pt x="110" y="-33" on="1"/>
        <pt x="110" y="258" on="1"/>
      </contour>
    </TTGlyph>
    <TTGlyph name="cyrillichookleft" xMin="30" yMin="-412" xMax="423" yMax="58">
      <contour>
        <pt x="270" y="58" on="1"/>
        <pt x="349" y="7" on="0"/>
        <pt x="423" y="-128" on="0"/>
        <pt x="423" y="-204" on="1"/>
        <pt x="423" y="-302" on="0"/>
        <pt x="294" y="-412" on="0"/>
        <pt x="196" y="-412" on="1"/>
        <pt x="140" y="-412" on="0"/>
        <pt x="61" y="-387" on="0"/>
        <pt x="30" y="-368" on="1"/>
        <pt x="62" y="-216" on="1"/>
        <pt x="79" y="-225" on="0"/>
        <pt x="116" y="-237" on="0"/>
        <pt x="142" y="-237" on="1"/>
        <pt x="186" y="-237" on="0"/>
        <pt x="214" y="-194" on="0"/>
        <pt x="214" y="-171" on="1"/>
        <pt x="214" y="-123" on="0"/>
        <pt x="178" y="-52" on="0"/>
        <pt x="140" y="0" on="1"/>
      </contour>
    </TTGlyph>
    <TTGlyph name="cyrillictic" xMin="74" yMin="-356" xMax="358" yMax="202">
      <contour>
        <pt x="358" y="-356" on="1"/>
        <pt x="74" y="-356" on="1"/>
        <pt x="74" y="202" on="1"/>
        <pt x="358" y="202" on="1"/>
      </contour>
    </TTGlyph>
    <TTGlyph name="d" xMin="54" yMin="-21" xMax="902" yMax="1560">
      <contour>
        <pt x="54" y="535" on="1"/>
        <pt x="54" y="790" on="0"/>
        <pt x="242" y="1102" on="0"/>
        <pt x="413" y="1102" on="1"/>
        <pt x="476" y="1102" on="0"/>
        <pt x="578" y="1042" on="0"/>
        <pt x="618" y="986" on="1"/>
        <pt x="618" y="1560" on="1"/>
        <pt x="902" y="1560" on="1"/>
        <pt x="902" y="0" on="1"/>
        <pt x="655" y="0" on="1"/>
        <pt x="636" y="118" on="1"/>
        <pt x="594" y="50" on="0"/>
        <pt x="483" y="-21" on="0"/>
        <pt x="412" y="-21" on="1"/>
        <pt x="241" y="-21" on="0"/>
        <pt x="54" y="272" on="0"/>
        <pt x="54" y="514" on="1"/>
      </contour>
      <contour>
        <pt x="338" y="514" on="1"/>
        <pt x="338" y="369" on="0"/>
        <pt x="405" y="207" on="0"/>
        <pt x="485" y="207" on="1"/>
        <pt x="529" y="207" on="0"/>
        <pt x="595" y="248" on="0"/>
        <pt x="618" y="287" on="1"/>
        <pt x="618" y="779" on="1"/>
        <pt x="595" y="824" on="0"/>
        <pt x="529" y="874" on="0"/>
        <pt x="487" y="874" on="1"/>
        <pt x="408" y="874" on="0"/>
        <pt x="338" y="688" on="0"/>
        <pt x="338" y="535" on="1"/>
      </contour>
    </TTGlyph>
    <TTGlyph name="dagger" xMin="53" yMin="0" xMax="891" yMax="1456">
      <contour>
        <pt x="891" y="846" on="1"/>
        <pt x="610" y="846" on="1"/>
        <pt x="610" y="0" on="1"/>
        <pt x="327" y="0" on="1"/>
        <pt x="327" y="846" on="1"/>
        <pt x="53" y="846" on="1"/>
        <pt x="53" y="1082" on="1"/>
        <pt x="327" y="1082" on="1"/>
        <pt x="327" y="1456" on="1"/>
        <pt x="610" y="1456" on="1"/>
        <pt x="610" y="1082" on="1"/>
        <pt x="891" y="1082" on="1"/>
      </contour>
    </TTGlyph>
    <TTGlyph name="daggerdbl" xMin="94" yMin="-416" xMax="931" yMax="1456">
      <contour>
        <pt x="931" y="0" on="1"/>
        <pt x="653" y="0" on="1"/>
        <pt x="653" y="-416" on="1"/>
        <pt x="368" y="-416" on="1"/>
        <pt x="368" y="0" on="1"/>
        <pt x="94" y="0" on="1"/>
        <pt x="94" y="227" on="1"/>
        <pt x="368" y="227" on="1"/>
        <pt x="368" y="854" on="1"/>
        <pt x="94" y="854" on="1"/>
        <pt x="94" y="1082" on="1"/>
        <pt x="368" y="1082" on="1"/>
        <pt x="368" y="1456" on="1"/>
        <pt x="653" y="1456" on="1"/>
        <pt x="653" y="1082" on="1"/>
        <pt x="931" y="1082" on="1"/>
        <pt x="931" y="854" on="1"/>
        <pt x="653" y="854" on="1"/>
        <pt x="653" y="227" on="1"/>
        <pt x="931" y="227" on="1"/>
      </contour>
    </TTGlyph>
    <TTGlyph name="dasiaoxia" xMin="103" yMin="1135" xMax="624" yMax="1477">
      <contour>
        <pt x="351" y="1164" on="1"/>
        <pt x="437" y="1477" on="1"/>
        <pt x="624" y="1477" on="1"/>
        <pt x="624" y="1456" on="1"/>
        <pt x="425" y="1137" on="1"/>
        <pt x="351" y="1137" on="1"/>
      </contour>
      <contour>
        <pt x="103" y="1293" on="1"/>
        <pt x="231" y="1476" on="1"/>
        <pt x="325" y="1476" on="1"/>
        <pt x="257" y="1272" on="1"/>
        <pt x="257" y="1135" on="1"/>
        <pt x="103" y="1135" on="1"/>
      </contour>
    </TTGlyph>
    <TTGlyph name="dcaron" xMin="54" yMin="-21" xMax="1189" yMax="1560">
      <component glyphName="d" x="0" y="0" flags="0x4"/>
      <component glyphName="commaaccent" x="914" y="1293" flags="0x4"/>
    </TTGlyph>
    <TTGlyph name="dcroat" xMin="54" yMin="-21" xMax="1014" yMax="1560">
      <contour>
        <pt x="1014" y="1223" on="1"/>
        <pt x="902" y="1223" on="1"/>
        <pt x="902" y="0" on="1"/>
        <pt x="655" y="0" on="1"/>
        <pt x="636" y="118" on="1"/>
        <pt x="594" y="50" on="0"/>
        <pt x="483" y="-21" on="0"/>
        <pt x="412" y="-21" on="1"/>
        <pt x="241" y="-21" on="0"/>
        <pt x="54" y="272" on="0"/>
        <pt x="54" y="514" on="1"/>
        <pt x="54" y="535" on="1"/>
        <pt x="54" y="790" on="0"/>
        <pt x="242" y="1102" on="0"/>
        <pt x="413" y="1102" on="1"/>
        <pt x="476" y="1102" on="0"/>
        <pt x="578" y="1042" on="0"/>
        <pt x="618" y="986" on="1"/>
        <pt x="618" y="1223" on="1"/>
        <pt x="433" y="1223" on="1"/>
        <pt x="433" y="1398" on="1"/>
        <pt x="618" y="1398" on="1"/>
        <pt x="618" y="1560" on="1"/>
        <pt x="902" y="1560" on="1"/>
        <pt x="902" y="1398" on="1"/>
        <pt x="1014" y="1398" on="1"/>
      </contour>
      <contour>
        <pt x="338" y="514" on="1"/>
        <pt x="338" y="369" on="0"/>
        <pt x="405" y="207" on="0"/>
        <pt x="485" y="207" on="1"/>
        <pt x="529" y="207" on="0"/>
        <pt x="595" y="248" on="0"/>
        <pt x="618" y="287" on="1"/>
        <pt x="618" y="779" on="1"/>
        <pt x="595" y="824" on="0"/>
        <pt x="529" y="874" on="0"/>
        <pt x="487" y="874" on="1"/>
        <pt x="408" y="874" on="0"/>
        <pt x="338" y="688" on="0"/>
        <pt x="338" y="535" on="1"/>
      </contour>
    </TTGlyph>
    <TTGlyph name="degree" xMin="117" yMin="932" xMax="605" yMax="1477">
      <contour>
        <pt x="117" y="1203" on="1"/>
        <pt x="117" y="1315" on="0"/>
        <pt x="262" y="1477" on="0"/>
        <pt x="363" y="1477" on="1"/>
        <pt x="462" y="1477" on="0"/>
        <pt x="605" y="1315" on="0"/>
        <pt x="605" y="1203" on="1"/>
        <pt x="605" y="1090" on="0"/>
        <pt x="463" y="932" on="0"/>
        <pt x="363" y="932" on="1"/>
        <pt x="261" y="932" on="0"/>
        <pt x="117" y="1090" on="0"/>
      </contour>
      <contour>
        <pt x="255" y="1203" on="1"/>
        <pt x="255" y="1148" on="0"/>
        <pt x="318" y="1074" on="0"/>
        <pt x="363" y="1074" on="1"/>
        <pt x="406" y="1074" on="0"/>
        <pt x="467" y="1147" on="0"/>
        <pt x="467" y="1203" on="1"/>
        <pt x="467" y="1259" on="0"/>
        <pt x="406" y="1335" on="0"/>
        <pt x="363" y="1335" on="1"/>
        <pt x="318" y="1335" on="0"/>
        <pt x="255" y="1258" on="0"/>
      </contour>
    </TTGlyph>
    <TTGlyph name="delta" xMin="58" yMin="-21" xMax="937" yMax="1456">
      <contour>
        <pt x="846" y="1456" on="1"/>
        <pt x="846" y="1229" on="1"/>
        <pt x="538" y="1229" on="1"/>
        <pt x="693" y="1092" on="0"/>
        <pt x="937" y="741" on="0"/>
        <pt x="937" y="551" on="1"/>
        <pt x="937" y="529" on="1"/>
        <pt x="937" y="284" on="0"/>
        <pt x="706" y="-21" on="0"/>
        <pt x="498" y="-21" on="1"/>
        <pt x="289" y="-21" on="0"/>
        <pt x="58" y="267" on="0"/>
        <pt x="58" y="499" on="1"/>
        <pt x="58" y="521" on="1"/>
        <pt x="58" y="719" on="0"/>
        <pt x="239" y="994" on="0"/>
        <pt x="378" y="1021" on="1"/>
        <pt x="329" y="1087" on="0"/>
        <pt x="215" y="1217" on="0"/>
        <pt x="156" y="1272" on="1"/>
        <pt x="156" y="1456" on="1"/>
      </contour>
      <contour>
        <pt x="341" y="529" on="1"/>
        <pt x="341" y="379" on="0"/>
        <pt x="411" y="207" on="0"/>
        <pt x="495" y="212" on="1"/>
        <pt x="501" y="212" on="1"/>
        <pt x="583" y="207" on="0"/>
        <pt x="653" y="380" on="0"/>
        <pt x="653" y="529" on="1"/>
        <pt x="653" y="551" on="1"/>
        <pt x="653" y="662" on="0"/>
        <pt x="581" y="827" on="0"/>
        <pt x="525" y="866" on="1"/>
        <pt x="516" y="870" on="0"/>
        <pt x="504" y="874" on="0"/>
        <pt x="497" y="874" on="1"/>
        <pt x="412" y="874" on="0"/>
        <pt x="341" y="697" on="0"/>
        <pt x="341" y="551" on="1"/>
      </contour>
      <contour>
        <pt x="379" y="1021" on="1"/>
        <pt x="378" y="1021" on="1"/>
        <pt x="378" y="1021" on="0"/>
        <pt x="380" y="1021" on="0"/>
      </contour>
    </TTGlyph>
    <TTGlyph name="dieresis" xMin="143" yMin="1258" xMax="842" yMax="1456">
      <contour>
        <pt x="842" y="1258" on="1"/>
        <pt x="592" y="1258" on="1"/>
        <pt x="592" y="1456" on="1"/>
        <pt x="842" y="1456" on="1"/>
      </contour>
      <contour>
        <pt x="394" y="1258" on="1"/>
        <pt x="143" y="1258" on="1"/>
        <pt x="143" y="1456" on="1"/>
        <pt x="394" y="1456" on="1"/>
      </contour>
    </TTGlyph>
    <TTGlyph name="dieresistonos" xMin="135" yMin="1259" xMax="846" yMax="1755">
      <contour>
        <pt x="846" y="1259" on="1"/>
        <pt x="612" y="1259" on="1"/>
        <pt x="612" y="1456" on="1"/>
        <pt x="846" y="1456" on="1"/>
      </contour>
      <contour>
        <pt x="370" y="1259" on="1"/>
        <pt x="135" y="1259" on="1"/>
        <pt x="135" y="1456" on="1"/>
        <pt x="370" y="1456" on="1"/>
      </contour>
      <contour>
        <pt x="456" y="1755" on="1"/>
        <pt x="718" y="1755" on="1"/>
        <pt x="556" y="1480" on="1"/>
        <pt x="421" y="1480" on="1"/>
      </contour>
    </TTGlyph>
    <TTGlyph name="divide" xMin="59" yMin="167" xMax="937" yMax="1201">
      <contour>
        <pt x="937" y="577" on="1"/>
        <pt x="59" y="577" on="1"/>
        <pt x="59" y="798" on="1"/>
        <pt x="937" y="798" on="1"/>
      </contour>
      <contour>
        <pt x="638" y="971" on="1"/>
        <pt x="357" y="971" on="1"/>
        <pt x="357" y="1201" on="1"/>
        <pt x="638" y="1201" on="1"/>
      </contour>
      <contour>
        <pt x="638" y="167" on="1"/>
        <pt x="357" y="167" on="1"/>
        <pt x="357" y="397" on="1"/>
        <pt x="638" y="397" on="1"/>
      </contour>
    </TTGlyph>
    <TTGlyph name="dollar" xMin="79" yMin="-215" xMax="938" yMax="1685">
      <contour>
        <pt x="651" y="381" on="1"/>
        <pt x="651" y="465" on="0"/>
        <pt x="585" y="563" on="0"/>
        <pt x="503" y="610" on="1"/>
        <pt x="309" y="696" on="0"/>
        <pt x="126" y="890" on="0"/>
        <pt x="126" y="1072" on="1"/>
        <pt x="126" y="1238" on="0"/>
        <pt x="313" y="1454" on="0"/>
        <pt x="470" y="1473" on="1"/>
        <pt x="470" y="1685" on="1"/>
        <pt x="614" y="1685" on="1"/>
        <pt x="614" y="1470" on="1"/>
        <pt x="763" y="1442" on="0"/>
        <pt x="938" y="1201" on="0"/>
        <pt x="938" y="1008" on="1"/>
        <pt x="654" y="1008" on="1"/>
        <pt x="654" y="1125" on="0"/>
        <pt x="584" y="1251" on="0"/>
        <pt x="527" y="1251" on="1"/>
        <pt x="468" y="1251" on="0"/>
        <pt x="410" y="1151" on="0"/>
        <pt x="410" y="1071" on="1"/>
        <pt x="410" y="995" on="0"/>
        <pt x="475" y="897" on="0"/>
        <pt x="560" y="849" on="1"/>
        <pt x="752" y="758" on="0"/>
        <pt x="935" y="562" on="0"/>
        <pt x="935" y="383" on="1"/>
        <pt x="935" y="212" on="0"/>
        <pt x="751" y="3" on="0"/>
        <pt x="595" y="-16" on="1"/>
        <pt x="595" y="-215" on="1"/>
        <pt x="450" y="-215" on="1"/>
        <pt x="450" y="-16" on="1"/>
        <pt x="289" y="4" on="0"/>
        <pt x="79" y="234" on="0"/>
        <pt x="79" y="456" on="1"/>
        <pt x="363" y="456" on="1"/>
        <pt x="363" y="321" on="0"/>
        <pt x="451" y="204" on="0"/>
        <pt x="522" y="204" on="1"/>
        <pt x="585" y="204" on="0"/>
        <pt x="651" y="302" on="0"/>
      </contour>
    </TTGlyph>
    <TTGlyph name="dotaccent" xMin="128" yMin="1229" xMax="419" yMax="1470">
      <contour>
        <pt x="419" y="1229" on="1"/>
        <pt x="128" y="1229" on="1"/>
        <pt x="128" y="1470" on="1"/>
        <pt x="419" y="1470" on="1"/>
      </contour>
    </TTGlyph>
    <TTGlyph name="dotbelow" xMin="-657" yMin="-353" xMax="-341" yMax="-112">
      <contour>
        <pt x="-341" y="-353" on="1"/>
        <pt x="-657" y="-353" on="1"/>
        <pt x="-657" y="-112" on="1"/>
        <pt x="-341" y="-112" on="1"/>
      </contour>
    </TTGlyph>
    <TTGlyph name="dotlessi" xMin="113" yMin="0" xMax="398" yMax="1082">
      <contour>
        <pt x="398" y="0" on="1"/>
        <pt x="113" y="0" on="1"/>
        <pt x="113" y="1082" on="1"/>
        <pt x="398" y="1082" on="1"/>
      </contour>
    </TTGlyph>
    <TTGlyph name="e" xMin="69" yMin="-21" xMax="887" yMax="1102">
      <contour>
        <pt x="513" y="-21" on="1"/>
        <pt x="309" y="-21" on="0"/>
        <pt x="69" y="247" on="0"/>
        <pt x="69" y="451" on="1"/>
        <pt x="69" y="603" on="1"/>
        <pt x="69" y="822" on="0"/>
        <pt x="292" y="1102" on="0"/>
        <pt x="489" y="1102" on="1"/>
        <pt x="679" y="1102" on="0"/>
        <pt x="887" y="848" on="0"/>
        <pt x="887" y="629" on="1"/>
        <pt x="887" y="455" on="1"/>
        <pt x="352" y="455" on="1"/>
        <pt x="352" y="451" on="1"/>
        <pt x="352" y="344" on="0"/>
        <pt x="449" y="206" on="0"/>
        <pt x="547" y="206" on="1"/>
        <pt x="627" y="206" on="0"/>
        <pt x="727" y="242" on="0"/>
        <pt x="796" y="284" on="1"/>
        <pt x="868" y="103" on="1"/>
        <pt x="812" y="49" on="0"/>
        <pt x="625" y="-21" on="0"/>
      </contour>
      <contour>
        <pt x="489" y="874" on="1"/>
        <pt x="421" y="874" on="0"/>
        <pt x="357" y="750" on="0"/>
        <pt x="353" y="645" on="1"/>
        <pt x="608" y="645" on="1"/>
        <pt x="608" y="685" on="1"/>
        <pt x="608" y="775" on="0"/>
        <pt x="552" y="874" on="0"/>
      </contour>
    </TTGlyph>
    <TTGlyph name="eacute" xMin="69" yMin="-21" xMax="887" yMax="1505">
      <component glyphName="e" x="0" y="0" flags="0x204"/>
      <component glyphName="acute" x="221" y="27" flags="0x4"/>
    </TTGlyph>
    <TTGlyph name="ebreve" xMin="69" yMin="-21" xMax="887" yMax="1576">
      <component glyphName="e" x="0" y="0" flags="0x204"/>
      <component glyphName="breve" x="53" y="120" flags="0x4"/>
    </TTGlyph>
    <TTGlyph name="ecaron" xMin="69" yMin="-21" xMax="887" yMax="1551">
      <component glyphName="e" x="0" y="0" flags="0x204"/>
      <component glyphName="caron" x="39" y="29" flags="0x4"/>
    </TTGlyph>
    <TTGlyph name="ecircumflex" xMin="69" yMin="-21" xMax="887" yMax="1532">
      <component glyphName="e" x="0" y="0" flags="0x204"/>
      <component glyphName="circumflex" x="18" y="18" flags="0x4"/>
    </TTGlyph>
    <TTGlyph name="edieresis" xMin="69" yMin="-21" xMax="887" yMax="1483">
      <component glyphName="e" x="0" y="0" flags="0x204"/>
      <component glyphName="dieresis" x="-25" y="27" flags="0x4"/>
    </TTGlyph>
    <TTGlyph name="edotaccent" xMin="69" yMin="-21" xMax="887" yMax="1527">
      <component glyphName="e" x="0" y="0" flags="0x204"/>
      <component glyphName="dotaccent" x="188" y="57" flags="0x4"/>
    </TTGlyph>
    <TTGlyph name="egrave" xMin="69" yMin="-21" xMax="887" yMax="1504">
      <component glyphName="e" x="0" y="0" flags="0x204"/>
      <component glyphName="grave" x="62" y="27" flags="0x4"/>
    </TTGlyph>
    <TTGlyph name="eight" xMin="83" yMin="-21" xMax="935" yMax="1477">
      <contour>
        <pt x="910" y="1070" on="1"/>
        <pt x="910" y="960" on="0"/>
        <pt x="811" y="792" on="0"/>
        <pt x="725" y="745" on="1"/>
        <pt x="823" y="695" on="0"/>
        <pt x="935" y="515" on="0"/>
        <pt x="935" y="398" on="1"/>
        <pt x="935" y="195" on="0"/>
        <pt x="701" y="-21" on="0"/>
        <pt x="510" y="-21" on="1"/>
        <pt x="319" y="-21" on="0"/>
        <pt x="83" y="196" on="0"/>
        <pt x="83" y="398" on="1"/>
        <pt x="83" y="515" on="0"/>
        <pt x="195" y="696" on="0"/>
        <pt x="294" y="745" on="1"/>
        <pt x="207" y="792" on="0"/>
        <pt x="109" y="960" on="0"/>
        <pt x="109" y="1070" on="1"/>
        <pt x="109" y="1263" on="0"/>
        <pt x="329" y="1477" on="0"/>
        <pt x="509" y="1477" on="1"/>
        <pt x="689" y="1477" on="0"/>
        <pt x="910" y="1263" on="0"/>
      </contour>
      <contour>
        <pt x="651" y="419" on="1"/>
        <pt x="651" y="517" on="0"/>
        <pt x="573" y="632" on="0"/>
        <pt x="509" y="632" on="1"/>
        <pt x="444" y="632" on="0"/>
        <pt x="368" y="517" on="0"/>
        <pt x="368" y="419" on="1"/>
        <pt x="368" y="319" on="0"/>
        <pt x="444" y="206" on="0"/>
        <pt x="510" y="206" on="1"/>
        <pt x="574" y="206" on="0"/>
        <pt x="651" y="319" on="0"/>
      </contour>
      <contour>
        <pt x="624" y="1056" on="1"/>
        <pt x="624" y="1145" on="0"/>
        <pt x="565" y="1249" on="0"/>
        <pt x="509" y="1249" on="1"/>
        <pt x="453" y="1249" on="0"/>
        <pt x="395" y="1147" on="0"/>
        <pt x="395" y="1056" on="1"/>
        <pt x="395" y="964" on="0"/>
        <pt x="454" y="859" on="0"/>
        <pt x="510" y="859" on="1"/>
        <pt x="566" y="859" on="0"/>
        <pt x="624" y="963" on="0"/>
      </contour>
    </TTGlyph>
    <TTGlyph name="eight.lnum" xMin="75" yMin="-21" xMax="965" yMax="1477">
      <contour>
        <pt x="939" y="1070" on="1"/>
        <pt x="939" y="960" on="0"/>
        <pt x="836" y="792" on="0"/>
        <pt x="745" y="745" on="1"/>
        <pt x="847" y="695" on="0"/>
        <pt x="965" y="515" on="0"/>
        <pt x="965" y="398" on="1"/>
        <pt x="965" y="195" on="0"/>
        <pt x="721" y="-21" on="0"/>
        <pt x="522" y="-21" on="1"/>
        <pt x="322" y="-21" on="0"/>
        <pt x="75" y="196" on="0"/>
        <pt x="75" y="398" on="1"/>
        <pt x="75" y="515" on="0"/>
        <pt x="193" y="696" on="0"/>
        <pt x="296" y="745" on="1"/>
        <pt x="204" y="792" on="0"/>
        <pt x="102" y="960" on="0"/>
        <pt x="102" y="1070" on="1"/>
        <pt x="102" y="1263" on="0"/>
        <pt x="332" y="1477" on="0"/>
        <pt x="520" y="1477" on="1"/>
        <pt x="709" y="1477" on="0"/>
        <pt x="939" y="1264" on="0"/>
      </contour>
      <contour>
        <pt x="682" y="419" on="1"/>
        <pt x="682" y="517" on="0"/>
        <pt x="593" y="632" on="0"/>
        <pt x="520" y="632" on="1"/>
        <pt x="446" y="632" on="0"/>
        <pt x="360" y="517" on="0"/>
        <pt x="360" y="419" on="1"/>
        <pt x="360" y="319" on="0"/>
        <pt x="447" y="206" on="0"/>
        <pt x="522" y="206" on="1"/>
        <pt x="595" y="206" on="0"/>
        <pt x="682" y="319" on="0"/>
      </contour>
      <contour>
        <pt x="655" y="1056" on="1"/>
        <pt x="655" y="1145" on="0"/>
        <pt x="585" y="1249" on="0"/>
        <pt x="520" y="1249" on="1"/>
        <pt x="454" y="1249" on="0"/>
        <pt x="386" y="1147" on="0"/>
        <pt x="386" y="1056" on="1"/>
        <pt x="386" y="964" on="0"/>
        <pt x="456" y="859" on="0"/>
        <pt x="522" y="859" on="1"/>
        <pt x="587" y="859" on="0"/>
        <pt x="655" y="964" on="0"/>
      </contour>
    </TTGlyph>
    <TTGlyph name="eight.smcp" xMin="66" yMin="-17" xMax="902" yMax="1181">
      <contour>
        <pt x="872" y="861" on="1"/>
        <pt x="872" y="775" on="0"/>
        <pt x="778" y="642" on="0"/>
        <pt x="698" y="604" on="1"/>
        <pt x="792" y="563" on="0"/>
        <pt x="902" y="419" on="0"/>
        <pt x="902" y="326" on="1"/>
        <pt x="902" y="165" on="0"/>
        <pt x="668" y="-17" on="0"/>
        <pt x="490" y="-17" on="1"/>
        <pt x="308" y="-17" on="0"/>
        <pt x="66" y="165" on="0"/>
        <pt x="66" y="326" on="1"/>
        <pt x="66" y="419" on="0"/>
        <pt x="179" y="563" on="0"/>
        <pt x="276" y="604" on="1"/>
        <pt x="191" y="642" on="0"/>
        <pt x="94" y="775" on="0"/>
        <pt x="94" y="861" on="1"/>
        <pt x="94" y="1013" on="0"/>
        <pt x="319" y="1181" on="0"/>
        <pt x="490" y="1181" on="1"/>
        <pt x="656" y="1181" on="0"/>
        <pt x="872" y="1013" on="0"/>
      </contour>
      <contour>
        <pt x="617" y="348" on="1"/>
        <pt x="617" y="411" on="0"/>
        <pt x="543" y="490" on="0"/>
        <pt x="490" y="490" on="1"/>
        <pt x="431" y="490" on="0"/>
        <pt x="350" y="410" on="0"/>
        <pt x="350" y="348" on="1"/>
        <pt x="350" y="285" on="0"/>
        <pt x="431" y="208" on="0"/>
        <pt x="490" y="208" on="1"/>
        <pt x="543" y="208" on="0"/>
        <pt x="617" y="285" on="0"/>
      </contour>
      <contour>
        <pt x="589" y="839" on="1"/>
        <pt x="589" y="892" on="0"/>
        <pt x="532" y="956" on="0"/>
        <pt x="490" y="956" on="1"/>
        <pt x="444" y="956" on="0"/>
        <pt x="379" y="892" on="0"/>
        <pt x="379" y="839" on="1"/>
        <pt x="379" y="785" on="0"/>
        <pt x="445" y="716" on="0"/>
        <pt x="490" y="716" on="1"/>
        <pt x="531" y="716" on="0"/>
        <pt x="589" y="785" on="0"/>
      </contour>
    </TTGlyph>
    <TTGlyph name="eight.sup" xMin="81" yMin="-11" xMax="684" yMax="812">
      <contour>
        <pt x="662" y="592" on="1"/>
        <pt x="662" y="533" on="0"/>
        <pt x="596" y="442" on="0"/>
        <pt x="539" y="415" on="1"/>
        <pt x="606" y="387" on="0"/>
        <pt x="684" y="288" on="0"/>
        <pt x="684" y="225" on="1"/>
        <pt x="684" y="113" on="0"/>
        <pt x="516" y="-11" on="0"/>
        <pt x="388" y="-11" on="1"/>
        <pt x="256" y="-11" on="0"/>
        <pt x="81" y="113" on="0"/>
        <pt x="81" y="225" on="1"/>
        <pt x="81" y="288" on="0"/>
        <pt x="161" y="387" on="0"/>
        <pt x="231" y="415" on="1"/>
        <pt x="170" y="441" on="0"/>
        <pt x="102" y="533" on="0"/>
        <pt x="102" y="592" on="1"/>
        <pt x="102" y="696" on="0"/>
        <pt x="264" y="812" on="0"/>
        <pt x="387" y="812" on="1"/>
        <pt x="507" y="812" on="0"/>
        <pt x="662" y="697" on="0"/>
      </contour>
      <contour>
        <pt x="485" y="237" on="1"/>
        <pt x="485" y="282" on="0"/>
        <pt x="427" y="339" on="0"/>
        <pt x="387" y="339" on="1"/>
        <pt x="342" y="339" on="0"/>
        <pt x="280" y="282" on="0"/>
        <pt x="280" y="237" on="1"/>
        <pt x="280" y="193" on="0"/>
        <pt x="342" y="141" on="0"/>
        <pt x="388" y="141" on="1"/>
        <pt x="429" y="141" on="0"/>
        <pt x="485" y="193" on="0"/>
      </contour>
      <contour>
        <pt x="464" y="578" on="1"/>
        <pt x="464" y="615" on="0"/>
        <pt x="419" y="659" on="0"/>
        <pt x="387" y="659" on="1"/>
        <pt x="351" y="659" on="0"/>
        <pt x="302" y="616" on="0"/>
        <pt x="302" y="578" on="1"/>
        <pt x="302" y="539" on="0"/>
        <pt x="352" y="491" on="0"/>
        <pt x="388" y="491" on="1"/>
        <pt x="420" y="491" on="0"/>
        <pt x="464" y="539" on="0"/>
      </contour>
    </TTGlyph>
    <TTGlyph name="ellipsis" xMin="129" yMin="0" xMax="1233" yMax="258">
      <component glyphName="period" x="5" y="0" flags="0x4"/>
      <component glyphName="period" x="419" y="0" flags="0x4"/>
      <component glyphName="period" x="828" y="0" flags="0x4"/>
    </TTGlyph>
    <TTGlyph name="emacron" xMin="69" yMin="-21" xMax="887" yMax="1457">
      <component glyphName="e" x="0" y="0" flags="0x204"/>
      <component glyphName="macron" x="-4" y="0" flags="0x4"/>
    </TTGlyph>
    <TTGlyph name="emdash" xMin="153" yMin="600" xMax="1281" yMax="830">
      <component glyphName="minus" x="-50" y="0" scalex="1.59997558594" scaley="1.0" flags="0x4"/>
    </TTGlyph>
    <TTGlyph name="endash" xMin="151" yMin="600" xMax="1068" yMax="830">
      <component glyphName="minus" x="-14" y="0" scalex="1.29998779297" scaley="1.0" flags="0x4"/>
    </TTGlyph>
    <TTGlyph name="eng" xMin="87" yMin="-437" xMax="908" yMax="1102">
      <contour>
        <pt x="352" y="1082" on="1"/>
        <pt x="364" y="935" on="1"/>
        <pt x="409" y="1014" on="0"/>
        <pt x="539" y="1102" on="0"/>
        <pt x="618" y="1102" on="1"/>
        <pt x="753" y="1102" on="0"/>
        <pt x="908" y="887" on="0"/>
        <pt x="908" y="656" on="1"/>
        <pt x="908" y="-33" on="1"/>
        <pt x="908" y="-227" on="0"/>
        <pt x="728" y="-437" on="0"/>
        <pt x="568" y="-437" on="1"/>
        <pt x="533" y="-437" on="0"/>
        <pt x="473" y="-428" on="0"/>
        <pt x="439" y="-419" on="1"/>
        <pt x="451" y="-195" on="1"/>
        <pt x="474" y="-201" on="0"/>
        <pt x="511" y="-208" on="0"/>
        <pt x="534" y="-208" on="1"/>
        <pt x="577" y="-208" on="0"/>
        <pt x="623" y="-118" on="0"/>
        <pt x="623" y="-33" on="1"/>
        <pt x="623" y="656" on="1"/>
        <pt x="623" y="776" on="0"/>
        <pt x="567" y="874" on="0"/>
        <pt x="510" y="874" on="1"/>
        <pt x="466" y="874" on="0"/>
        <pt x="397" y="834" on="0"/>
        <pt x="372" y="797" on="1"/>
        <pt x="372" y="0" on="1"/>
        <pt x="87" y="0" on="1"/>
        <pt x="87" y="1082" on="1"/>
      </contour>
    </TTGlyph>
    <TTGlyph name="eogonek" xMin="69" yMin="-375" xMax="887" yMax="1102">
      <component glyphName="e" x="0" y="0" flags="0x204"/>
      <component glyphName="ogonek" x="392" y="40" flags="0x4"/>
    </TTGlyph>
    <TTGlyph name="epsilon" xMin="85" yMin="-19" xMax="931" yMax="1100">
      <contour>
        <pt x="85" y="304" on="1"/>
        <pt x="85" y="395" on="0"/>
        <pt x="177" y="524" on="0"/>
        <pt x="263" y="556" on="1"/>
        <pt x="187" y="592" on="0"/>
        <pt x="101" y="714" on="0"/>
        <pt x="101" y="787" on="1"/>
        <pt x="101" y="936" on="0"/>
        <pt x="333" y="1100" on="0"/>
        <pt x="525" y="1100" on="1"/>
        <pt x="692" y="1100" on="0"/>
        <pt x="917" y="923" on="0"/>
        <pt x="912" y="778" on="1"/>
        <pt x="910" y="772" on="1"/>
        <pt x="634" y="772" on="1"/>
        <pt x="634" y="827" on="0"/>
        <pt x="565" y="889" on="0"/>
        <pt x="509" y="889" on="1"/>
        <pt x="446" y="889" on="0"/>
        <pt x="385" y="815" on="0"/>
        <pt x="385" y="764" on="1"/>
        <pt x="385" y="709" on="0"/>
        <pt x="452" y="646" on="0"/>
        <pt x="512" y="646" on="1"/>
        <pt x="668" y="646" on="1"/>
        <pt x="668" y="460" on="1"/>
        <pt x="512" y="460" on="1"/>
        <pt x="445" y="460" on="0"/>
        <pt x="369" y="395" on="0"/>
        <pt x="369" y="327" on="1"/>
        <pt x="369" y="270" on="0"/>
        <pt x="440" y="191" on="0"/>
        <pt x="508" y="191" on="1"/>
        <pt x="577" y="191" on="0"/>
        <pt x="650" y="262" on="0"/>
        <pt x="650" y="318" on="1"/>
        <pt x="925" y="318" on="1"/>
        <pt x="927" y="312" on="1"/>
        <pt x="931" y="152" on="0"/>
        <pt x="690" y="-19" on="0"/>
        <pt x="525" y="-19" on="1"/>
        <pt x="333" y="-19" on="0"/>
        <pt x="85" y="154" on="0"/>
      </contour>
    </TTGlyph>
    <TTGlyph name="epsilontonos" xMin="85" yMin="-19" xMax="931" yMax="1559">
      <component glyphName="epsilon" x="0" y="0" flags="0x204"/>
      <component glyphName="tonos" x="182" y="-64" flags="0x4"/>
    </TTGlyph>
    <TTGlyph name="equal" xMin="120" yMin="323" xMax="892" yMax="984">
      <contour>
        <pt x="892" y="756" on="1"/>
        <pt x="120" y="756" on="1"/>
        <pt x="120" y="984" on="1"/>
        <pt x="892" y="984" on="1"/>
      </contour>
      <contour>
        <pt x="892" y="323" on="1"/>
        <pt x="120" y="323" on="1"/>
        <pt x="120" y="552" on="1"/>
        <pt x="892" y="552" on="1"/>
      </contour>
    </TTGlyph>
    <TTGlyph name="estimated" xMin="133" yMin="-20" xMax="994" yMax="1102">
      <contour>
        <pt x="889" y="94" on="1"/>
        <pt x="815" y="39" on="0"/>
        <pt x="656" y="-20" on="0"/>
        <pt x="575" y="-20" on="1"/>
        <pt x="391" y="-20" on="0"/>
        <pt x="133" y="309" on="0"/>
        <pt x="133" y="541" on="1"/>
        <pt x="133" y="767" on="0"/>
        <pt x="405" y="1102" on="0"/>
        <pt x="575" y="1102" on="1"/>
        <pt x="750" y="1102" on="0"/>
        <pt x="994" y="792" on="0"/>
        <pt x="994" y="561" on="1"/>
        <pt x="994" y="514" on="1"/>
        <pt x="344" y="514" on="1"/>
        <pt x="344" y="186" on="1"/>
        <pt x="391" y="133" on="0"/>
        <pt x="510" y="76" on="0"/>
        <pt x="575" y="75" on="1"/>
        <pt x="655" y="76" on="0"/>
        <pt x="813" y="136" on="0"/>
        <pt x="887" y="198" on="1"/>
      </contour>
      <contour>
        <pt x="575" y="1007" on="1"/>
        <pt x="513" y="1008" on="0"/>
        <pt x="393" y="943" on="0"/>
        <pt x="344" y="886" on="1"/>
        <pt x="344" y="609" on="1"/>
        <pt x="802" y="609" on="1"/>
        <pt x="802" y="895" on="1"/>
        <pt x="755" y="948" on="0"/>
        <pt x="638" y="1008" on="0"/>
      </contour>
    </TTGlyph>
    <TTGlyph name="eta" xMin="87" yMin="-415" xMax="908" yMax="1102">
      <contour>
        <pt x="352" y="1082" on="1"/>
        <pt x="364" y="934" on="1"/>
        <pt x="408" y="1013" on="0"/>
        <pt x="539" y="1102" on="0"/>
        <pt x="618" y="1102" on="1"/>
        <pt x="754" y="1102" on="0"/>
        <pt x="908" y="889" on="0"/>
        <pt x="908" y="656" on="1"/>
        <pt x="908" y="-415" on="1"/>
        <pt x="623" y="-415" on="1"/>
        <pt x="623" y="656" on="1"/>
        <pt x="623" y="776" on="0"/>
        <pt x="567" y="874" on="0"/>
        <pt x="510" y="874" on="1"/>
        <pt x="466" y="874" on="0"/>
        <pt x="396" y="833" on="0"/>
        <pt x="371" y="796" on="1"/>
        <pt x="371" y="0" on="1"/>
        <pt x="87" y="0" on="1"/>
        <pt x="87" y="1082" on="1"/>
      </contour>
    </TTGlyph>
    <TTGlyph name="etatonos" xMin="87" yMin="-415" xMax="908" yMax="1560">
      <component glyphName="eta" x="0" y="0" flags="0x204"/>
      <component glyphName="tonos" x="166" y="-63" flags="0x4"/>
    </TTGlyph>
    <TTGlyph name="eth" xMin="38" yMin="-21" xMax="988" yMax="1517">
      <contour>
        <pt x="781" y="1284" on="1"/>
        <pt x="879" y="1167" on="0"/>
        <pt x="988" y="852" on="0"/>
        <pt x="988" y="664" on="1"/>
        <pt x="988" y="593" on="1"/>
        <pt x="988" y="323" on="0"/>
        <pt x="713" y="-21" on="0"/>
        <pt x="508" y="-21" on="1"/>
        <pt x="300" y="-21" on="0"/>
        <pt x="38" y="258" on="0"/>
        <pt x="38" y="466" on="1"/>
        <pt x="38" y="693" on="0"/>
        <pt x="265" y="963" on="0"/>
        <pt x="465" y="963" on="1"/>
        <pt x="524" y="963" on="0"/>
        <pt x="631" y="925" on="0"/>
        <pt x="671" y="892" on="1"/>
        <pt x="675" y="896" on="1"/>
        <pt x="658" y="965" on="0"/>
        <pt x="598" y="1088" on="0"/>
        <pt x="557" y="1138" on="1"/>
        <pt x="376" y="1019" on="1"/>
        <pt x="304" y="1130" on="1"/>
        <pt x="459" y="1231" on="1"/>
        <pt x="429" y="1252" on="0"/>
        <pt x="365" y="1286" on="0"/>
        <pt x="332" y="1300" on="1"/>
        <pt x="421" y="1517" on="1"/>
        <pt x="493" y="1496" on="0"/>
        <pt x="626" y="1426" on="0"/>
        <pt x="685" y="1378" on="1"/>
        <pt x="858" y="1490" on="1"/>
        <pt x="928" y="1380" on="1"/>
      </contour>
      <contour>
        <pt x="511" y="206" on="1"/>
        <pt x="601" y="206" on="0"/>
        <pt x="703" y="422" on="0"/>
        <pt x="703" y="593" on="1"/>
        <pt x="703" y="663" on="1"/>
        <pt x="675" y="701" on="0"/>
        <pt x="578" y="750" on="0"/>
        <pt x="515" y="750" on="1"/>
        <pt x="422" y="750" on="0"/>
        <pt x="322" y="595" on="0"/>
        <pt x="322" y="466" on="1"/>
        <pt x="322" y="355" on="0"/>
        <pt x="425" y="206" on="0"/>
      </contour>
    </TTGlyph>
    <TTGlyph name="exclam" xMin="112" yMin="0" xMax="397" yMax="1456">
      <contour>
        <pt x="397" y="506" on="1"/>
        <pt x="112" y="506" on="1"/>
        <pt x="112" y="1456" on="1"/>
        <pt x="397" y="1456" on="1"/>
      </contour>
      <contour>
        <pt x="395" y="0" on="1"/>
        <pt x="115" y="0" on="1"/>
        <pt x="115" y="258" on="1"/>
        <pt x="395" y="258" on="1"/>
      </contour>
    </TTGlyph>
    <TTGlyph name="exclamdbl" xMin="112" yMin="0" xMax="903" yMax="1456">
      <component glyphName="exclam" x="0" y="0" flags="0x4"/>
      <component glyphName="exclam" x="506" y="0" flags="0x4"/>
    </TTGlyph>
    <TTGlyph name="exclamdown" xMin="125" yMin="-374" xMax="410" yMax="1082">
      <contour>
        <pt x="410" y="-374" on="1"/>
        <pt x="125" y="-374" on="1"/>
        <pt x="125" y="575" on="1"/>
        <pt x="410" y="575" on="1"/>
      </contour>
      <contour>
        <pt x="408" y="821" on="1"/>
        <pt x="128" y="821" on="1"/>
        <pt x="128" y="1082" on="1"/>
        <pt x="408" y="1082" on="1"/>
      </contour>
    </TTGlyph>
    <TTGlyph name="f" xMin="23" yMin="0" xMax="656" yMax="1581">
      <contour>
        <pt x="156" y="0" on="1"/>
        <pt x="156" y="876" on="1"/>
        <pt x="23" y="876" on="1"/>
        <pt x="23" y="1082" on="1"/>
        <pt x="156" y="1082" on="1"/>
        <pt x="156" y="1202" on="1"/>
        <pt x="156" y="1384" on="0"/>
        <pt x="344" y="1581" on="0"/>
        <pt x="514" y="1581" on="1"/>
        <pt x="547" y="1581" on="0"/>
        <pt x="613" y="1570" on="0"/>
        <pt x="656" y="1560" on="1"/>
        <pt x="632" y="1342" on="1"/>
        <pt x="612" y="1346" on="0"/>
        <pt x="575" y="1352" on="0"/>
        <pt x="550" y="1352" on="1"/>
        <pt x="496" y="1352" on="0"/>
        <pt x="440" y="1274" on="0"/>
        <pt x="440" y="1202" on="1"/>
        <pt x="440" y="1082" on="1"/>
        <pt x="614" y="1082" on="1"/>
        <pt x="614" y="876" on="1"/>
        <pt x="440" y="876" on="1"/>
        <pt x="440" y="0" on="1"/>
      </contour>
    </TTGlyph>
    <TTGlyph name="fi" xMin="18" yMin="0" xMax="1001" yMax="1581">
      <contour>
        <pt x="151" y="0" on="1"/>
        <pt x="151" y="876" on="1"/>
        <pt x="18" y="876" on="1"/>
        <pt x="18" y="1082" on="1"/>
        <pt x="151" y="1082" on="1"/>
        <pt x="151" y="1152" on="1"/>
        <pt x="151" y="1359" on="0"/>
        <pt x="375" y="1581" on="0"/>
        <pt x="579" y="1581" on="1"/>
        <pt x="649" y="1581" on="0"/>
        <pt x="786" y="1551" on="0"/>
        <pt x="871" y="1522" on="1"/>
        <pt x="831" y="1290" on="1"/>
        <pt x="766" y="1312" on="0"/>
        <pt x="665" y="1336" on="0"/>
        <pt x="597" y="1336" on="1"/>
        <pt x="517" y="1336" on="0"/>
        <pt x="435" y="1242" on="0"/>
        <pt x="435" y="1152" on="1"/>
        <pt x="435" y="1082" on="1"/>
        <pt x="608" y="1082" on="1"/>
        <pt x="608" y="876" on="1"/>
        <pt x="435" y="876" on="1"/>
        <pt x="435" y="0" on="1"/>
      </contour>
      <contour>
        <pt x="1001" y="0" on="1"/>
        <pt x="716" y="0" on="1"/>
        <pt x="716" y="1082" on="1"/>
        <pt x="1001" y="1082" on="1"/>
      </contour>
    </TTGlyph>
    <TTGlyph name="five" xMin="82" yMin="-21" xMax="935" yMax="1456">
      <contour>
        <pt x="110" y="644" on="1"/>
        <pt x="182" y="1456" on="1"/>
        <pt x="894" y="1456" on="1"/>
        <pt x="894" y="1223" on="1"/>
        <pt x="414" y="1223" on="1"/>
        <pt x="383" y="880" on="1"/>
        <pt x="414" y="911" on="0"/>
        <pt x="507" y="952" on="0"/>
        <pt x="558" y="954" on="1"/>
        <pt x="740" y="957" on="0"/>
        <pt x="935" y="700" on="0"/>
        <pt x="935" y="467" on="1"/>
        <pt x="935" y="259" on="0"/>
        <pt x="714" y="-21" on="0"/>
        <pt x="509" y="-21" on="1"/>
        <pt x="335" y="-21" on="0"/>
        <pt x="82" y="202" on="0"/>
        <pt x="86" y="393" on="1"/>
        <pt x="88" y="398" on="1"/>
        <pt x="364" y="413" on="1"/>
        <pt x="364" y="315" on="0"/>
        <pt x="444" y="206" on="0"/>
        <pt x="509" y="206" on="1"/>
        <pt x="584" y="206" on="0"/>
        <pt x="652" y="349" on="0"/>
        <pt x="652" y="465" on="1"/>
        <pt x="652" y="594" on="0"/>
        <pt x="576" y="744" on="0"/>
        <pt x="498" y="744" on="1"/>
        <pt x="439" y="744" on="0"/>
        <pt x="375" y="680" on="0"/>
        <pt x="363" y="627" on="1"/>
      </contour>
    </TTGlyph>
    <TTGlyph name="five.lnum" xMin="83" yMin="-21" xMax="937" yMax="1456">
      <contour>
        <pt x="112" y="644" on="1"/>
        <pt x="184" y="1456" on="1"/>
        <pt x="895" y="1456" on="1"/>
        <pt x="895" y="1223" on="1"/>
        <pt x="415" y="1223" on="1"/>
        <pt x="384" y="880" on="1"/>
        <pt x="415" y="911" on="0"/>
        <pt x="509" y="952" on="0"/>
        <pt x="559" y="954" on="1"/>
        <pt x="741" y="957" on="0"/>
        <pt x="937" y="700" on="0"/>
        <pt x="937" y="467" on="1"/>
        <pt x="937" y="259" on="0"/>
        <pt x="716" y="-21" on="0"/>
        <pt x="511" y="-21" on="1"/>
        <pt x="336" y="-21" on="0"/>
        <pt x="83" y="202" on="0"/>
        <pt x="87" y="393" on="1"/>
        <pt x="89" y="398" on="1"/>
        <pt x="365" y="413" on="1"/>
        <pt x="365" y="315" on="0"/>
        <pt x="445" y="206" on="0"/>
        <pt x="511" y="206" on="1"/>
        <pt x="585" y="206" on="0"/>
        <pt x="653" y="349" on="0"/>
        <pt x="653" y="465" on="1"/>
        <pt x="653" y="594" on="0"/>
        <pt x="578" y="744" on="0"/>
        <pt x="500" y="744" on="1"/>
        <pt x="440" y="744" on="0"/>
        <pt x="377" y="681" on="0"/>
        <pt x="364" y="627" on="1"/>
      </contour>
    </TTGlyph>
    <TTGlyph name="five.smcp" xMin="54" yMin="-17" xMax="881" yMax="1165">
      <contour>
        <pt x="95" y="505" on="1"/>
        <pt x="155" y="1165" on="1"/>
        <pt x="815" y="1165" on="1"/>
        <pt x="815" y="943" on="1"/>
        <pt x="408" y="943" on="1"/>
        <pt x="390" y="697" on="1"/>
        <pt x="420" y="718" on="0"/>
        <pt x="501" y="748" on="0"/>
        <pt x="549" y="749" on="1"/>
        <pt x="705" y="751" on="0"/>
        <pt x="881" y="550" on="0"/>
        <pt x="881" y="371" on="1"/>
        <pt x="881" y="193" on="0"/>
        <pt x="679" y="-17" on="0"/>
        <pt x="473" y="-17" on="1"/>
        <pt x="294" y="-17" on="0"/>
        <pt x="54" y="150" on="0"/>
        <pt x="59" y="314" on="1"/>
        <pt x="60" y="319" on="1"/>
        <pt x="336" y="335" on="1"/>
        <pt x="336" y="275" on="0"/>
        <pt x="411" y="208" on="0"/>
        <pt x="473" y="208" on="1"/>
        <pt x="535" y="208" on="0"/>
        <pt x="598" y="303" on="0"/>
        <pt x="598" y="387" on="1"/>
        <pt x="598" y="466" on="0"/>
        <pt x="529" y="561" on="0"/>
        <pt x="470" y="561" on="1"/>
        <pt x="422" y="561" on="0"/>
        <pt x="363" y="519" on="0"/>
        <pt x="353" y="492" on="1"/>
      </contour>
    </TTGlyph>
</ttFont>
